STARTFONT 2.1
COMMENT
COMMENT Converted from OpenType font "SourceSansPro-Light.otf" by "otf2bdf 3.0".
COMMENT
FONT -FreeType-Source Sans Pro Light-Medium-R-Normal--22-160-100-100-P-97-ISO10646-1
SIZE 16 100 100
FONTBOUNDINGBOX 58 28 -10 -6
STARTPROPERTIES 19
FOUNDRY "FreeType"
FAMILY_NAME "Source Sans Pro Light"
WEIGHT_NAME "Medium"
SLANT "R"
SETWIDTH_NAME "Normal"
ADD_STYLE_NAME ""
PIXEL_SIZE 22
POINT_SIZE 160
RESOLUTION_X 100
RESOLUTION_Y 100
SPACING "P"
AVERAGE_WIDTH 97
CHARSET_REGISTRY "ISO10646"
CHARSET_ENCODING "1"
FONT_ASCENT 21
FONT_DESCENT 6
COPYRIGHT "Copyright 2010, 2012, 2014 Adobe Systems Incorporated (http://www.adobe.com/), with Reserved Font Name Source."
_OTF_FONTFILE "SourceSansPro-Light.otf"
_OTF_PSNAME "SourceSansPro-Light"
ENDPROPERTIES
CHARS 1296
STARTCHAR 0020
ENCODING 32
SWIDTH 180 0
DWIDTH 4 0
BBX 0 0 0 0
BITMAP
ENDCHAR
STARTCHAR 0021
ENCODING 33
SWIDTH 270 0
DWIDTH 6 0
BBX 2 15 2 0
BITMAP
80
80
80
80
80
80
80
80
80
80
80
00
00
C0
C0
ENDCHAR
STARTCHAR 0022
ENCODING 34
SWIDTH 360 0
DWIDTH 8 0
BBX 4 5 2 10
BITMAP
90
90
90
90
90
ENDCHAR
STARTCHAR 0023
ENCODING 35
SWIDTH 495 0
DWIDTH 11 0
BBX 9 15 1 0
BITMAP
1100
2100
2200
2200
FF80
2200
2200
2200
2200
FF80
4400
4400
4400
4400
4400
ENDCHAR
STARTCHAR 0024
ENCODING 36
SWIDTH 495 0
DWIDTH 11 0
BBX 7 19 2 -2
BITMAP
10
10
3C
C2
80
80
80
C0
60
18
04
02
02
02
02
86
7C
10
10
ENDCHAR
STARTCHAR 0025
ENCODING 37
SWIDTH 810 0
DWIDTH 18 0
BBX 16 15 1 0
BITMAP
7810
4810
8420
8420
8440
8480
849E
8522
7921
0221
0221
0421
0421
0822
081C
ENDCHAR
STARTCHAR 0026
ENCODING 38
SWIDTH 585 0
DWIDTH 13 0
BBX 11 15 1 0
BITMAP
1C00
2200
2200
2200
2200
2400
1800
3020
4820
8C40
8640
8380
8180
43C0
3C20
ENDCHAR
STARTCHAR 0027
ENCODING 39
SWIDTH 225 0
DWIDTH 5 0
BBX 1 5 2 10
BITMAP
80
80
80
80
80
ENDCHAR
STARTCHAR 0028
ENCODING 40
SWIDTH 270 0
DWIDTH 6 0
BBX 3 20 2 -4
BITMAP
20
20
40
40
40
80
80
80
80
80
80
80
80
80
80
40
40
40
20
20
ENDCHAR
STARTCHAR 0029
ENCODING 41
SWIDTH 270 0
DWIDTH 6 0
BBX 3 20 1 -4
BITMAP
80
80
40
40
40
20
20
20
20
20
20
20
20
20
20
40
40
40
80
80
ENDCHAR
STARTCHAR 002A
ENCODING 42
SWIDTH 405 0
DWIDTH 9 0
BBX 5 5 2 10
BITMAP
20
20
F8
60
50
ENDCHAR
STARTCHAR 002B
ENCODING 43
SWIDTH 495 0
DWIDTH 11 0
BBX 9 9 1 3
BITMAP
0800
0800
0800
0800
FF80
0800
0800
0800
0800
ENDCHAR
STARTCHAR 002C
ENCODING 44
SWIDTH 225 0
DWIDTH 5 0
BBX 3 5 1 -3
BITMAP
40
60
20
40
C0
ENDCHAR
STARTCHAR 002D
ENCODING 45
SWIDTH 315 0
DWIDTH 7 0
BBX 5 1 1 5
BITMAP
F8
ENDCHAR
STARTCHAR 002E
ENCODING 46
SWIDTH 225 0
DWIDTH 5 0
BBX 1 2 2 0
BITMAP
80
80
ENDCHAR
STARTCHAR 002F
ENCODING 47
SWIDTH 360 0
DWIDTH 8 0
BBX 8 19 0 -3
BITMAP
01
02
02
02
04
04
04
08
08
10
10
10
20
20
20
40
40
40
80
ENDCHAR
STARTCHAR 0030
ENCODING 48
SWIDTH 495 0
DWIDTH 11 0
BBX 9 15 1 0
BITMAP
3C00
6200
4100
4100
8100
8100
8080
8080
8080
8100
8100
4100
4100
6200
3C00
ENDCHAR
STARTCHAR 0031
ENCODING 49
SWIDTH 495 0
DWIDTH 11 0
BBX 7 15 2 0
BITMAP
10
70
10
10
10
10
10
10
10
10
10
10
10
10
FE
ENDCHAR
STARTCHAR 0032
ENCODING 50
SWIDTH 495 0
DWIDTH 11 0
BBX 9 15 1 0
BITMAP
3C00
C200
8100
0100
0100
0100
0200
0200
0400
0800
1800
1000
2000
4000
FF80
ENDCHAR
STARTCHAR 0033
ENCODING 51
SWIDTH 495 0
DWIDTH 11 0
BBX 8 15 1 0
BITMAP
3C
42
01
01
01
03
06
38
06
01
01
01
01
C3
3C
ENDCHAR
STARTCHAR 0034
ENCODING 52
SWIDTH 495 0
DWIDTH 11 0
BBX 10 15 0 0
BITMAP
0100
0300
0500
0500
0900
1100
1100
2100
6100
4100
FFC0
0100
0100
0100
0100
ENDCHAR
STARTCHAR 0035
ENCODING 53
SWIDTH 495 0
DWIDTH 11 0
BBX 9 15 1 0
BITMAP
7F00
4000
4000
4000
4000
7C00
4300
0100
0100
0080
0080
0100
0100
C200
3C00
ENDCHAR
STARTCHAR 0036
ENCODING 54
SWIDTH 495 0
DWIDTH 11 0
BBX 9 15 1 0
BITMAP
1E00
2100
4000
4000
4000
8000
9E00
A100
C100
8080
8080
4080
4100
2300
1E00
ENDCHAR
STARTCHAR 0037
ENCODING 55
SWIDTH 495 0
DWIDTH 11 0
BBX 9 15 1 0
BITMAP
FF80
0100
0200
0200
0400
0400
0400
0800
0800
0800
0800
1000
1000
1000
1000
ENDCHAR
STARTCHAR 0038
ENCODING 56
SWIDTH 495 0
DWIDTH 11 0
BBX 9 15 1 0
BITMAP
3C00
6300
4100
4100
4100
4100
3200
2C00
4300
8100
8080
8080
8100
4100
3E00
ENDCHAR
STARTCHAR 0039
ENCODING 57
SWIDTH 495 0
DWIDTH 11 0
BBX 8 15 1 0
BITMAP
3C
42
81
81
81
81
81
43
3D
01
01
01
02
86
78
ENDCHAR
STARTCHAR 003A
ENCODING 58
SWIDTH 225 0
DWIDTH 5 0
BBX 1 10 2 0
BITMAP
80
80
00
00
00
00
00
00
80
80
ENDCHAR
STARTCHAR 003B
ENCODING 59
SWIDTH 225 0
DWIDTH 5 0
BBX 3 13 1 -3
BITMAP
40
40
00
00
00
00
00
00
40
60
20
40
C0
ENDCHAR
STARTCHAR 003C
ENCODING 60
SWIDTH 495 0
DWIDTH 11 0
BBX 9 8 1 4
BITMAP
0080
0700
1800
E000
C000
3000
0E00
0180
ENDCHAR
STARTCHAR 003D
ENCODING 61
SWIDTH 495 0
DWIDTH 11 0
BBX 9 5 1 5
BITMAP
FF80
0000
0000
0000
FF80
ENDCHAR
STARTCHAR 003E
ENCODING 62
SWIDTH 495 0
DWIDTH 11 0
BBX 9 8 1 4
BITMAP
8000
6000
1C00
0300
0180
0E00
3000
C000
ENDCHAR
STARTCHAR 003F
ENCODING 63
SWIDTH 405 0
DWIDTH 9 0
BBX 7 15 1 0
BITMAP
78
84
02
02
02
04
08
08
10
10
00
00
00
30
30
ENDCHAR
STARTCHAR 0040
ENCODING 64
SWIDTH 810 0
DWIDTH 18 0
BBX 16 17 1 -3
BITMAP
03F0
0C08
1004
2002
4001
41C1
8221
8421
8821
8821
8842
84A4
4318
4000
2000
1010
0FE0
ENDCHAR
STARTCHAR 0041
ENCODING 65
SWIDTH 540 0
DWIDTH 12 0
BBX 11 15 0 0
BITMAP
0600
0600
0A00
0900
0900
1100
1080
1080
2080
3FC0
2040
4040
4020
4020
8020
ENDCHAR
STARTCHAR 0042
ENCODING 66
SWIDTH 585 0
DWIDTH 13 0
BBX 10 15 2 0
BITMAP
FE00
8100
8080
8080
8080
8080
8300
FE00
8180
80C0
8040
8040
80C0
8180
FE00
ENDCHAR
STARTCHAR 0043
ENCODING 67
SWIDTH 585 0
DWIDTH 13 0
BBX 10 15 1 0
BITMAP
0F80
3040
2000
4000
4000
8000
8000
8000
8000
8000
4000
4000
2000
3040
0F80
ENDCHAR
STARTCHAR 0044
ENCODING 68
SWIDTH 585 0
DWIDTH 13 0
BBX 10 15 2 0
BITMAP
FC00
8300
8080
8080
8040
8040
8040
8040
8040
8040
8040
8080
8080
8300
FC00
ENDCHAR
STARTCHAR 0045
ENCODING 69
SWIDTH 495 0
DWIDTH 11 0
BBX 8 15 2 0
BITMAP
FF
80
80
80
80
80
80
FE
80
80
80
80
80
80
FF
ENDCHAR
STARTCHAR 0046
ENCODING 70
SWIDTH 495 0
DWIDTH 11 0
BBX 8 15 2 0
BITMAP
FF
80
80
80
80
80
80
FE
80
80
80
80
80
80
80
ENDCHAR
STARTCHAR 0047
ENCODING 71
SWIDTH 585 0
DWIDTH 13 0
BBX 11 15 1 0
BITMAP
0F80
1040
2000
4000
4000
C000
8000
8000
83E0
8020
4020
4020
2020
3060
0F80
ENDCHAR
STARTCHAR 0048
ENCODING 72
SWIDTH 630 0
DWIDTH 14 0
BBX 10 15 2 0
BITMAP
8040
8040
8040
8040
8040
8040
8040
FFC0
8040
8040
8040
8040
8040
8040
8040
ENDCHAR
STARTCHAR 0049
ENCODING 73
SWIDTH 225 0
DWIDTH 5 0
BBX 1 15 2 0
BITMAP
80
80
80
80
80
80
80
80
80
80
80
80
80
80
80
ENDCHAR
STARTCHAR 004A
ENCODING 74
SWIDTH 450 0
DWIDTH 10 0
BBX 7 15 1 0
BITMAP
02
02
02
02
02
02
02
02
02
02
02
02
82
C4
7C
ENDCHAR
STARTCHAR 004B
ENCODING 75
SWIDTH 540 0
DWIDTH 12 0
BBX 10 15 2 0
BITMAP
8080
8100
8200
8600
8C00
8800
9800
A400
C600
8200
8300
8100
8080
8080
8040
ENDCHAR
STARTCHAR 004C
ENCODING 76
SWIDTH 450 0
DWIDTH 10 0
BBX 8 15 2 0
BITMAP
80
80
80
80
80
80
80
80
80
80
80
80
80
80
FF
ENDCHAR
STARTCHAR 004D
ENCODING 77
SWIDTH 720 0
DWIDTH 16 0
BBX 12 15 2 0
BITMAP
C030
C050
C050
A050
A090
9090
9090
9110
8910
8910
8A10
8610
8610
8010
8010
ENDCHAR
STARTCHAR 004E
ENCODING 78
SWIDTH 630 0
DWIDTH 14 0
BBX 10 15 2 0
BITMAP
C040
C040
A040
A040
9040
9040
8840
8440
8440
8240
8240
8140
8140
80C0
8040
ENDCHAR
STARTCHAR 004F
ENCODING 79
SWIDTH 630 0
DWIDTH 14 0
BBX 12 15 1 0
BITMAP
0F80
30C0
2020
4030
4010
8010
8010
8010
8010
8010
4010
4020
2020
30C0
0F80
ENDCHAR
STARTCHAR 0050
ENCODING 80
SWIDTH 540 0
DWIDTH 12 0
BBX 9 15 2 0
BITMAP
FE00
8100
8080
8080
8080
8080
8080
8300
FC00
8000
8000
8000
8000
8000
8000
ENDCHAR
STARTCHAR 0051
ENCODING 81
SWIDTH 630 0
DWIDTH 14 0
BBX 12 18 1 -3
BITMAP
0F80
30C0
2020
4020
4010
8010
8010
8010
8010
8010
4010
4020
2020
3040
0F80
0200
0100
00F0
ENDCHAR
STARTCHAR 0052
ENCODING 82
SWIDTH 540 0
DWIDTH 12 0
BBX 9 15 2 0
BITMAP
FE00
8100
8080
8080
8080
8080
8100
FE00
8400
8400
8200
8200
8100
8180
8080
ENDCHAR
STARTCHAR 0053
ENCODING 83
SWIDTH 540 0
DWIDTH 12 0
BBX 10 15 1 0
BITMAP
1E00
2180
4000
4000
4000
6000
3800
0600
0180
0080
0040
0040
8080
4180
3E00
ENDCHAR
STARTCHAR 0054
ENCODING 84
SWIDTH 540 0
DWIDTH 12 0
BBX 10 15 1 0
BITMAP
FFC0
0800
0800
0800
0800
0800
0800
0800
0800
0800
0800
0800
0800
0800
0800
ENDCHAR
STARTCHAR 0055
ENCODING 85
SWIDTH 630 0
DWIDTH 14 0
BBX 10 15 2 0
BITMAP
8040
8040
8040
8040
8040
8040
8040
8040
8040
8040
8040
8040
4080
6180
1E00
ENDCHAR
STARTCHAR 0056
ENCODING 86
SWIDTH 495 0
DWIDTH 11 0
BBX 11 15 0 0
BITMAP
8020
4040
4040
4040
2080
2080
2080
2100
1100
1100
1200
0A00
0A00
0C00
0400
ENDCHAR
STARTCHAR 0057
ENCODING 87
SWIDTH 765 0
DWIDTH 17 0
BBX 15 15 1 0
BITMAP
8102
8302
8282
8282
4284
4444
4444
4444
4444
2828
2828
2828
2828
3030
1010
ENDCHAR
STARTCHAR 0058
ENCODING 88
SWIDTH 495 0
DWIDTH 11 0
BBX 9 15 1 0
BITMAP
8080
4100
4100
2200
2400
1400
1800
0800
1400
2400
2200
4200
4100
8100
8080
ENDCHAR
STARTCHAR 0059
ENCODING 89
SWIDTH 450 0
DWIDTH 10 0
BBX 10 15 0 0
BITMAP
8040
4080
4080
2100
2100
1200
1200
0C00
0C00
0800
0800
0800
0800
0800
0800
ENDCHAR
STARTCHAR 005A
ENCODING 90
SWIDTH 540 0
DWIDTH 12 0
BBX 10 15 1 0
BITMAP
7FC0
0080
0080
0100
0200
0200
0400
0C00
0800
1000
1000
2000
4000
4000
FFC0
ENDCHAR
STARTCHAR 005B
ENCODING 91
SWIDTH 270 0
DWIDTH 6 0
BBX 4 20 2 -4
BITMAP
F0
80
80
80
80
80
80
80
80
80
80
80
80
80
80
80
80
80
80
F0
ENDCHAR
STARTCHAR 005C
ENCODING 92
SWIDTH 360 0
DWIDTH 8 0
BBX 7 19 0 -3
BITMAP
80
80
40
40
20
20
20
10
10
10
08
08
08
04
04
04
02
02
02
ENDCHAR
STARTCHAR 005D
ENCODING 93
SWIDTH 270 0
DWIDTH 6 0
BBX 4 20 0 -4
BITMAP
F0
10
10
10
10
10
10
10
10
10
10
10
10
10
10
10
10
10
10
F0
ENDCHAR
STARTCHAR 005E
ENCODING 94
SWIDTH 495 0
DWIDTH 11 0
BBX 7 8 2 7
BITMAP
10
30
28
48
44
44
84
82
ENDCHAR
STARTCHAR 005F
ENCODING 95
SWIDTH 495 0
DWIDTH 11 0
BBX 11 1 0 -3
BITMAP
FFE0
ENDCHAR
STARTCHAR 0060
ENCODING 96
SWIDTH 540 0
DWIDTH 12 0
BBX 3 4 4 13
BITMAP
80
80
40
20
ENDCHAR
STARTCHAR 0061
ENCODING 97
SWIDTH 495 0
DWIDTH 11 0
BBX 8 11 1 0
BITMAP
3E
43
01
01
03
3D
41
81
81
43
7D
ENDCHAR
STARTCHAR 0062
ENCODING 98
SWIDTH 540 0
DWIDTH 12 0
BBX 9 16 2 0
BITMAP
8000
8000
8000
8000
8000
9E00
E100
8100
8080
8080
8080
8080
8080
8100
C300
BC00
ENDCHAR
STARTCHAR 0063
ENCODING 99
SWIDTH 450 0
DWIDTH 10 0
BBX 8 11 1 0
BITMAP
1E
21
40
C0
80
80
80
80
40
61
1E
ENDCHAR
STARTCHAR 0064
ENCODING 100
SWIDTH 540 0
DWIDTH 12 0
BBX 9 16 1 0
BITMAP
0080
0080
0080
0080
0080
1E80
2180
4080
C080
8080
8080
8080
8080
4080
6180
3E80
ENDCHAR
STARTCHAR 0065
ENCODING 101
SWIDTH 495 0
DWIDTH 11 0
BBX 9 11 1 0
BITMAP
1E00
2100
4100
8080
8080
FF80
8000
8000
4000
2000
1F00
ENDCHAR
STARTCHAR 0066
ENCODING 102
SWIDTH 270 0
DWIDTH 6 0
BBX 5 16 1 0
BITMAP
38
60
40
40
40
F8
40
40
40
40
40
40
40
40
40
40
ENDCHAR
STARTCHAR 0067
ENCODING 103
SWIDTH 495 0
DWIDTH 11 0
BBX 10 16 1 -5
BITMAP
3F80
4200
4100
4100
4100
4100
2200
5C00
4000
4000
3F00
4080
8040
8080
4180
3E00
ENDCHAR
STARTCHAR 0068
ENCODING 104
SWIDTH 540 0
DWIDTH 12 0
BBX 8 16 2 0
BITMAP
80
80
80
80
80
9E
E2
81
81
81
81
81
81
81
81
81
ENDCHAR
STARTCHAR 0069
ENCODING 105
SWIDTH 225 0
DWIDTH 5 0
BBX 1 15 2 0
BITMAP
80
80
00
00
80
80
80
80
80
80
80
80
80
80
80
ENDCHAR
STARTCHAR 006A
ENCODING 106
SWIDTH 225 0
DWIDTH 5 0
BBX 4 20 -1 -5
BITMAP
10
10
00
00
10
10
10
10
10
10
10
10
10
10
10
10
10
10
10
E0
ENDCHAR
STARTCHAR 006B
ENCODING 107
SWIDTH 450 0
DWIDTH 10 0
BBX 8 16 2 0
BITMAP
80
80
80
80
80
82
84
88
88
90
A8
C8
84
86
82
81
ENDCHAR
STARTCHAR 006C
ENCODING 108
SWIDTH 225 0
DWIDTH 5 0
BBX 2 16 2 0
BITMAP
80
80
80
80
80
80
80
80
80
80
80
80
80
80
80
C0
ENDCHAR
STARTCHAR 006D
ENCODING 109
SWIDTH 810 0
DWIDTH 18 0
BBX 14 11 2 0
BITMAP
9C78
E28C
8304
8104
8104
8104
8104
8104
8104
8104
8104
ENDCHAR
STARTCHAR 006E
ENCODING 110
SWIDTH 540 0
DWIDTH 12 0
BBX 8 11 2 0
BITMAP
9E
E2
81
81
81
81
81
81
81
81
81
ENDCHAR
STARTCHAR 006F
ENCODING 111
SWIDTH 540 0
DWIDTH 12 0
BBX 10 11 1 0
BITMAP
1E00
2100
4080
C080
8040
8040
8040
8080
4080
2100
1E00
ENDCHAR
STARTCHAR 0070
ENCODING 112
SWIDTH 540 0
DWIDTH 12 0
BBX 9 16 2 -5
BITMAP
9E00
E100
8100
8080
8080
8080
8080
8080
8100
C300
BC00
8000
8000
8000
8000
8000
ENDCHAR
STARTCHAR 0071
ENCODING 113
SWIDTH 540 0
DWIDTH 12 0
BBX 9 16 1 -5
BITMAP
1E80
2180
4080
C080
8080
8080
8080
8080
4080
6180
3E80
0080
0080
0080
0080
0080
ENDCHAR
STARTCHAR 0072
ENCODING 114
SWIDTH 315 0
DWIDTH 7 0
BBX 5 11 2 0
BITMAP
98
E0
C0
80
80
80
80
80
80
80
80
ENDCHAR
STARTCHAR 0073
ENCODING 115
SWIDTH 405 0
DWIDTH 9 0
BBX 7 11 1 0
BITMAP
3C
40
80
80
60
18
06
02
02
82
7C
ENDCHAR
STARTCHAR 0074
ENCODING 116
SWIDTH 315 0
DWIDTH 7 0
BBX 6 14 1 0
BITMAP
40
40
40
F8
40
40
40
40
40
40
40
40
20
3C
ENDCHAR
STARTCHAR 0075
ENCODING 117
SWIDTH 540 0
DWIDTH 12 0
BBX 8 11 2 0
BITMAP
81
81
81
81
81
81
81
81
83
C5
79
ENDCHAR
STARTCHAR 0076
ENCODING 118
SWIDTH 450 0
DWIDTH 10 0
BBX 9 11 0 0
BITMAP
C080
4080
4100
2100
2100
2200
1200
1200
1400
0C00
0C00
ENDCHAR
STARTCHAR 0077
ENCODING 119
SWIDTH 675 0
DWIDTH 15 0
BBX 14 11 1 0
BITMAP
8204
8508
8508
4508
4510
4890
4890
2890
2860
3060
1060
ENDCHAR
STARTCHAR 0078
ENCODING 120
SWIDTH 405 0
DWIDTH 9 0
BBX 7 11 1 0
BITMAP
82
44
44
28
28
10
28
48
44
82
82
ENDCHAR
STARTCHAR 0079
ENCODING 121
SWIDTH 450 0
DWIDTH 10 0
BBX 9 16 0 -5
BITMAP
C080
4080
4080
2100
2100
2100
1200
1200
1200
0C00
0C00
0800
0800
0800
1000
6000
ENDCHAR
STARTCHAR 007A
ENCODING 122
SWIDTH 405 0
DWIDTH 9 0
BBX 7 11 1 0
BITMAP
FE
06
04
08
08
10
20
20
40
80
FE
ENDCHAR
STARTCHAR 007B
ENCODING 123
SWIDTH 270 0
DWIDTH 6 0
BBX 5 20 1 -4
BITMAP
18
20
40
40
40
40
40
40
40
C0
40
40
40
40
40
40
40
40
20
18
ENDCHAR
STARTCHAR 007C
ENCODING 124
SWIDTH 225 0
DWIDTH 5 0
BBX 1 22 2 -5
BITMAP
80
80
80
80
80
80
80
80
80
80
80
80
80
80
80
80
80
80
80
80
80
80
ENDCHAR
STARTCHAR 007D
ENCODING 125
SWIDTH 270 0
DWIDTH 6 0
BBX 5 20 0 -4
BITMAP
C0
20
10
10
10
10
10
10
10
08
10
10
10
10
10
10
10
10
20
C0
ENDCHAR
STARTCHAR 007E
ENCODING 126
SWIDTH 495 0
DWIDTH 11 0
BBX 9 3 1 6
BITMAP
7000
9880
0700
ENDCHAR
STARTCHAR 00A0
ENCODING 160
SWIDTH 180 0
DWIDTH 4 0
BBX 0 0 0 0
BITMAP
ENDCHAR
STARTCHAR 00A1
ENCODING 161
SWIDTH 270 0
DWIDTH 6 0
BBX 2 15 2 -4
BITMAP
C0
C0
00
00
80
80
80
80
80
80
80
80
80
80
80
ENDCHAR
STARTCHAR 00A2
ENCODING 162
SWIDTH 495 0
DWIDTH 11 0
BBX 9 14 1 0
BITMAP
0800
0800
1E00
2900
4800
4800
8800
8800
4800
4800
2980
1E00
0800
0800
ENDCHAR
STARTCHAR 00A3
ENCODING 163
SWIDTH 495 0
DWIDTH 11 0
BBX 9 15 1 0
BITMAP
1E00
2100
2000
4000
2000
2000
2000
FE00
2000
1000
1000
2000
2000
4000
FF80
ENDCHAR
STARTCHAR 00A4
ENCODING 164
SWIDTH 495 0
DWIDTH 11 0
BBX 9 9 1 4
BITMAP
BD80
6300
4100
8100
8100
8100
4100
6300
9C80
ENDCHAR
STARTCHAR 00A5
ENCODING 165
SWIDTH 495 0
DWIDTH 11 0
BBX 9 15 1 0
BITMAP
8080
8100
4100
4200
2200
2400
1400
1800
FF80
0800
FF80
0800
0800
0800
0800
ENDCHAR
STARTCHAR 00A6
ENCODING 166
SWIDTH 225 0
DWIDTH 5 0
BBX 1 22 2 -5
BITMAP
80
80
80
80
80
80
80
80
80
80
00
00
80
80
80
80
80
80
80
80
80
80
ENDCHAR
STARTCHAR 00A7
ENCODING 167
SWIDTH 495 0
DWIDTH 11 0
BBX 9 16 1 -1
BITMAP
3C00
2200
4000
2000
3000
4C00
8300
8100
C080
6100
1900
0600
0200
0200
4200
3C00
ENDCHAR
STARTCHAR 00A8
ENCODING 168
SWIDTH 540 0
DWIDTH 12 0
BBX 6 2 3 13
BITMAP
CC
88
ENDCHAR
STARTCHAR 00A9
ENCODING 169
SWIDTH 720 0
DWIDTH 16 0
BBX 14 15 1 0
BITMAP
0380
1C60
2018
4388
4C44
8804
8804
9004
9004
8804
4C44
4788
2008
1030
0FC0
ENDCHAR
STARTCHAR 00AA
ENCODING 170
SWIDTH 315 0
DWIDTH 7 0
BBX 5 7 1 9
BITMAP
78
08
08
78
88
88
70
ENDCHAR
STARTCHAR 00AB
ENCODING 171
SWIDTH 405 0
DWIDTH 9 0
BBX 7 8 1 2
BITMAP
12
24
48
90
90
48
24
22
ENDCHAR
STARTCHAR 00AC
ENCODING 172
SWIDTH 495 0
DWIDTH 11 0
BBX 9 5 1 3
BITMAP
FF80
0080
0080
0080
0080
ENDCHAR
STARTCHAR 00AD
ENCODING 173
SWIDTH 315 0
DWIDTH 7 0
BBX 5 1 1 5
BITMAP
F8
ENDCHAR
STARTCHAR 00AE
ENCODING 174
SWIDTH 405 0
DWIDTH 9 0
BBX 8 9 0 7
BITMAP
3C
43
9D
95
99
95
41
22
1C
ENDCHAR
STARTCHAR 00AF
ENCODING 175
SWIDTH 540 0
DWIDTH 12 0
BBX 6 1 3 14
BITMAP
FC
ENDCHAR
STARTCHAR 00B0
ENCODING 176
SWIDTH 315 0
DWIDTH 7 0
BBX 5 5 1 10
BITMAP
70
88
88
88
70
ENDCHAR
STARTCHAR 00B1
ENCODING 177
SWIDTH 495 0
DWIDTH 11 0
BBX 9 12 1 0
BITMAP
0800
0800
0800
0800
FF80
0800
0800
0800
0800
0800
0000
FF80
ENDCHAR
STARTCHAR 00B2
ENCODING 178
SWIDTH 360 0
DWIDTH 8 0
BBX 6 9 1 9
BITMAP
70
88
08
08
08
10
20
40
FC
ENDCHAR
STARTCHAR 00B3
ENCODING 179
SWIDTH 360 0
DWIDTH 8 0
BBX 6 9 1 9
BITMAP
78
88
08
08
30
08
04
84
78
ENDCHAR
STARTCHAR 00B4
ENCODING 180
SWIDTH 540 0
DWIDTH 12 0
BBX 3 4 5 13
BITMAP
20
60
40
80
ENDCHAR
STARTCHAR 00B5
ENCODING 181
SWIDTH 540 0
DWIDTH 12 0
BBX 9 15 2 -4
BITMAP
8100
8100
8100
8100
8100
8100
8100
8100
8300
C500
B980
8000
8000
8000
8000
ENDCHAR
STARTCHAR 00B6
ENCODING 182
SWIDTH 495 0
DWIDTH 11 0
BBX 8 16 1 -1
BITMAP
3D
7D
FD
FD
FD
FD
FD
7D
3D
01
01
01
01
01
01
01
ENDCHAR
STARTCHAR 00B7
ENCODING 183
SWIDTH 225 0
DWIDTH 5 0
BBX 1 2 2 6
BITMAP
80
80
ENDCHAR
STARTCHAR 00B8
ENCODING 184
SWIDTH 540 0
DWIDTH 12 0
BBX 4 5 4 -5
BITMAP
20
40
30
10
E0
ENDCHAR
STARTCHAR 00B9
ENCODING 185
SWIDTH 360 0
DWIDTH 8 0
BBX 3 8 2 9
BITMAP
E0
20
20
20
20
20
20
20
ENDCHAR
STARTCHAR 00BA
ENCODING 186
SWIDTH 360 0
DWIDTH 8 0
BBX 6 7 1 9
BITMAP
78
84
84
84
84
84
78
ENDCHAR
STARTCHAR 00BB
ENCODING 187
SWIDTH 405 0
DWIDTH 9 0
BBX 7 8 1 2
BITMAP
90
48
24
12
12
24
48
90
ENDCHAR
STARTCHAR 00BC
ENCODING 188
SWIDTH 765 0
DWIDTH 17 0
BBX 14 15 2 0
BITMAP
4020
C040
4080
4080
4100
4100
4208
4218
4428
0428
0848
0888
10FC
1008
2008
ENDCHAR
STARTCHAR 00BD
ENCODING 189
SWIDTH 765 0
DWIDTH 17 0
BBX 14 15 2 0
BITMAP
4040
C080
4080
4100
4100
4200
4238
4444
4404
0804
0808
1008
1010
2020
207C
ENDCHAR
STARTCHAR 00BE
ENCODING 190
SWIDTH 765 0
DWIDTH 17 0
BBX 15 15 1 0
BITMAP
7808
8810
0810
0820
3820
0440
0484
848C
7914
0114
0224
0224
047E
0404
0804
ENDCHAR
STARTCHAR 00BF
ENCODING 191
SWIDTH 405 0
DWIDTH 9 0
BBX 7 16 1 -5
BITMAP
18
18
00
00
10
10
10
10
20
40
40
80
80
80
46
38
ENDCHAR
STARTCHAR 00C0
ENCODING 192
SWIDTH 540 0
DWIDTH 12 0
BBX 11 19 0 0
BITMAP
1800
0400
0200
0000
0600
0600
0A00
0900
0900
1100
1080
1080
2080
3FC0
2040
4040
4020
4020
8020
ENDCHAR
STARTCHAR 00C1
ENCODING 193
SWIDTH 540 0
DWIDTH 12 0
BBX 11 19 0 0
BITMAP
0100
0200
0400
0000
0600
0600
0A00
0900
0900
1100
1080
1080
2080
3FC0
2040
4040
4020
4020
8020
ENDCHAR
STARTCHAR 00C2
ENCODING 194
SWIDTH 540 0
DWIDTH 12 0
BBX 11 19 0 0
BITMAP
0600
0900
1080
0000
0600
0600
0A00
0900
0900
1100
1080
1080
2080
3FC0
2040
4040
4020
4020
8020
ENDCHAR
STARTCHAR 00C3
ENCODING 195
SWIDTH 540 0
DWIDTH 12 0
BBX 11 19 0 0
BITMAP
1800
2480
2380
0000
0600
0600
0A00
0900
0900
1100
1080
1080
2080
3FC0
2040
4040
4020
4020
8020
ENDCHAR
STARTCHAR 00C4
ENCODING 196
SWIDTH 540 0
DWIDTH 12 0
BBX 11 18 0 0
BITMAP
1180
1000
0000
0600
0600
0A00
0900
0900
1100
1080
1080
2080
3FC0
2040
4040
4020
4020
8020
ENDCHAR
STARTCHAR 00C5
ENCODING 197
SWIDTH 540 0
DWIDTH 12 0
BBX 11 19 0 0
BITMAP
0E00
0900
0900
0600
0600
0600
0A00
0900
0900
1100
1080
1080
2080
3FC0
2040
4040
4020
4020
8020
ENDCHAR
STARTCHAR 00C6
ENCODING 198
SWIDTH 810 0
DWIDTH 18 0
BBX 16 15 1 0
BITMAP
01FF
0180
0280
0280
0480
0480
0880
08FE
1080
3F80
2080
4080
4080
8080
80FF
ENDCHAR
STARTCHAR 00C7
ENCODING 199
SWIDTH 585 0
DWIDTH 13 0
BBX 10 20 1 -5
BITMAP
0F80
3040
2000
4000
4000
8000
8000
8000
8000
8000
4000
4000
2000
3040
0F80
0200
0200
0100
0100
0600
ENDCHAR
STARTCHAR 00C8
ENCODING 200
SWIDTH 495 0
DWIDTH 11 0
BBX 8 19 2 0
BITMAP
20
10
08
00
FF
80
80
80
80
80
80
FE
80
80
80
80
80
80
FF
ENDCHAR
STARTCHAR 00C9
ENCODING 201
SWIDTH 495 0
DWIDTH 11 0
BBX 8 19 2 0
BITMAP
06
0C
10
00
FF
80
80
80
80
80
80
FE
80
80
80
80
80
80
FF
ENDCHAR
STARTCHAR 00CA
ENCODING 202
SWIDTH 495 0
DWIDTH 11 0
BBX 8 19 2 0
BITMAP
18
24
42
00
FF
80
80
80
80
80
80
FE
80
80
80
80
80
80
FF
ENDCHAR
STARTCHAR 00CB
ENCODING 203
SWIDTH 495 0
DWIDTH 11 0
BBX 8 18 2 0
BITMAP
62
22
00
FF
80
80
80
80
80
80
FE
80
80
80
80
80
80
FF
ENDCHAR
STARTCHAR 00CC
ENCODING 204
SWIDTH 225 0
DWIDTH 5 0
BBX 4 19 0 0
BITMAP
C0
60
10
00
20
20
20
20
20
20
20
20
20
20
20
20
20
20
20
ENDCHAR
STARTCHAR 00CD
ENCODING 205
SWIDTH 225 0
DWIDTH 5 0
BBX 3 19 2 0
BITMAP
20
40
80
00
80
80
80
80
80
80
80
80
80
80
80
80
80
80
80
ENDCHAR
STARTCHAR 00CE
ENCODING 206
SWIDTH 225 0
DWIDTH 5 0
BBX 6 19 0 0
BITMAP
30
48
84
00
20
20
20
20
20
20
20
20
20
20
20
20
20
20
20
ENDCHAR
STARTCHAR 00CF
ENCODING 207
SWIDTH 225 0
DWIDTH 5 0
BBX 6 18 0 0
BITMAP
8C
88
00
20
20
20
20
20
20
20
20
20
20
20
20
20
20
20
ENDCHAR
STARTCHAR 00D0
ENCODING 208
SWIDTH 630 0
DWIDTH 14 0
BBX 12 15 1 0
BITMAP
3F00
2080
2040
2020
2020
2020
2010
FC10
2010
2030
2020
2020
2040
20C0
3F00
ENDCHAR
STARTCHAR 00D1
ENCODING 209
SWIDTH 630 0
DWIDTH 14 0
BBX 10 19 2 0
BITMAP
3880
2480
0300
0000
C040
C040
A040
A040
9040
9040
8840
8440
8440
8240
8240
8140
8140
80C0
8040
ENDCHAR
STARTCHAR 00D2
ENCODING 210
SWIDTH 630 0
DWIDTH 14 0
BBX 12 19 1 0
BITMAP
0800
0400
0200
0000
0F80
30C0
2020
4030
4010
8010
8010
8010
8010
8010
4010
4020
2020
30C0
0F80
ENDCHAR
STARTCHAR 00D3
ENCODING 211
SWIDTH 630 0
DWIDTH 14 0
BBX 12 19 1 0
BITMAP
0080
0100
0200
0000
0F80
30C0
2020
4030
4010
8010
8010
8010
8010
8010
4010
4020
2020
30C0
0F80
ENDCHAR
STARTCHAR 00D4
ENCODING 212
SWIDTH 630 0
DWIDTH 14 0
BBX 12 19 1 0
BITMAP
0200
0500
1880
0000
0F80
30C0
2020
4030
4010
8010
8010
8010
8010
8010
4010
4020
2020
30C0
0F80
ENDCHAR
STARTCHAR 00D5
ENCODING 213
SWIDTH 630 0
DWIDTH 14 0
BBX 12 19 1 0
BITMAP
0C40
1240
0180
0000
0F80
30C0
2020
4030
4010
8010
8010
8010
8010
8010
4010
4020
2020
30C0
0F80
ENDCHAR
STARTCHAR 00D6
ENCODING 214
SWIDTH 630 0
DWIDTH 14 0
BBX 12 18 1 0
BITMAP
1880
0880
0000
0F80
30C0
2020
4030
4010
8010
8010
8010
8010
8010
4010
4020
2020
30C0
0F80
ENDCHAR
STARTCHAR 00D7
ENCODING 215
SWIDTH 495 0
DWIDTH 11 0
BBX 8 8 1 4
BITMAP
41
22
14
08
14
26
43
81
ENDCHAR
STARTCHAR 00D8
ENCODING 216
SWIDTH 630 0
DWIDTH 14 0
BBX 12 15 1 0
BITMAP
0F90
1060
2060
4070
4090
C110
8210
8210
8410
C810
5010
5030
2020
5040
8F80
ENDCHAR
STARTCHAR 00D9
ENCODING 217
SWIDTH 630 0
DWIDTH 14 0
BBX 10 19 2 0
BITMAP
1000
0800
0400
0000
8040
8040
8040
8040
8040
8040
8040
8040
8040
8040
8040
8040
4080
6180
1E00
ENDCHAR
STARTCHAR 00DA
ENCODING 218
SWIDTH 630 0
DWIDTH 14 0
BBX 10 19 2 0
BITMAP
0200
0400
0800
0000
8040
8040
8040
8040
8040
8040
8040
8040
8040
8040
8040
8040
4080
6180
1E00
ENDCHAR
STARTCHAR 00DB
ENCODING 219
SWIDTH 630 0
DWIDTH 14 0
BBX 10 19 2 0
BITMAP
0C00
1200
2100
0000
8040
8040
8040
8040
8040
8040
8040
8040
8040
8040
8040
8040
4080
6180
1E00
ENDCHAR
STARTCHAR 00DC
ENCODING 220
SWIDTH 630 0
DWIDTH 14 0
BBX 10 18 2 0
BITMAP
3300
2100
0000
8040
8040
8040
8040
8040
8040
8040
8040
8040
8040
8040
8040
4080
6180
1E00
ENDCHAR
STARTCHAR 00DD
ENCODING 221
SWIDTH 450 0
DWIDTH 10 0
BBX 10 19 0 0
BITMAP
0200
0400
0800
0000
8040
4080
4080
2100
2100
1200
1200
0C00
0C00
0800
0800
0800
0800
0800
0800
ENDCHAR
STARTCHAR 00DE
ENCODING 222
SWIDTH 585 0
DWIDTH 13 0
BBX 9 15 2 0
BITMAP
8000
8000
8000
FE00
8180
8080
8080
8080
8080
8180
FE00
8000
8000
8000
8000
ENDCHAR
STARTCHAR 00DF
ENCODING 223
SWIDTH 540 0
DWIDTH 12 0
BBX 9 16 2 0
BITMAP
3C00
4600
8200
8200
8400
8400
8800
8800
8800
8400
8300
8080
8080
8080
9080
8F00
ENDCHAR
STARTCHAR 00E0
ENCODING 224
SWIDTH 495 0
DWIDTH 11 0
BBX 8 16 1 1
BITMAP
10
08
04
00
00
3E
43
01
01
03
3D
41
81
81
43
7D
ENDCHAR
STARTCHAR 00E1
ENCODING 225
SWIDTH 495 0
DWIDTH 11 0
BBX 8 17 1 0
BITMAP
02
06
04
08
00
00
3E
43
01
01
03
3D
41
81
81
43
7D
ENDCHAR
STARTCHAR 00E2
ENCODING 226
SWIDTH 495 0
DWIDTH 11 0
BBX 8 17 1 0
BITMAP
08
14
22
21
00
00
3E
43
01
01
03
3D
41
81
81
43
7D
ENDCHAR
STARTCHAR 00E3
ENCODING 227
SWIDTH 495 0
DWIDTH 11 0
BBX 8 16 1 0
BITMAP
30
49
47
00
00
3E
43
01
01
03
3D
41
81
81
43
7D
ENDCHAR
STARTCHAR 00E4
ENCODING 228
SWIDTH 495 0
DWIDTH 11 0
BBX 8 15 1 0
BITMAP
22
22
00
00
3E
43
01
01
03
3D
41
81
81
43
7D
ENDCHAR
STARTCHAR 00E5
ENCODING 229
SWIDTH 495 0
DWIDTH 11 0
BBX 8 17 1 0
BITMAP
08
16
22
12
0C
00
3E
43
01
01
03
3D
41
81
81
43
7D
ENDCHAR
STARTCHAR 00E6
ENCODING 230
SWIDTH 765 0
DWIDTH 17 0
BBX 16 11 1 0
BITMAP
1E3C
6246
0182
0102
0301
3DFF
4100
4100
8180
4242
3C3C
ENDCHAR
STARTCHAR 00E7
ENCODING 231
SWIDTH 450 0
DWIDTH 10 0
BBX 8 16 1 -5
BITMAP
1E
21
40
C0
80
80
80
80
40
61
1E
08
08
04
04
18
ENDCHAR
STARTCHAR 00E8
ENCODING 232
SWIDTH 495 0
DWIDTH 11 0
BBX 9 16 1 1
BITMAP
1000
0800
0400
0000
0000
1E00
2100
4100
8080
8080
FF80
8000
8000
4000
2000
1F00
ENDCHAR
STARTCHAR 00E9
ENCODING 233
SWIDTH 495 0
DWIDTH 11 0
BBX 9 17 1 0
BITMAP
0200
0200
0400
0800
0000
0000
1E00
2100
4100
8080
8080
FF80
8000
8000
4000
2000
1F00
ENDCHAR
STARTCHAR 00EA
ENCODING 234
SWIDTH 495 0
DWIDTH 11 0
BBX 9 17 1 0
BITMAP
0C00
1400
1200
2100
0000
0000
1E00
2100
4100
8080
8080
FF80
8000
8000
4000
2000
1F00
ENDCHAR
STARTCHAR 00EB
ENCODING 235
SWIDTH 495 0
DWIDTH 11 0
BBX 9 15 1 0
BITMAP
3300
2200
0000
0000
1E00
2100
4100
8080
8080
FF80
8000
8000
4000
2000
1F00
ENDCHAR
STARTCHAR 00EC
ENCODING 236
SWIDTH 225 0
DWIDTH 5 0
BBX 4 16 0 1
BITMAP
C0
20
10
00
00
20
20
20
20
20
20
20
20
20
20
20
ENDCHAR
STARTCHAR 00ED
ENCODING 237
SWIDTH 225 0
DWIDTH 5 0
BBX 4 16 1 1
BITMAP
30
60
80
00
00
40
40
40
40
40
40
40
40
40
40
40
ENDCHAR
STARTCHAR 00EE
ENCODING 238
SWIDTH 225 0
DWIDTH 5 0
BBX 6 17 0 0
BITMAP
20
50
88
04
00
00
20
20
20
20
20
20
20
20
20
20
20
ENDCHAR
STARTCHAR 00EF
ENCODING 239
SWIDTH 225 0
DWIDTH 5 0
BBX 5 15 0 0
BITMAP
88
88
00
00
20
20
20
20
20
20
20
20
20
20
20
ENDCHAR
STARTCHAR 00F0
ENCODING 240
SWIDTH 540 0
DWIDTH 12 0
BBX 9 16 1 0
BITMAP
3000
0980
0600
1A00
2100
0100
1E80
2180
4080
4080
8080
8080
4080
4080
2100
1E00
ENDCHAR
STARTCHAR 00F1
ENCODING 241
SWIDTH 540 0
DWIDTH 12 0
BBX 8 16 2 0
BITMAP
31
49
06
00
00
9E
E2
81
81
81
81
81
81
81
81
81
ENDCHAR
STARTCHAR 00F2
ENCODING 242
SWIDTH 540 0
DWIDTH 12 0
BBX 10 16 1 1
BITMAP
1000
0800
0400
0000
0000
1E00
2100
4080
C080
8040
8040
8040
8080
4080
2100
1E00
ENDCHAR
STARTCHAR 00F3
ENCODING 243
SWIDTH 540 0
DWIDTH 12 0
BBX 10 16 1 1
BITMAP
0200
0400
0800
0000
0000
1E00
2100
4080
C080
8040
8040
8040
8080
4080
2100
1E00
ENDCHAR
STARTCHAR 00F4
ENCODING 244
SWIDTH 540 0
DWIDTH 12 0
BBX 10 17 1 0
BITMAP
0C00
1400
1200
2100
0000
0000
1E00
2100
4080
C080
8040
8040
8040
8080
4080
2100
1E00
ENDCHAR
STARTCHAR 00F5
ENCODING 245
SWIDTH 540 0
DWIDTH 12 0
BBX 10 16 1 0
BITMAP
3080
4900
4700
0000
0000
1E00
2100
4080
C080
8040
8040
8040
8080
4080
2100
1E00
ENDCHAR
STARTCHAR 00F6
ENCODING 246
SWIDTH 540 0
DWIDTH 12 0
BBX 10 15 1 0
BITMAP
3300
2200
0000
0000
1E00
2100
4080
C080
8040
8040
8040
8080
4080
2100
1E00
ENDCHAR
STARTCHAR 00F7
ENCODING 247
SWIDTH 495 0
DWIDTH 11 0
BBX 9 10 1 2
BITMAP
0800
0800
0000
0000
FF80
0000
0000
0000
0800
0800
ENDCHAR
STARTCHAR 00F8
ENCODING 248
SWIDTH 540 0
DWIDTH 12 0
BBX 10 11 1 0
BITMAP
1E80
2180
4180
8280
8440
8840
8840
9080
6080
6100
9E00
ENDCHAR
STARTCHAR 00F9
ENCODING 249
SWIDTH 540 0
DWIDTH 12 0
BBX 8 16 2 1
BITMAP
20
10
08
00
00
81
81
81
81
81
81
81
81
83
C5
79
ENDCHAR
STARTCHAR 00FA
ENCODING 250
SWIDTH 540 0
DWIDTH 12 0
BBX 8 16 2 1
BITMAP
04
08
10
00
00
81
81
81
81
81
81
81
81
83
C5
79
ENDCHAR
STARTCHAR 00FB
ENCODING 251
SWIDTH 540 0
DWIDTH 12 0
BBX 8 17 2 0
BITMAP
18
28
24
42
00
00
81
81
81
81
81
81
81
81
83
C5
79
ENDCHAR
STARTCHAR 00FC
ENCODING 252
SWIDTH 540 0
DWIDTH 12 0
BBX 8 15 2 0
BITMAP
66
44
00
00
81
81
81
81
81
81
81
81
83
C5
79
ENDCHAR
STARTCHAR 00FD
ENCODING 253
SWIDTH 450 0
DWIDTH 10 0
BBX 9 21 0 -4
BITMAP
0200
0400
0800
0000
0000
C080
4080
4080
2100
2100
2100
1200
1200
1200
0C00
0C00
0800
0800
0800
1000
6000
ENDCHAR
STARTCHAR 00FE
ENCODING 254
SWIDTH 540 0
DWIDTH 12 0
BBX 9 21 2 -5
BITMAP
8000
8000
8000
8000
8000
9E00
E100
8100
8080
8080
8080
8080
8080
8100
C300
BC00
8000
8000
8000
8000
8000
ENDCHAR
STARTCHAR 00FF
ENCODING 255
SWIDTH 450 0
DWIDTH 10 0
BBX 9 20 0 -5
BITMAP
3300
1100
0000
0000
C080
4080
4080
2100
2100
2100
1200
1200
1200
0C00
0C00
0800
0800
0800
1000
6000
ENDCHAR
STARTCHAR 0100
ENCODING 256
SWIDTH 540 0
DWIDTH 12 0
BBX 11 18 0 0
BITMAP
1F80
0000
0000
0600
0600
0A00
0900
0900
1100
1080
1080
2080
3FC0
2040
4040
4020
4020
8020
ENDCHAR
STARTCHAR 0101
ENCODING 257
SWIDTH 495 0
DWIDTH 11 0
BBX 8 15 1 0
BITMAP
3E
00
00
00
3E
43
01
01
03
3D
41
81
81
43
7D
ENDCHAR
STARTCHAR 0102
ENCODING 258
SWIDTH 540 0
DWIDTH 12 0
BBX 11 19 0 0
BITMAP
1080
1100
0F00
0000
0600
0600
0A00
0900
0900
1100
1080
1080
2080
3FC0
2040
4040
4020
4020
8020
ENDCHAR
STARTCHAR 0103
ENCODING 259
SWIDTH 495 0
DWIDTH 11 0
BBX 8 16 1 0
BITMAP
41
22
1E
00
00
3E
43
01
01
03
3D
41
81
81
43
7D
ENDCHAR
STARTCHAR 0104
ENCODING 260
SWIDTH 540 0
DWIDTH 12 0
BBX 12 20 0 -5
BITMAP
0600
0600
0A00
0900
0900
1100
1080
1080
2080
3FC0
2040
4040
4020
4020
8020
0020
0040
0040
0040
0030
ENDCHAR
STARTCHAR 0105
ENCODING 261
SWIDTH 495 0
DWIDTH 11 0
BBX 9 15 1 -4
BITMAP
3E00
4300
0100
0100
0300
3D00
4100
8100
8100
4300
7D00
0200
0400
0400
0380
ENDCHAR
STARTCHAR 0106
ENCODING 262
SWIDTH 585 0
DWIDTH 13 0
BBX 10 19 1 0
BITMAP
0100
0300
0600
0000
0F80
3040
2000
4000
4000
8000
8000
8000
8000
8000
4000
4000
2000
3040
0F80
ENDCHAR
STARTCHAR 0107
ENCODING 263
SWIDTH 450 0
DWIDTH 10 0
BBX 8 16 1 1
BITMAP
02
04
08
00
00
1E
21
40
C0
80
80
80
80
40
61
1E
ENDCHAR
STARTCHAR 0108
ENCODING 264
SWIDTH 585 0
DWIDTH 13 0
BBX 10 19 1 0
BITMAP
0600
0D00
1080
0000
0F80
3040
2000
4000
4000
8000
8000
8000
8000
8000
4000
4000
2000
3040
0F80
ENDCHAR
STARTCHAR 0109
ENCODING 265
SWIDTH 450 0
DWIDTH 10 0
BBX 8 17 1 0
BITMAP
0C
0E
12
21
00
00
1E
21
40
C0
80
80
80
80
40
61
1E
ENDCHAR
STARTCHAR 010A
ENCODING 266
SWIDTH 585 0
DWIDTH 13 0
BBX 10 18 1 0
BITMAP
0200
0600
0000
0F80
3040
2000
4000
4000
8000
8000
8000
8000
8000
4000
4000
2000
3040
0F80
ENDCHAR
STARTCHAR 010B
ENCODING 267
SWIDTH 450 0
DWIDTH 10 0
BBX 8 15 1 0
BITMAP
0C
0C
00
00
1E
21
40
C0
80
80
80
80
40
61
1E
ENDCHAR
STARTCHAR 010C
ENCODING 268
SWIDTH 585 0
DWIDTH 13 0
BBX 10 19 1 0
BITMAP
1080
0900
0600
0000
0F80
3040
2000
4000
4000
8000
8000
8000
8000
8000
4000
4000
2000
3040
0F80
ENDCHAR
STARTCHAR 010D
ENCODING 269
SWIDTH 450 0
DWIDTH 10 0
BBX 8 17 1 0
BITMAP
21
21
12
0C
00
00
1E
21
40
C0
80
80
80
80
40
61
1E
ENDCHAR
STARTCHAR 010E
ENCODING 270
SWIDTH 585 0
DWIDTH 13 0
BBX 10 19 2 0
BITMAP
2100
1200
0C00
0000
FC00
8300
8080
8080
8040
8040
8040
8040
8040
8040
8040
8080
8080
8300
FC00
ENDCHAR
STARTCHAR 010F
ENCODING 271
SWIDTH 540 0
DWIDTH 12 0
BBX 11 17 1 0
BITMAP
0020
00A0
00A0
00A0
00A0
0080
1E80
2180
4080
C080
8080
8080
8080
8080
4080
6180
3E80
ENDCHAR
STARTCHAR 0110
ENCODING 272
SWIDTH 630 0
DWIDTH 14 0
BBX 12 15 1 0
BITMAP
3F00
2080
2040
2020
2020
2020
2010
FC10
2010
2030
2020
2020
2040
20C0
3F00
ENDCHAR
STARTCHAR 0111
ENCODING 273
SWIDTH 540 0
DWIDTH 12 0
BBX 11 16 1 0
BITMAP
0080
0080
0FE0
0080
0080
0080
1E80
6180
4080
8080
8080
8080
8080
4080
6180
3E80
ENDCHAR
STARTCHAR 0112
ENCODING 274
SWIDTH 495 0
DWIDTH 11 0
BBX 8 18 2 0
BITMAP
7E
00
00
FF
80
80
80
80
80
80
FE
80
80
80
80
80
80
FF
ENDCHAR
STARTCHAR 0113
ENCODING 275
SWIDTH 495 0
DWIDTH 11 0
BBX 9 15 1 0
BITMAP
3F00
0000
0000
0000
1E00
2100
4100
8080
8080
FF80
8000
8000
4000
2000
1F00
ENDCHAR
STARTCHAR 0114
ENCODING 276
SWIDTH 495 0
DWIDTH 11 0
BBX 8 19 2 0
BITMAP
42
22
1C
00
FF
80
80
80
80
80
80
FE
80
80
80
80
80
80
FF
ENDCHAR
STARTCHAR 0115
ENCODING 277
SWIDTH 495 0
DWIDTH 11 0
BBX 9 16 1 0
BITMAP
4100
2100
1E00
0000
0000
1E00
2100
4100
8080
8080
FF80
8000
8000
4000
2000
1F00
ENDCHAR
STARTCHAR 0116
ENCODING 278
SWIDTH 495 0
DWIDTH 11 0
BBX 8 18 2 0
BITMAP
18
08
00
FF
80
80
80
80
80
80
FE
80
80
80
80
80
80
FF
ENDCHAR
STARTCHAR 0117
ENCODING 279
SWIDTH 495 0
DWIDTH 11 0
BBX 9 15 1 0
BITMAP
0C00
0800
0000
0000
1E00
2100
4100
8080
8080
FF80
8000
8000
4000
2000
1F00
ENDCHAR
STARTCHAR 0118
ENCODING 280
SWIDTH 495 0
DWIDTH 11 0
BBX 8 20 2 -5
BITMAP
FF
80
80
80
80
80
80
FE
80
80
80
80
80
80
FF
02
02
04
04
03
ENDCHAR
STARTCHAR 0119
ENCODING 281
SWIDTH 495 0
DWIDTH 11 0
BBX 9 15 1 -4
BITMAP
1E00
2100
4100
8080
8080
FF80
8000
8000
4000
2000
1F00
0200
0400
0400
0300
ENDCHAR
STARTCHAR 011A
ENCODING 282
SWIDTH 495 0
DWIDTH 11 0
BBX 8 19 2 0
BITMAP
42
24
18
00
FF
80
80
80
80
80
80
FE
80
80
80
80
80
80
FF
ENDCHAR
STARTCHAR 011B
ENCODING 283
SWIDTH 495 0
DWIDTH 11 0
BBX 9 17 1 0
BITMAP
0100
2200
1400
0C00
0000
0000
1E00
2100
4100
8080
8080
FF80
8000
8000
4000
2000
1F00
ENDCHAR
STARTCHAR 011C
ENCODING 284
SWIDTH 585 0
DWIDTH 13 0
BBX 11 19 1 0
BITMAP
0200
0500
0880
0000
0F80
1040
2000
4000
4000
C000
8000
8000
83E0
8020
4020
4020
2020
3060
0F80
ENDCHAR
STARTCHAR 011D
ENCODING 285
SWIDTH 495 0
DWIDTH 11 0
BBX 10 22 1 -5
BITMAP
0C00
1400
2200
2100
0000
0000
3F80
4200
4100
4100
4100
4100
2200
5C00
4000
4000
3F00
4080
8040
8080
4180
3E00
ENDCHAR
STARTCHAR 011E
ENCODING 286
SWIDTH 585 0
DWIDTH 13 0
BBX 11 19 1 0
BITMAP
0040
0880
0700
0000
0F80
1040
2000
4000
4000
C000
8000
8000
83E0
8020
4020
4020
2020
3060
0F80
ENDCHAR
STARTCHAR 011F
ENCODING 287
SWIDTH 495 0
DWIDTH 11 0
BBX 10 21 1 -5
BITMAP
4100
2100
1E00
0000
0000
3F80
4200
4100
4100
4100
4100
2200
5C00
4000
4000
3F00
4080
8040
8080
4180
3E00
ENDCHAR
STARTCHAR 0120
ENCODING 288
SWIDTH 585 0
DWIDTH 13 0
BBX 11 18 1 0
BITMAP
0200
0200
0000
0F80
1040
2000
4000
4000
C000
8000
8000
83E0
8020
4020
4020
2020
3060
0F80
ENDCHAR
STARTCHAR 0121
ENCODING 289
SWIDTH 495 0
DWIDTH 11 0
BBX 10 20 1 -5
BITMAP
0C00
0800
0000
0000
3F80
4200
4100
4100
4100
4100
2200
5C00
4000
4000
3F00
4080
8040
8080
4180
3E00
ENDCHAR
STARTCHAR 0122
ENCODING 290
SWIDTH 585 0
DWIDTH 13 0
BBX 11 20 1 -5
BITMAP
0F80
1040
2000
4000
4000
C000
8000
8000
83E0
8020
4020
4020
2020
3060
0F80
0000
0200
0100
0100
0600
ENDCHAR
STARTCHAR 0123
ENCODING 291
SWIDTH 495 0
DWIDTH 11 0
BBX 10 22 1 -5
BITMAP
0600
1800
1000
0C00
0000
0000
3F80
4200
4100
4100
4100
4100
2200
5C00
4000
4000
3F00
4080
8040
8080
4180
3E00
ENDCHAR
STARTCHAR 0124
ENCODING 292
SWIDTH 630 0
DWIDTH 14 0
BBX 10 19 2 0
BITMAP
0C00
1200
2100
0000
8040
8040
8040
8040
8040
8040
8040
FFC0
8040
8040
8040
8040
8040
8040
8040
ENDCHAR
STARTCHAR 0125
ENCODING 293
SWIDTH 540 0
DWIDTH 12 0
BBX 10 20 0 0
BITMAP
2000
5000
8800
0000
2000
2000
2000
2000
2000
2780
3880
2040
2040
2040
2040
2040
2040
2040
2040
2040
ENDCHAR
STARTCHAR 0126
ENCODING 294
SWIDTH 675 0
DWIDTH 15 0
BBX 13 15 1 0
BITMAP
2020
2020
2020
FFF8
2020
2020
3FE0
2020
2020
2020
2020
2020
2020
2020
2020
ENDCHAR
STARTCHAR 0127
ENCODING 295
SWIDTH 540 0
DWIDTH 12 0
BBX 10 16 0 0
BITMAP
2000
2000
FE00
2000
2000
2000
2780
3880
2040
2040
2040
2040
2040
2040
2040
2040
ENDCHAR
STARTCHAR 0128
ENCODING 296
SWIDTH 225 0
DWIDTH 5 0
BBX 7 19 -1 0
BITMAP
60
92
8C
00
10
10
10
10
10
10
10
10
10
10
10
10
10
10
10
ENDCHAR
STARTCHAR 0129
ENCODING 297
SWIDTH 225 0
DWIDTH 5 0
BBX 7 16 -1 0
BITMAP
62
92
8C
00
00
10
10
10
10
10
10
10
10
10
10
10
ENDCHAR
STARTCHAR 012A
ENCODING 298
SWIDTH 225 0
DWIDTH 5 0
BBX 5 18 0 0
BITMAP
F8
00
00
20
20
20
20
20
20
20
20
20
20
20
20
20
20
20
ENDCHAR
STARTCHAR 012B
ENCODING 299
SWIDTH 225 0
DWIDTH 5 0
BBX 5 15 0 0
BITMAP
F8
00
00
00
20
20
20
20
20
20
20
20
20
20
20
ENDCHAR
STARTCHAR 012C
ENCODING 300
SWIDTH 225 0
DWIDTH 5 0
BBX 6 19 0 0
BITMAP
04
88
70
00
20
20
20
20
20
20
20
20
20
20
20
20
20
20
20
ENDCHAR
STARTCHAR 012D
ENCODING 301
SWIDTH 225 0
DWIDTH 5 0
BBX 7 16 -1 0
BITMAP
82
44
38
00
00
10
10
10
10
10
10
10
10
10
10
10
ENDCHAR
STARTCHAR 012E
ENCODING 302
SWIDTH 225 0
DWIDTH 5 0
BBX 3 20 1 -5
BITMAP
40
40
40
40
40
40
40
40
40
40
40
40
40
40
40
40
80
80
80
60
ENDCHAR
STARTCHAR 012F
ENCODING 303
SWIDTH 225 0
DWIDTH 5 0
BBX 3 20 1 -5
BITMAP
40
40
00
00
40
40
40
40
40
40
40
40
40
40
40
40
80
80
80
60
ENDCHAR
STARTCHAR 0130
ENCODING 304
SWIDTH 225 0
DWIDTH 5 0
BBX 1 18 2 0
BITMAP
80
80
00
80
80
80
80
80
80
80
80
80
80
80
80
80
80
80
ENDCHAR
STARTCHAR 0131
ENCODING 305
SWIDTH 225 0
DWIDTH 5 0
BBX 1 11 2 0
BITMAP
80
80
80
80
80
80
80
80
80
80
80
ENDCHAR
STARTCHAR 0132
ENCODING 306
SWIDTH 495 0
DWIDTH 11 0
BBX 7 18 2 -3
BITMAP
86
86
86
86
86
86
86
86
86
86
86
86
86
86
86
06
04
1C
ENDCHAR
STARTCHAR 0133
ENCODING 307
SWIDTH 450 0
DWIDTH 10 0
BBX 6 20 2 -5
BITMAP
84
84
00
00
84
84
84
84
84
84
84
84
84
84
84
04
04
04
04
38
ENDCHAR
STARTCHAR 0134
ENCODING 308
SWIDTH 450 0
DWIDTH 10 0
BBX 10 19 1 0
BITMAP
0300
0580
0840
0000
0200
0200
0200
0200
0200
0200
0200
0200
0200
0200
0200
0200
8200
C400
7C00
ENDCHAR
STARTCHAR 0135
ENCODING 309
SWIDTH 225 0
DWIDTH 5 0
BBX 7 22 -1 -5
BITMAP
10
28
44
02
00
00
10
10
10
10
10
10
10
10
10
10
10
10
10
10
10
E0
ENDCHAR
STARTCHAR 0136
ENCODING 310
SWIDTH 540 0
DWIDTH 12 0
BBX 10 20 2 -5
BITMAP
8080
8100
8200
8600
8C00
8800
9800
A400
C600
8200
8300
8100
8080
8080
8040
0000
0800
0600
0200
1C00
ENDCHAR
STARTCHAR 0137
ENCODING 311
SWIDTH 450 0
DWIDTH 10 0
BBX 8 21 2 -5
BITMAP
80
80
80
80
80
82
84
88
88
90
A8
C8
84
86
82
81
00
00
18
08
30
ENDCHAR
STARTCHAR 0138
ENCODING 312
SWIDTH 450 0
DWIDTH 10 0
BBX 8 11 2 0
BITMAP
82
84
88
88
90
A8
C8
84
86
82
81
ENDCHAR
STARTCHAR 0139
ENCODING 313
SWIDTH 450 0
DWIDTH 10 0
BBX 8 19 2 0
BITMAP
20
40
80
00
80
80
80
80
80
80
80
80
80
80
80
80
80
80
FF
ENDCHAR
STARTCHAR 013A
ENCODING 314
SWIDTH 225 0
DWIDTH 5 0
BBX 3 20 2 0
BITMAP
20
40
80
00
80
80
80
80
80
80
80
80
80
80
80
80
80
80
80
C0
ENDCHAR
STARTCHAR 013B
ENCODING 315
SWIDTH 450 0
DWIDTH 10 0
BBX 8 20 2 -5
BITMAP
80
80
80
80
80
80
80
80
80
80
80
80
80
80
FF
00
00
0C
04
18
ENDCHAR
STARTCHAR 013C
ENCODING 316
SWIDTH 225 0
DWIDTH 5 0
BBX 4 21 1 -5
BITMAP
40
40
40
40
40
40
40
40
40
40
40
40
40
40
40
60
00
60
10
10
E0
ENDCHAR
STARTCHAR 013D
ENCODING 317
SWIDTH 450 0
DWIDTH 10 0
BBX 8 16 2 0
BITMAP
04
84
84
84
80
80
80
80
80
80
80
80
80
80
80
FF
ENDCHAR
STARTCHAR 013E
ENCODING 318
SWIDTH 225 0
DWIDTH 5 0
BBX 3 17 2 0
BITMAP
20
A0
A0
A0
A0
80
80
80
80
80
80
80
80
80
80
80
C0
ENDCHAR
STARTCHAR 013F
ENCODING 319
SWIDTH 450 0
DWIDTH 10 0
BBX 8 15 2 0
BITMAP
80
80
80
80
80
80
80
86
86
80
80
80
80
80
FF
ENDCHAR
STARTCHAR 0140
ENCODING 320
SWIDTH 315 0
DWIDTH 7 0
BBX 5 16 2 0
BITMAP
80
80
80
80
80
80
80
80
98
98
80
80
80
80
80
C0
ENDCHAR
STARTCHAR 0141
ENCODING 321
SWIDTH 450 0
DWIDTH 10 0
BBX 10 15 0 0
BITMAP
2000
2000
2000
2000
2000
2000
2200
2C00
3000
E000
2000
2000
2000
2000
3FC0
ENDCHAR
STARTCHAR 0142
ENCODING 322
SWIDTH 225 0
DWIDTH 5 0
BBX 4 16 0 0
BITMAP
20
20
20
20
20
20
30
60
A0
20
20
20
20
20
20
30
ENDCHAR
STARTCHAR 0143
ENCODING 323
SWIDTH 630 0
DWIDTH 14 0
BBX 10 19 2 0
BITMAP
0300
0400
0800
0000
C040
C040
A040
A040
9040
9040
8840
8440
8440
8240
8240
8140
8140
80C0
8040
ENDCHAR
STARTCHAR 0144
ENCODING 324
SWIDTH 540 0
DWIDTH 12 0
BBX 8 16 2 1
BITMAP
04
08
10
00
00
9E
E2
81
81
81
81
81
81
81
81
81
ENDCHAR
STARTCHAR 0145
ENCODING 325
SWIDTH 630 0
DWIDTH 14 0
BBX 10 20 2 -5
BITMAP
C040
C040
A040
A040
9040
9040
8840
8440
8440
8240
8240
8140
8140
80C0
8040
0000
0800
0400
0200
1C00
ENDCHAR
STARTCHAR 0146
ENCODING 326
SWIDTH 540 0
DWIDTH 12 0
BBX 8 16 2 -5
BITMAP
9E
E2
81
81
81
81
81
81
81
81
81
00
10
08
08
38
ENDCHAR
STARTCHAR 0147
ENCODING 327
SWIDTH 630 0
DWIDTH 14 0
BBX 10 19 2 0
BITMAP
2100
1200
0C00
0000
C040
C040
A040
A040
9040
9040
8840
8440
8440
8240
8240
8140
8140
80C0
8040
ENDCHAR
STARTCHAR 0148
ENCODING 328
SWIDTH 540 0
DWIDTH 12 0
BBX 8 16 2 1
BITMAP
22
14
18
00
00
9E
E2
81
81
81
81
81
81
81
81
81
ENDCHAR
STARTCHAR 0149
ENCODING 329
SWIDTH 720 0
DWIDTH 16 0
BBX 13 16 1 0
BITMAP
4000
6000
2000
4000
8000
04F0
0518
0608
0408
0408
0408
0408
0408
0408
0408
0408
ENDCHAR
STARTCHAR 014A
ENCODING 330
SWIDTH 630 0
DWIDTH 14 0
BBX 10 15 2 0
BITMAP
9F00
A180
C0C0
8040
8040
8040
8040
8040
8040
8040
8040
8040
8040
8080
8700
ENDCHAR
STARTCHAR 014B
ENCODING 331
SWIDTH 540 0
DWIDTH 12 0
BBX 8 15 2 -4
BITMAP
9E
E2
81
81
81
81
81
81
81
81
81
01
01
01
0E
ENDCHAR
STARTCHAR 014C
ENCODING 332
SWIDTH 630 0
DWIDTH 14 0
BBX 12 17 1 0
BITMAP
1F80
0000
0F80
30C0
2020
4030
4010
8010
8010
8010
8010
8010
4010
4020
2020
30C0
0F80
ENDCHAR
STARTCHAR 014D
ENCODING 333
SWIDTH 540 0
DWIDTH 12 0
BBX 10 15 1 0
BITMAP
3F00
0000
0000
0000
1E00
2100
4080
C080
8040
8040
8040
8080
4080
2100
1E00
ENDCHAR
STARTCHAR 014E
ENCODING 334
SWIDTH 630 0
DWIDTH 14 0
BBX 12 19 1 0
BITMAP
1080
0880
0F00
0000
0F80
30C0
2020
4030
4010
8010
8010
8010
8010
8010
4010
4020
2020
30C0
0F80
ENDCHAR
STARTCHAR 014F
ENCODING 335
SWIDTH 540 0
DWIDTH 12 0
BBX 10 16 1 0
BITMAP
4100
2100
1E00
0000
0000
1E00
2100
4080
C080
8040
8040
8040
8080
4080
2100
1E00
ENDCHAR
STARTCHAR 0150
ENCODING 336
SWIDTH 630 0
DWIDTH 14 0
BBX 12 19 1 0
BITMAP
0240
0480
0880
0000
0F80
30C0
2020
4030
4010
8010
8010
8010
8010
8010
4010
4020
2020
30C0
0F80
ENDCHAR
STARTCHAR 0151
ENCODING 337
SWIDTH 540 0
DWIDTH 12 0
BBX 10 16 1 0
BITMAP
0480
0900
1200
0000
0000
1E00
2100
4080
C080
8040
8040
8040
8080
4080
2100
1E00
ENDCHAR
STARTCHAR 0152
ENCODING 338
SWIDTH 855 0
DWIDTH 19 0
BBX 16 15 1 0
BITMAP
0FFF
1040
2040
4040
4040
C040
8040
807E
8040
8040
4040
4040
2040
3040
0FFF
ENDCHAR
STARTCHAR 0153
ENCODING 339
SWIDTH 855 0
DWIDTH 19 0
BBX 17 11 1 0
BITMAP
1E1E00
212100
40C080
C0C080
80C080
80FF80
80C000
80C000
40C000
612000
1E1F00
ENDCHAR
STARTCHAR 0154
ENCODING 340
SWIDTH 540 0
DWIDTH 12 0
BBX 9 19 2 0
BITMAP
0600
0800
1000
0000
FE00
8100
8080
8080
8080
8080
8100
FE00
8400
8400
8200
8200
8100
8180
8080
ENDCHAR
STARTCHAR 0155
ENCODING 341
SWIDTH 315 0
DWIDTH 7 0
BBX 5 16 2 1
BITMAP
10
20
40
00
00
98
E0
C0
80
80
80
80
80
80
80
80
ENDCHAR
STARTCHAR 0156
ENCODING 342
SWIDTH 540 0
DWIDTH 12 0
BBX 9 20 2 -5
BITMAP
FE00
8100
8080
8080
8080
8080
8100
FE00
8400
8400
8200
8200
8100
8180
8080
0000
0000
0C00
0400
1800
ENDCHAR
STARTCHAR 0157
ENCODING 343
SWIDTH 315 0
DWIDTH 7 0
BBX 6 16 1 -5
BITMAP
4C
70
60
40
40
40
40
40
40
40
40
00
00
60
20
C0
ENDCHAR
STARTCHAR 0158
ENCODING 344
SWIDTH 540 0
DWIDTH 12 0
BBX 9 19 2 0
BITMAP
4200
2400
1800
0000
FE00
8100
8080
8080
8080
8080
8100
FE00
8400
8400
8200
8200
8100
8180
8080
ENDCHAR
STARTCHAR 0159
ENCODING 345
SWIDTH 315 0
DWIDTH 7 0
BBX 5 16 2 1
BITMAP
88
50
20
00
00
98
E0
C0
80
80
80
80
80
80
80
80
ENDCHAR
STARTCHAR 015A
ENCODING 346
SWIDTH 540 0
DWIDTH 12 0
BBX 10 19 1 0
BITMAP
0200
0600
0800
0000
1E00
2180
4000
4000
4000
6000
3800
0600
0180
0080
0040
0040
8080
4180
3E00
ENDCHAR
STARTCHAR 015B
ENCODING 347
SWIDTH 405 0
DWIDTH 9 0
BBX 7 17 1 0
BITMAP
04
0C
08
10
00
00
3C
40
80
80
60
18
06
02
02
82
7C
ENDCHAR
STARTCHAR 015C
ENCODING 348
SWIDTH 540 0
DWIDTH 12 0
BBX 10 19 1 0
BITMAP
0C00
1200
2100
0000
1E00
2180
4000
4000
4000
6000
3800
0600
0180
0080
0040
0040
8080
4180
3E00
ENDCHAR
STARTCHAR 015D
ENCODING 349
SWIDTH 405 0
DWIDTH 9 0
BBX 7 17 1 0
BITMAP
10
28
44
42
00
00
3C
40
80
80
60
18
06
02
02
82
7C
ENDCHAR
STARTCHAR 015E
ENCODING 350
SWIDTH 540 0
DWIDTH 12 0
BBX 10 20 1 -5
BITMAP
1E00
2180
4000
4000
4000
6000
3800
0600
0180
0080
0040
0040
8080
4180
3E00
0800
0800
0400
0400
1C00
ENDCHAR
STARTCHAR 015F
ENCODING 351
SWIDTH 405 0
DWIDTH 9 0
BBX 7 16 1 -5
BITMAP
3C
40
80
80
60
18
06
02
02
82
7C
10
10
08
08
30
ENDCHAR
STARTCHAR 0160
ENCODING 352
SWIDTH 540 0
DWIDTH 12 0
BBX 10 19 1 0
BITMAP
2100
1200
0C00
0000
1E00
2180
4000
4000
4000
6000
3800
0600
0180
0080
0040
0040
8080
4180
3E00
ENDCHAR
STARTCHAR 0161
ENCODING 353
SWIDTH 405 0
DWIDTH 9 0
BBX 7 16 1 1
BITMAP
44
28
18
00
00
3C
40
80
80
60
18
06
02
02
82
7C
ENDCHAR
STARTCHAR 0162
ENCODING 354
SWIDTH 540 0
DWIDTH 12 0
BBX 10 20 1 -5
BITMAP
FFC0
0800
0800
0800
0800
0800
0800
0800
0800
0800
0800
0800
0800
0800
0800
0800
0800
0400
0400
1800
ENDCHAR
STARTCHAR 0163
ENCODING 355
SWIDTH 315 0
DWIDTH 7 0
BBX 6 19 1 -5
BITMAP
40
40
40
F8
40
40
40
40
40
40
40
40
20
3C
10
10
08
08
30
ENDCHAR
STARTCHAR 0164
ENCODING 356
SWIDTH 540 0
DWIDTH 12 0
BBX 10 19 1 0
BITMAP
2100
1200
0C00
0000
FFC0
0800
0800
0800
0800
0800
0800
0800
0800
0800
0800
0800
0800
0800
0800
ENDCHAR
STARTCHAR 0165
ENCODING 357
SWIDTH 315 0
DWIDTH 7 0
BBX 6 17 1 0
BITMAP
08
08
08
48
48
40
F8
40
40
40
40
40
40
40
40
20
3C
ENDCHAR
STARTCHAR 0166
ENCODING 358
SWIDTH 540 0
DWIDTH 12 0
BBX 10 15 1 0
BITMAP
FFC0
0800
0800
0800
0800
0800
0800
7F00
0800
0800
0800
0800
0800
0800
0800
ENDCHAR
STARTCHAR 0167
ENCODING 359
SWIDTH 315 0
DWIDTH 7 0
BBX 6 14 1 0
BITMAP
40
40
40
F8
40
40
40
40
F8
40
40
40
20
3C
ENDCHAR
STARTCHAR 0168
ENCODING 360
SWIDTH 630 0
DWIDTH 14 0
BBX 10 19 2 0
BITMAP
3080
4D00
4300
0000
8040
8040
8040
8040
8040
8040
8040
8040
8040
8040
8040
8040
4080
6180
1E00
ENDCHAR
STARTCHAR 0169
ENCODING 361
SWIDTH 540 0
DWIDTH 12 0
BBX 8 16 2 0
BITMAP
70
9A
86
00
00
81
81
81
81
81
81
81
81
83
C5
79
ENDCHAR
STARTCHAR 016A
ENCODING 362
SWIDTH 630 0
DWIDTH 14 0
BBX 10 18 2 0
BITMAP
3F00
0000
0000
8040
8040
8040
8040
8040
8040
8040
8040
8040
8040
8040
8040
4080
6180
1E00
ENDCHAR
STARTCHAR 016B
ENCODING 363
SWIDTH 540 0
DWIDTH 12 0
BBX 8 15 2 0
BITMAP
7E
00
00
00
81
81
81
81
81
81
81
81
83
C5
79
ENDCHAR
STARTCHAR 016C
ENCODING 364
SWIDTH 630 0
DWIDTH 14 0
BBX 10 19 2 0
BITMAP
2100
2100
1E00
0000
8040
8040
8040
8040
8040
8040
8040
8040
8040
8040
8040
8040
4080
6180
1E00
ENDCHAR
STARTCHAR 016D
ENCODING 365
SWIDTH 540 0
DWIDTH 12 0
BBX 8 16 2 0
BITMAP
82
42
3C
00
00
81
81
81
81
81
81
81
81
83
C5
79
ENDCHAR
STARTCHAR 016E
ENCODING 366
SWIDTH 630 0
DWIDTH 14 0
BBX 10 19 2 0
BITMAP
0C00
1200
1200
0C00
8040
8040
8040
8040
8040
8040
8040
8040
8040
8040
8040
8040
4080
6180
1E00
ENDCHAR
STARTCHAR 016F
ENCODING 367
SWIDTH 540 0
DWIDTH 12 0
BBX 8 17 2 0
BITMAP
10
2C
44
24
18
00
81
81
81
81
81
81
81
81
83
C5
79
ENDCHAR
STARTCHAR 0170
ENCODING 368
SWIDTH 630 0
DWIDTH 14 0
BBX 10 20 2 0
BITMAP
0080
0880
0900
1200
0000
8040
8040
8040
8040
8040
8040
8040
8040
8040
8040
8040
8040
4080
6180
1E00
ENDCHAR
STARTCHAR 0171
ENCODING 369
SWIDTH 540 0
DWIDTH 12 0
BBX 8 16 2 0
BITMAP
09
12
24
00
00
81
81
81
81
81
81
81
81
83
C5
79
ENDCHAR
STARTCHAR 0172
ENCODING 370
SWIDTH 630 0
DWIDTH 14 0
BBX 10 19 2 -4
BITMAP
8040
8040
8040
8040
8040
8040
8040
8040
8040
8040
8040
8040
4080
6180
1E00
0400
0800
0800
0E00
ENDCHAR
STARTCHAR 0173
ENCODING 371
SWIDTH 540 0
DWIDTH 12 0
BBX 8 15 2 -4
BITMAP
81
81
81
81
81
81
81
81
83
C5
79
02
04
04
07
ENDCHAR
STARTCHAR 0174
ENCODING 372
SWIDTH 765 0
DWIDTH 17 0
BBX 15 19 1 0
BITMAP
0180
02C0
0420
0000
8102
8302
8282
8282
4284
4444
4444
4444
4444
2828
2828
2828
2828
3030
1010
ENDCHAR
STARTCHAR 0175
ENCODING 373
SWIDTH 675 0
DWIDTH 15 0
BBX 14 17 1 0
BITMAP
0200
0500
0880
0040
0000
0000
8204
8508
8508
4508
4510
4890
4890
2890
2860
3060
1060
ENDCHAR
STARTCHAR 0176
ENCODING 374
SWIDTH 450 0
DWIDTH 10 0
BBX 10 19 0 0
BITMAP
0C00
1200
2100
0000
8040
4080
4080
2100
2100
1200
1200
0C00
0C00
0800
0800
0800
0800
0800
0800
ENDCHAR
STARTCHAR 0177
ENCODING 375
SWIDTH 450 0
DWIDTH 10 0
BBX 9 22 0 -5
BITMAP
0C00
0A00
1200
2100
0000
0000
C080
4080
4080
2100
2100
2100
1200
1200
1200
0C00
0C00
0800
0800
0800
1000
6000
ENDCHAR
STARTCHAR 0178
ENCODING 376
SWIDTH 450 0
DWIDTH 10 0
BBX 10 18 0 0
BITMAP
3300
2100
0000
8040
4080
4080
2100
2100
1200
1200
0C00
0C00
0800
0800
0800
0800
0800
0800
ENDCHAR
STARTCHAR 0179
ENCODING 377
SWIDTH 540 0
DWIDTH 12 0
BBX 10 19 1 0
BITMAP
0300
0400
0800
0000
7FC0
0080
0080
0100
0200
0200
0400
0C00
0800
1000
1000
2000
4000
4000
FFC0
ENDCHAR
STARTCHAR 017A
ENCODING 378
SWIDTH 405 0
DWIDTH 9 0
BBX 7 16 1 1
BITMAP
04
08
10
00
00
FE
06
04
08
08
10
20
20
40
80
FE
ENDCHAR
STARTCHAR 017B
ENCODING 379
SWIDTH 540 0
DWIDTH 12 0
BBX 10 18 1 0
BITMAP
0C00
0400
0000
7FC0
0080
0080
0100
0200
0200
0400
0C00
0800
1000
1000
2000
4000
4000
FFC0
ENDCHAR
STARTCHAR 017C
ENCODING 380
SWIDTH 405 0
DWIDTH 9 0
BBX 7 15 1 0
BITMAP
18
10
00
00
FE
06
04
08
08
10
20
20
40
80
FE
ENDCHAR
STARTCHAR 017D
ENCODING 381
SWIDTH 540 0
DWIDTH 12 0
BBX 10 19 1 0
BITMAP
2100
1200
0C00
0000
7FC0
0080
0080
0100
0200
0200
0400
0C00
0800
1000
1000
2000
4000
4000
FFC0
ENDCHAR
STARTCHAR 017E
ENCODING 382
SWIDTH 405 0
DWIDTH 9 0
BBX 7 17 1 0
BITMAP
02
44
2C
18
00
00
FE
06
04
08
08
10
20
20
40
80
FE
ENDCHAR
STARTCHAR 0180
ENCODING 384
SWIDTH 540 0
DWIDTH 12 0
BBX 11 16 0 0
BITMAP
2000
2000
FE00
2000
2000
2000
2780
3840
2060
2020
2020
2020
2020
2040
30C0
2F00
ENDCHAR
STARTCHAR 018F
ENCODING 399
SWIDTH 630 0
DWIDTH 14 0
BBX 12 15 1 0
BITMAP
0F80
3040
0020
0030
0010
0010
0010
FFF0
8010
4010
4010
4020
2020
3040
0F80
ENDCHAR
STARTCHAR 0192
ENCODING 402
SWIDTH 495 0
DWIDTH 11 0
BBX 10 17 0 -2
BITMAP
01C0
0200
0400
0400
0400
0400
1F80
0400
0800
0800
0800
0800
0800
0800
0800
1000
E000
ENDCHAR
STARTCHAR 0193
ENCODING 403
SWIDTH 585 0
DWIDTH 13 0
BBX 12 18 1 0
BITMAP
0030
0040
0040
0FC0
1060
2000
4000
4000
C000
8000
8000
83E0
8020
4020
4020
2020
3060
0F80
ENDCHAR
STARTCHAR 01A0
ENCODING 416
SWIDTH 630 0
DWIDTH 14 0
BBX 12 18 1 0
BITMAP
0010
0010
0010
0FA0
3040
2020
4030
4010
C010
8010
8010
8010
C010
4010
4030
2020
1040
0F80
ENDCHAR
STARTCHAR 01A1
ENCODING 417
SWIDTH 540 0
DWIDTH 12 0
BBX 10 14 1 0
BITMAP
0040
0040
0040
1F80
2100
4080
C080
8040
8040
8040
8080
4080
2100
1E00
ENDCHAR
STARTCHAR 01AF
ENCODING 431
SWIDTH 630 0
DWIDTH 14 0
BBX 12 18 2 1
BITMAP
0010
0010
0010
8060
8040
8040
8040
8040
8040
8040
8040
8040
8040
8040
8040
4080
6180
1E00
ENDCHAR
STARTCHAR 01B0
ENCODING 432
SWIDTH 540 0
DWIDTH 12 0
BBX 10 14 2 1
BITMAP
0040
0040
0080
8100
8100
8100
8100
8100
8100
8100
8100
8300
C500
7900
ENDCHAR
STARTCHAR 01C2
ENCODING 450
SWIDTH 270 0
DWIDTH 6 0
BBX 6 21 0 -4
BITMAP
20
20
20
20
20
20
20
20
FC
20
20
FC
20
20
20
20
20
20
20
20
20
ENDCHAR
STARTCHAR 01CD
ENCODING 461
SWIDTH 540 0
DWIDTH 12 0
BBX 11 19 0 0
BITMAP
1080
0900
0600
0000
0600
0600
0A00
0900
0900
1100
1080
1080
2080
3FC0
2040
4040
4020
4020
8020
ENDCHAR
STARTCHAR 01CE
ENCODING 462
SWIDTH 495 0
DWIDTH 11 0
BBX 8 16 1 1
BITMAP
22
14
0C
00
00
3E
43
01
01
03
3D
41
81
81
43
7D
ENDCHAR
STARTCHAR 01CF
ENCODING 463
SWIDTH 225 0
DWIDTH 5 0
BBX 6 19 0 0
BITMAP
84
48
30
00
20
20
20
20
20
20
20
20
20
20
20
20
20
20
20
ENDCHAR
STARTCHAR 01D0
ENCODING 464
SWIDTH 225 0
DWIDTH 5 0
BBX 5 16 0 1
BITMAP
88
50
20
00
00
20
20
20
20
20
20
20
20
20
20
20
ENDCHAR
STARTCHAR 01D1
ENCODING 465
SWIDTH 630 0
DWIDTH 14 0
BBX 12 19 1 0
BITMAP
1080
0900
0600
0000
0F80
30C0
2020
4030
4010
8010
8010
8010
8010
8010
4010
4020
2020
30C0
0F80
ENDCHAR
STARTCHAR 01D2
ENCODING 466
SWIDTH 540 0
DWIDTH 12 0
BBX 10 17 1 0
BITMAP
0100
2200
1200
0C00
0000
0000
1E00
2100
4080
C080
8040
8040
8040
8080
4080
2100
1E00
ENDCHAR
STARTCHAR 01D3
ENCODING 467
SWIDTH 630 0
DWIDTH 14 0
BBX 10 19 2 0
BITMAP
2100
1200
0C00
0000
8040
8040
8040
8040
8040
8040
8040
8040
8040
8040
8040
8040
4080
6180
1E00
ENDCHAR
STARTCHAR 01D4
ENCODING 468
SWIDTH 540 0
DWIDTH 12 0
BBX 8 17 2 0
BITMAP
02
44
24
18
00
00
81
81
81
81
81
81
81
81
83
C5
79
ENDCHAR
STARTCHAR 01D5
ENCODING 469
SWIDTH 630 0
DWIDTH 14 0
BBX 10 20 2 0
BITMAP
3F00
0000
3300
2100
0000
8040
8040
8040
8040
8040
8040
8040
8040
8040
8040
8040
8040
4080
6180
1E00
ENDCHAR
STARTCHAR 01D6
ENCODING 470
SWIDTH 540 0
DWIDTH 12 0
BBX 8 18 2 0
BITMAP
7E
00
00
66
00
00
00
81
81
81
81
81
81
81
81
83
C5
79
ENDCHAR
STARTCHAR 01D7
ENCODING 471
SWIDTH 630 0
DWIDTH 14 0
BBX 10 21 2 0
BITMAP
0200
0400
0000
3300
2100
0000
8040
8040
8040
8040
8040
8040
8040
8040
8040
8040
8040
8040
4080
6180
1E00
ENDCHAR
STARTCHAR 01D8
ENCODING 472
SWIDTH 540 0
DWIDTH 12 0
BBX 8 18 2 0
BITMAP
08
10
00
66
00
00
00
81
81
81
81
81
81
81
81
83
C5
79
ENDCHAR
STARTCHAR 01D9
ENCODING 473
SWIDTH 630 0
DWIDTH 14 0
BBX 10 21 2 1
BITMAP
1200
0C00
0000
3300
2100
0000
8040
8040
8040
8040
8040
8040
8040
8040
8040
8040
8040
8040
4080
6180
1E00
ENDCHAR
STARTCHAR 01DA
ENCODING 474
SWIDTH 540 0
DWIDTH 12 0
BBX 8 18 2 0
BITMAP
24
18
00
66
00
00
00
81
81
81
81
81
81
81
81
83
C5
79
ENDCHAR
STARTCHAR 01DB
ENCODING 475
SWIDTH 630 0
DWIDTH 14 0
BBX 10 21 2 0
BITMAP
1000
0800
0000
3300
2100
0000
8040
8040
8040
8040
8040
8040
8040
8040
8040
8040
8040
8040
4080
6180
1E00
ENDCHAR
STARTCHAR 01DC
ENCODING 476
SWIDTH 540 0
DWIDTH 12 0
BBX 8 18 2 0
BITMAP
30
10
00
66
00
00
00
81
81
81
81
81
81
81
81
83
C5
79
ENDCHAR
STARTCHAR 01E2
ENCODING 482
SWIDTH 810 0
DWIDTH 18 0
BBX 16 18 1 0
BITMAP
007E
0000
0000
01FF
0180
0280
0280
0480
0480
0880
08FE
1080
3F80
2080
4080
4080
8080
80FF
ENDCHAR
STARTCHAR 01E3
ENCODING 483
SWIDTH 765 0
DWIDTH 17 0
BBX 16 15 1 0
BITMAP
07E0
0000
0000
0000
1E3C
6246
0182
0102
0301
3DFF
4100
4100
8180
4242
3C3C
ENDCHAR
STARTCHAR 01E6
ENCODING 486
SWIDTH 585 0
DWIDTH 13 0
BBX 11 19 1 0
BITMAP
0840
0480
0300
0000
0F80
1040
2000
4000
4000
C000
8000
8000
83E0
8020
4020
4020
2020
3060
0F80
ENDCHAR
STARTCHAR 01E7
ENCODING 487
SWIDTH 495 0
DWIDTH 11 0
BBX 10 22 1 -5
BITMAP
0100
2200
1400
0C00
0000
0000
3F80
4200
4100
4100
4100
4100
2200
5C00
4000
4000
3F00
4080
8040
8080
4180
3E00
ENDCHAR
STARTCHAR 01EA
ENCODING 490
SWIDTH 630 0
DWIDTH 14 0
BBX 12 19 1 -4
BITMAP
0F80
30C0
2020
4030
4010
8010
8010
8010
8010
8010
4010
4020
2020
30C0
0F80
0200
0400
0400
0300
ENDCHAR
STARTCHAR 01EB
ENCODING 491
SWIDTH 540 0
DWIDTH 12 0
BBX 10 15 1 -4
BITMAP
1E00
2100
4080
C080
8040
8040
8040
8080
4080
2100
1E00
0800
0800
0800
0E00
ENDCHAR
STARTCHAR 01F4
ENCODING 500
SWIDTH 585 0
DWIDTH 13 0
BBX 11 19 1 0
BITMAP
0080
0100
0200
0000
0F80
1040
2000
4000
4000
C000
8000
8000
83E0
8020
4020
4020
2020
3060
0F80
ENDCHAR
STARTCHAR 01F5
ENCODING 501
SWIDTH 495 0
DWIDTH 11 0
BBX 10 22 1 -5
BITMAP
0200
0200
0400
0800
0000
0000
3F80
4200
4100
4100
4100
4100
2200
5C00
4000
4000
3F00
4080
8040
8080
4180
3E00
ENDCHAR
STARTCHAR 01F8
ENCODING 504
SWIDTH 630 0
DWIDTH 14 0
BBX 10 19 2 0
BITMAP
1000
0800
0400
0000
C040
C040
A040
A040
9040
9040
8840
8440
8440
8240
8240
8140
8140
80C0
8040
ENDCHAR
STARTCHAR 01F9
ENCODING 505
SWIDTH 540 0
DWIDTH 12 0
BBX 8 17 2 0
BITMAP
20
20
10
08
00
00
9E
E2
81
81
81
81
81
81
81
81
81
ENDCHAR
STARTCHAR 01FC
ENCODING 508
SWIDTH 810 0
DWIDTH 18 0
BBX 16 19 1 0
BITMAP
0004
0008
0010
0000
01FF
0180
0280
0280
0480
0480
0880
08FE
1080
3F80
2080
4080
4080
8080
80FF
ENDCHAR
STARTCHAR 01FD
ENCODING 509
SWIDTH 765 0
DWIDTH 17 0
BBX 16 16 1 1
BITMAP
0040
0080
0100
0000
0000
1E3C
6246
0182
0102
0301
3DFF
4100
4100
8180
4242
3C3C
ENDCHAR
STARTCHAR 0218
ENCODING 536
SWIDTH 540 0
DWIDTH 12 0
BBX 10 20 1 -5
BITMAP
1E00
2180
4000
4000
4000
6000
3800
0600
0180
0080
0040
0040
8080
4180
3E00
0000
0800
0400
0400
1C00
ENDCHAR
STARTCHAR 0219
ENCODING 537
SWIDTH 405 0
DWIDTH 9 0
BBX 7 16 1 -5
BITMAP
3C
40
80
80
60
18
06
02
02
82
7C
00
10
08
08
30
ENDCHAR
STARTCHAR 021A
ENCODING 538
SWIDTH 540 0
DWIDTH 12 0
BBX 10 20 1 -5
BITMAP
FFC0
0800
0800
0800
0800
0800
0800
0800
0800
0800
0800
0800
0800
0800
0800
0000
0800
0400
0400
1800
ENDCHAR
STARTCHAR 021B
ENCODING 539
SWIDTH 315 0
DWIDTH 7 0
BBX 6 19 1 -5
BITMAP
40
40
40
F8
40
40
40
40
40
40
40
40
20
3C
00
10
08
08
30
ENDCHAR
STARTCHAR 0237
ENCODING 567
SWIDTH 225 0
DWIDTH 5 0
BBX 4 16 -1 -5
BITMAP
10
10
10
10
10
10
10
10
10
10
10
10
10
10
10
E0
ENDCHAR
STARTCHAR 0243
ENCODING 579
SWIDTH 585 0
DWIDTH 13 0
BBX 11 15 1 0
BITMAP
7F00
40C0
4040
4040
4040
4080
7F00
40C0
4060
4020
FC20
4020
4020
4040
7F80
ENDCHAR
STARTCHAR 0250
ENCODING 592
SWIDTH 495 0
DWIDTH 11 0
BBX 8 11 2 0
BITMAP
9E
E3
81
81
82
8C
F0
80
80
43
3C
ENDCHAR
STARTCHAR 0251
ENCODING 593
SWIDTH 540 0
DWIDTH 12 0
BBX 9 11 1 0
BITMAP
1E80
2180
4080
C080
8080
8080
8080
8080
4080
6180
3E80
ENDCHAR
STARTCHAR 0252
ENCODING 594
SWIDTH 540 0
DWIDTH 12 0
BBX 9 11 2 0
BITMAP
9E00
E100
8100
8080
8080
8080
8080
8080
8100
C300
BC00
ENDCHAR
STARTCHAR 0253
ENCODING 595
SWIDTH 540 0
DWIDTH 12 0
BBX 9 16 2 0
BITMAP
7800
4000
8000
8000
8000
9E00
E100
8100
8080
8080
8080
8080
8080
8100
C300
BC00
ENDCHAR
STARTCHAR 0254
ENCODING 596
SWIDTH 450 0
DWIDTH 10 0
BBX 8 11 1 0
BITMAP
78
84
02
03
01
01
01
03
02
84
78
ENDCHAR
STARTCHAR 0255
ENCODING 597
SWIDTH 450 0
DWIDTH 10 0
BBX 8 12 1 -1
BITMAP
1E
21
40
C0
80
80
80
8F
51
21
5E
40
ENDCHAR
STARTCHAR 0256
ENCODING 598
SWIDTH 540 0
DWIDTH 12 0
BBX 11 20 1 -4
BITMAP
0080
0080
0080
0080
0080
1E80
2180
4080
C080
8080
8080
8080
8080
4080
6180
3E80
0080
0080
0080
0060
ENDCHAR
STARTCHAR 0257
ENCODING 599
SWIDTH 540 0
DWIDTH 12 0
BBX 11 16 1 0
BITMAP
0060
0080
0080
0080
0080
1E80
2180
4080
C080
8080
8080
8080
8080
4080
6180
3E80
ENDCHAR
STARTCHAR 0258
ENCODING 600
SWIDTH 495 0
DWIDTH 11 0
BBX 9 11 1 0
BITMAP
3C00
4200
8100
8100
8100
FF80
0080
0100
0100
0200
7C00
ENDCHAR
STARTCHAR 0259
ENCODING 601
SWIDTH 495 0
DWIDTH 11 0
BBX 9 11 1 0
BITMAP
3C00
4200
0100
0100
0080
FF80
8080
8100
8100
4200
3C00
ENDCHAR
STARTCHAR 025A
ENCODING 602
SWIDTH 630 0
DWIDTH 14 0
BBX 13 11 1 0
BITMAP
3C00
4200
0100
01E0
03A0
1C98
6080
8100
8100
4200
3C00
ENDCHAR
STARTCHAR 025B
ENCODING 603
SWIDTH 405 0
DWIDTH 9 0
BBX 8 11 1 0
BITMAP
3E
40
40
40
60
3C
40
80
80
41
3E
ENDCHAR
STARTCHAR 025C
ENCODING 604
SWIDTH 450 0
DWIDTH 10 0
BBX 8 11 1 0
BITMAP
7C
02
02
02
04
3C
02
01
01
82
7C
ENDCHAR
STARTCHAR 025E
ENCODING 606
SWIDTH 540 0
DWIDTH 12 0
BBX 10 11 1 0
BITMAP
3E00
4100
4080
4080
6040
3840
4040
8080
8080
4100
3E00
ENDCHAR
STARTCHAR 025F
ENCODING 607
SWIDTH 225 0
DWIDTH 5 0
BBX 5 16 0 -5
BITMAP
20
20
20
20
20
F8
20
20
20
20
20
20
20
20
20
C0
ENDCHAR
STARTCHAR 0260
ENCODING 608
SWIDTH 540 0
DWIDTH 12 0
BBX 11 19 1 -5
BITMAP
0060
0080
0080
1E80
2180
4080
C080
8080
8080
8080
8080
4080
6180
3E80
0080
0080
0080
4100
3E00
ENDCHAR
STARTCHAR 0261
ENCODING 609
SWIDTH 540 0
DWIDTH 12 0
BBX 9 16 1 -5
BITMAP
1E80
2180
4080
C080
8080
8080
8080
8080
4080
6180
3E80
0080
0080
0080
4100
3E00
ENDCHAR
STARTCHAR 0262
ENCODING 610
SWIDTH 495 0
DWIDTH 11 0
BBX 9 11 1 0
BITMAP
1E00
6100
4000
8000
8000
8780
8080
C080
4080
2180
1E00
ENDCHAR
STARTCHAR 0263
ENCODING 611
SWIDTH 450 0
DWIDTH 10 0
BBX 9 16 0 -5
BITMAP
8080
4080
4100
2100
2100
2200
1200
1200
1400
0C00
0C00
1400
1200
1200
1200
0C00
ENDCHAR
STARTCHAR 0264
ENCODING 612
SWIDTH 495 0
DWIDTH 11 0
BBX 10 11 0 0
BITMAP
F1C0
1A00
0C00
0A00
1100
2100
2080
2080
2080
2100
1E00
ENDCHAR
STARTCHAR 0265
ENCODING 613
SWIDTH 540 0
DWIDTH 12 0
BBX 8 16 2 -5
BITMAP
81
81
81
81
81
81
81
81
83
C5
79
01
01
01
01
01
ENDCHAR
STARTCHAR 0266
ENCODING 614
SWIDTH 540 0
DWIDTH 12 0
BBX 8 16 2 0
BITMAP
78
40
80
80
80
9E
E2
81
81
81
81
81
81
81
81
81
ENDCHAR
STARTCHAR 0267
ENCODING 615
SWIDTH 540 0
DWIDTH 12 0
BBX 8 20 2 -4
BITMAP
78
40
80
80
80
9E
E2
81
81
81
81
81
81
81
81
81
01
01
01
0E
ENDCHAR
STARTCHAR 0268
ENCODING 616
SWIDTH 225 0
DWIDTH 5 0
BBX 5 15 0 0
BITMAP
20
20
00
00
20
20
20
20
20
F8
20
20
20
20
20
ENDCHAR
STARTCHAR 026A
ENCODING 618
SWIDTH 315 0
DWIDTH 7 0
BBX 5 11 1 0
BITMAP
F8
20
20
20
20
20
20
20
20
20
F8
ENDCHAR
STARTCHAR 026C
ENCODING 620
SWIDTH 270 0
DWIDTH 6 0
BBX 6 16 0 0
BITMAP
10
10
10
10
10
F0
90
7C
10
10
10
10
10
10
10
18
ENDCHAR
STARTCHAR 026D
ENCODING 621
SWIDTH 225 0
DWIDTH 5 0
BBX 3 20 2 -4
BITMAP
80
80
80
80
80
80
80
80
80
80
80
80
80
80
80
80
80
80
80
60
ENDCHAR
STARTCHAR 026E
ENCODING 622
SWIDTH 540 0
DWIDTH 12 0
BBX 10 21 2 -5
BITMAP
8000
8000
8000
8000
8000
FF80
8100
8100
8200
8400
8400
8800
9F00
8180
8080
8040
0040
0080
0080
6180
1E00
ENDCHAR
STARTCHAR 026F
ENCODING 623
SWIDTH 810 0
DWIDTH 18 0
BBX 14 11 2 0
BITMAP
8204
8204
8204
8204
8204
8204
8204
8204
8304
C50C
78F4
ENDCHAR
STARTCHAR 0270
ENCODING 624
SWIDTH 810 0
DWIDTH 18 0
BBX 14 16 2 -5
BITMAP
8204
8204
8204
8204
8204
8204
8204
8204
8304
C50C
78F4
0004
0004
0004
0004
0004
ENDCHAR
STARTCHAR 0271
ENCODING 625
SWIDTH 810 0
DWIDTH 18 0
BBX 14 15 2 -4
BITMAP
9C78
E28C
8304
8104
8104
8104
8104
8104
8104
8104
8104
0004
0004
0004
0018
ENDCHAR
STARTCHAR 0272
ENCODING 626
SWIDTH 540 0
DWIDTH 12 0
BBX 10 15 0 -4
BITMAP
2780
3880
2040
2040
2040
2040
2040
2040
2040
2040
2040
2000
2000
2000
C000
ENDCHAR
STARTCHAR 0273
ENCODING 627
SWIDTH 540 0
DWIDTH 12 0
BBX 10 15 2 -4
BITMAP
9E00
E200
8100
8100
8100
8100
8100
8100
8100
8100
8100
0100
0100
0100
00C0
ENDCHAR
STARTCHAR 0274
ENCODING 628
SWIDTH 540 0
DWIDTH 12 0
BBX 8 11 2 0
BITMAP
81
C1
A1
A1
91
91
89
85
85
83
81
ENDCHAR
STARTCHAR 0275
ENCODING 629
SWIDTH 540 0
DWIDTH 12 0
BBX 10 11 1 0
BITMAP
1E00
2100
4080
8080
8040
FFC0
8040
8080
4080
6100
1E00
ENDCHAR
STARTCHAR 0276
ENCODING 630
SWIDTH 675 0
DWIDTH 15 0
BBX 14 11 1 0
BITMAP
1FFC
2100
4100
C100
8100
81F8
8100
8100
4100
2100
1FFC
ENDCHAR
STARTCHAR 0278
ENCODING 632
SWIDTH 630 0
DWIDTH 14 0
BBX 12 21 1 -5
BITMAP
0200
0200
0200
0200
0200
1F80
2260
4220
C210
8210
8210
8210
C210
4220
2260
1F80
0200
0200
0200
0200
0200
ENDCHAR
STARTCHAR 0279
ENCODING 633
SWIDTH 315 0
DWIDTH 7 0
BBX 5 11 0 0
BITMAP
08
08
08
08
08
08
08
08
18
18
E8
ENDCHAR
STARTCHAR 027A
ENCODING 634
SWIDTH 315 0
DWIDTH 7 0
BBX 5 16 0 0
BITMAP
08
08
08
08
08
08
08
08
08
08
08
08
08
18
18
E8
ENDCHAR
STARTCHAR 027B
ENCODING 635
SWIDTH 315 0
DWIDTH 7 0
BBX 7 15 0 -4
BITMAP
08
08
08
08
08
08
08
08
18
18
E8
08
08
08
06
ENDCHAR
STARTCHAR 027D
ENCODING 637
SWIDTH 315 0
DWIDTH 7 0
BBX 5 15 2 -4
BITMAP
98
E0
C0
80
80
80
80
80
80
80
80
80
80
80
60
ENDCHAR
STARTCHAR 027E
ENCODING 638
SWIDTH 315 0
DWIDTH 7 0
BBX 5 11 2 0
BITMAP
38
40
80
80
80
80
80
80
80
80
80
ENDCHAR
STARTCHAR 0280
ENCODING 640
SWIDTH 495 0
DWIDTH 11 0
BBX 7 11 2 0
BITMAP
FC
82
82
82
82
FC
88
8C
84
82
82
ENDCHAR
STARTCHAR 0281
ENCODING 641
SWIDTH 495 0
DWIDTH 11 0
BBX 7 11 1 0
BITMAP
82
42
42
22
12
3E
42
82
82
42
3E
ENDCHAR
STARTCHAR 0282
ENCODING 642
SWIDTH 405 0
DWIDTH 9 0
BBX 7 15 1 -4
BITMAP
3C
40
80
80
60
18
06
02
02
82
FC
80
80
80
60
ENDCHAR
STARTCHAR 0283
ENCODING 643
SWIDTH 225 0
DWIDTH 5 0
BBX 7 21 -1 -5
BITMAP
0E
10
10
10
10
10
10
10
10
10
10
10
10
10
10
10
10
10
10
10
E0
ENDCHAR
STARTCHAR 0284
ENCODING 644
SWIDTH 225 0
DWIDTH 5 0
BBX 7 21 -1 -5
BITMAP
0E
10
10
10
10
10
10
10
10
10
7C
10
10
10
10
10
10
10
10
10
E0
ENDCHAR
STARTCHAR 0288
ENCODING 648
SWIDTH 315 0
DWIDTH 7 0
BBX 6 18 1 -4
BITMAP
40
40
40
F8
40
40
40
40
40
40
40
40
40
40
40
40
20
3C
ENDCHAR
STARTCHAR 0289
ENCODING 649
SWIDTH 540 0
DWIDTH 12 0
BBX 12 11 0 0
BITMAP
2040
2040
2040
2040
FFF0
2040
2040
2040
2040
11C0
0E40
ENDCHAR
STARTCHAR 028A
ENCODING 650
SWIDTH 540 0
DWIDTH 12 0
BBX 10 11 1 0
BITMAP
F3C0
2100
4080
4080
8080
8040
8040
8080
4080
6100
1E00
ENDCHAR
STARTCHAR 028B
ENCODING 651
SWIDTH 495 0
DWIDTH 11 0
BBX 8 11 2 0
BITMAP
8E
83
81
81
81
81
81
81
82
46
3C
ENDCHAR
STARTCHAR 028C
ENCODING 652
SWIDTH 450 0
DWIDTH 10 0
BBX 9 11 0 0
BITMAP
0C00
0C00
1400
1200
2200
2200
2100
4100
4080
4080
8080
ENDCHAR
STARTCHAR 028D
ENCODING 653
SWIDTH 675 0
DWIDTH 15 0
BBX 14 11 1 0
BITMAP
3060
3060
28A0
4890
4890
4890
4510
8508
8508
8508
820C
ENDCHAR
STARTCHAR 028E
ENCODING 654
SWIDTH 450 0
DWIDTH 10 0
BBX 8 16 1 0
BITMAP
03
04
08
08
10
10
10
28
28
24
44
44
42
82
81
81
ENDCHAR
STARTCHAR 028F
ENCODING 655
SWIDTH 405 0
DWIDTH 9 0
BBX 8 11 0 0
BITMAP
81
41
42
22
24
14
18
08
08
08
08
ENDCHAR
STARTCHAR 0290
ENCODING 656
SWIDTH 405 0
DWIDTH 9 0
BBX 9 15 1 -4
BITMAP
FE00
0600
0400
0800
0800
1000
2000
2000
4000
8000
FE00
0200
0200
0200
0180
ENDCHAR
STARTCHAR 0291
ENCODING 657
SWIDTH 405 0
DWIDTH 9 0
BBX 9 13 1 -2
BITMAP
FE00
0400
0400
0800
0800
1000
2000
2700
4880
8900
FF00
1000
1000
ENDCHAR
STARTCHAR 0292
ENCODING 658
SWIDTH 405 0
DWIDTH 9 0
BBX 9 16 0 -5
BITMAP
7F00
0200
0200
0400
0800
0800
1000
3E00
0300
0100
0080
0080
0100
0100
C300
3C00
ENDCHAR
STARTCHAR 0294
ENCODING 660
SWIDTH 405 0
DWIDTH 9 0
BBX 8 16 0 0
BITMAP
3C
C3
01
01
01
01
01
02
0C
10
10
10
10
10
10
10
ENDCHAR
STARTCHAR 0295
ENCODING 661
SWIDTH 405 0
DWIDTH 9 0
BBX 8 16 1 0
BITMAP
3C
C3
80
80
80
80
80
40
30
10
10
10
10
10
10
10
ENDCHAR
STARTCHAR 0298
ENCODING 664
SWIDTH 495 0
DWIDTH 11 0
BBX 9 16 1 0
BITMAP
1C00
2200
4100
4100
4080
4080
8080
8880
8880
8080
4080
4080
4100
4100
2200
1C00
ENDCHAR
STARTCHAR 0299
ENCODING 665
SWIDTH 495 0
DWIDTH 11 0
BBX 8 11 2 0
BITMAP
FC
82
81
81
82
FC
83
81
81
83
FE
ENDCHAR
STARTCHAR 029C
ENCODING 668
SWIDTH 540 0
DWIDTH 12 0
BBX 8 11 2 0
BITMAP
81
81
81
81
81
FF
81
81
81
81
81
ENDCHAR
STARTCHAR 029D
ENCODING 669
SWIDTH 225 0
DWIDTH 5 0
BBX 7 21 -2 -6
BITMAP
0C
08
00
00
08
08
08
08
08
08
08
08
08
08
08
08
68
98
8C
F4
02
ENDCHAR
STARTCHAR 029F
ENCODING 671
SWIDTH 405 0
DWIDTH 9 0
BBX 6 11 2 0
BITMAP
80
80
80
80
80
80
80
80
80
80
FC
ENDCHAR
STARTCHAR 02A1
ENCODING 673
SWIDTH 405 0
DWIDTH 9 0
BBX 9 16 0 0
BITMAP
3E00
4100
0100
0080
0080
0100
0100
0200
0400
FF80
0800
0800
0800
0800
0800
0800
ENDCHAR
STARTCHAR 02A2
ENCODING 674
SWIDTH 405 0
DWIDTH 9 0
BBX 9 16 0 0
BITMAP
1E00
6180
4000
4000
4000
4000
4000
2000
1800
FF80
0400
0400
0400
0400
0400
0400
ENDCHAR
STARTCHAR 02B0
ENCODING 688
SWIDTH 360 0
DWIDTH 8 0
BBX 6 10 1 9
BITMAP
80
80
80
B8
C4
84
84
84
84
84
ENDCHAR
STARTCHAR 02B2
ENCODING 690
SWIDTH 135 0
DWIDTH 3 0
BBX 2 13 0 6
BITMAP
40
00
00
40
40
40
40
40
40
40
40
40
C0
ENDCHAR
STARTCHAR 02B3
ENCODING 691
SWIDTH 225 0
DWIDTH 5 0
BBX 4 7 1 9
BITMAP
B0
C0
80
80
80
80
80
ENDCHAR
STARTCHAR 02B7
ENCODING 695
SWIDTH 450 0
DWIDTH 10 0
BBX 10 7 0 9
BITMAP
8440
4C40
4C80
5280
5280
3300
3100
ENDCHAR
STARTCHAR 02B8
ENCODING 696
SWIDTH 315 0
DWIDTH 7 0
BBX 6 10 0 6
BITMAP
84
44
44
48
28
30
10
10
20
E0
ENDCHAR
STARTCHAR 02B9
ENCODING 697
SWIDTH 225 0
DWIDTH 5 0
BBX 1 5 2 11
BITMAP
80
80
80
80
80
ENDCHAR
STARTCHAR 02BB
ENCODING 699
SWIDTH 225 0
DWIDTH 5 0
BBX 3 5 1 11
BITMAP
20
40
80
C0
C0
ENDCHAR
STARTCHAR 02BC
ENCODING 700
SWIDTH 225 0
DWIDTH 5 0
BBX 2 5 2 11
BITMAP
80
C0
40
80
80
ENDCHAR
STARTCHAR 02BE
ENCODING 702
SWIDTH 180 0
DWIDTH 4 0
BBX 2 4 1 13
BITMAP
C0
40
40
80
ENDCHAR
STARTCHAR 02BF
ENCODING 703
SWIDTH 180 0
DWIDTH 4 0
BBX 3 5 0 12
BITMAP
20
C0
80
80
60
ENDCHAR
STARTCHAR 02C1
ENCODING 705
SWIDTH 270 0
DWIDTH 6 0
BBX 6 11 0 9
BITMAP
38
44
80
80
40
60
10
10
10
10
10
ENDCHAR
STARTCHAR 02C6
ENCODING 710
SWIDTH 540 0
DWIDTH 12 0
BBX 6 4 3 12
BITMAP
30
48
88
04
ENDCHAR
STARTCHAR 02C7
ENCODING 711
SWIDTH 540 0
DWIDTH 12 0
BBX 6 4 3 13
BITMAP
04
88
48
30
ENDCHAR
STARTCHAR 02C8
ENCODING 712
SWIDTH 90 0
DWIDTH 2 0
BBX 2 4 0 12
BITMAP
40
80
80
80
ENDCHAR
STARTCHAR 02C9
ENCODING 713
SWIDTH 270 0
DWIDTH 6 0
BBX 6 1 0 14
BITMAP
FC
ENDCHAR
STARTCHAR 02CA
ENCODING 714
SWIDTH 225 0
DWIDTH 5 0
BBX 4 4 1 13
BITMAP
10
20
40
80
ENDCHAR
STARTCHAR 02CB
ENCODING 715
SWIDTH 225 0
DWIDTH 5 0
BBX 4 4 0 13
BITMAP
80
40
20
10
ENDCHAR
STARTCHAR 02CC
ENCODING 716
SWIDTH 90 0
DWIDTH 2 0
BBX 2 4 0 -6
BITMAP
80
80
80
40
ENDCHAR
STARTCHAR 02D0
ENCODING 720
SWIDTH 225 0
DWIDTH 5 0
BBX 2 10 1 0
BITMAP
C0
40
00
00
00
00
00
00
40
C0
ENDCHAR
STARTCHAR 02D1
ENCODING 721
SWIDTH 225 0
DWIDTH 5 0
BBX 2 2 1 6
BITMAP
C0
40
ENDCHAR
STARTCHAR 02D8
ENCODING 728
SWIDTH 540 0
DWIDTH 12 0
BBX 6 3 3 13
BITMAP
84
84
78
ENDCHAR
STARTCHAR 02D9
ENCODING 729
SWIDTH 540 0
DWIDTH 12 0
BBX 2 2 5 13
BITMAP
C0
C0
ENDCHAR
STARTCHAR 02DA
ENCODING 730
SWIDTH 540 0
DWIDTH 12 0
BBX 4 5 4 12
BITMAP
40
B0
90
90
60
ENDCHAR
STARTCHAR 02DB
ENCODING 731
SWIDTH 540 0
DWIDTH 12 0
BBX 3 5 5 -5
BITMAP
40
80
80
80
E0
ENDCHAR
STARTCHAR 02DC
ENCODING 732
SWIDTH 540 0
DWIDTH 12 0
BBX 8 3 2 13
BITMAP
61
92
8E
ENDCHAR
STARTCHAR 02DD
ENCODING 733
SWIDTH 540 0
DWIDTH 12 0
BBX 6 4 4 13
BITMAP
24
48
48
90
ENDCHAR
STARTCHAR 02DE
ENCODING 734
SWIDTH 135 0
DWIDTH 3 0
BBX 5 3 -2 5
BITMAP
E0
20
18
ENDCHAR
STARTCHAR 02E0
ENCODING 736
SWIDTH 315 0
DWIDTH 7 0
BBX 6 11 0 5
BITMAP
84
44
44
48
28
30
10
30
28
28
10
ENDCHAR
STARTCHAR 02E1
ENCODING 737
SWIDTH 180 0
DWIDTH 4 0
BBX 2 11 1 9
BITMAP
80
80
80
80
80
80
80
80
80
80
C0
ENDCHAR
STARTCHAR 02E2
ENCODING 738
SWIDTH 270 0
DWIDTH 6 0
BBX 5 7 1 9
BITMAP
F0
80
80
60
18
08
F0
ENDCHAR
STARTCHAR 02E3
ENCODING 739
SWIDTH 270 0
DWIDTH 6 0
BBX 6 7 0 9
BITMAP
44
48
30
10
30
48
84
ENDCHAR
STARTCHAR 0300
ENCODING 768
SWIDTH 0 0
DWIDTH 0 0
BBX 3 4 -2 13
BITMAP
80
80
40
20
ENDCHAR
STARTCHAR 0301
ENCODING 769
SWIDTH 0 0
DWIDTH 0 0
BBX 3 4 -1 13
BITMAP
20
20
40
80
ENDCHAR
STARTCHAR 0302
ENCODING 770
SWIDTH 0 0
DWIDTH 0 0
BBX 6 4 -3 12
BITMAP
30
48
88
84
ENDCHAR
STARTCHAR 0303
ENCODING 771
SWIDTH 0 0
DWIDTH 0 0
BBX 8 3 -4 13
BITMAP
61
92
8E
ENDCHAR
STARTCHAR 0304
ENCODING 772
SWIDTH 0 0
DWIDTH 0 0
BBX 6 1 -3 14
BITMAP
FC
ENDCHAR
STARTCHAR 0305
ENCODING 773
SWIDTH 0 0
DWIDTH 0 0
BBX 6 1 -3 14
BITMAP
FC
ENDCHAR
STARTCHAR 0306
ENCODING 774
SWIDTH 0 0
DWIDTH 0 0
BBX 6 3 -3 13
BITMAP
84
84
78
ENDCHAR
STARTCHAR 0307
ENCODING 775
SWIDTH 0 0
DWIDTH 0 0
BBX 2 2 -1 13
BITMAP
C0
C0
ENDCHAR
STARTCHAR 0308
ENCODING 776
SWIDTH 0 0
DWIDTH 0 0
BBX 6 2 -3 13
BITMAP
CC
48
ENDCHAR
STARTCHAR 0309
ENCODING 777
SWIDTH 0 0
DWIDTH 0 0
BBX 2 4 -1 13
BITMAP
80
40
40
C0
ENDCHAR
STARTCHAR 030A
ENCODING 778
SWIDTH 0 0
DWIDTH 0 0
BBX 4 5 -2 12
BITMAP
60
90
90
90
60
ENDCHAR
STARTCHAR 030B
ENCODING 779
SWIDTH 0 0
DWIDTH 0 0
BBX 6 4 -2 13
BITMAP
24
48
48
90
ENDCHAR
STARTCHAR 030C
ENCODING 780
SWIDTH 0 0
DWIDTH 0 0
BBX 6 4 -3 13
BITMAP
84
88
48
30
ENDCHAR
STARTCHAR 030F
ENCODING 783
SWIDTH 0 0
DWIDTH 0 0
BBX 6 4 -4 13
BITMAP
90
48
48
24
ENDCHAR
STARTCHAR 0311
ENCODING 785
SWIDTH 0 0
DWIDTH 0 0
BBX 6 3 -3 13
BITMAP
78
84
84
ENDCHAR
STARTCHAR 0312
ENCODING 786
SWIDTH 0 0
DWIDTH 0 0
BBX 2 3 -1 12
BITMAP
40
80
C0
ENDCHAR
STARTCHAR 0313
ENCODING 787
SWIDTH 0 0
DWIDTH 0 0
BBX 2 4 -1 12
BITMAP
C0
40
40
80
ENDCHAR
STARTCHAR 0318
ENCODING 792
SWIDTH 0 0
DWIDTH 0 0
BBX 4 4 -2 -5
BITMAP
10
10
F0
10
ENDCHAR
STARTCHAR 0319
ENCODING 793
SWIDTH 0 0
DWIDTH 0 0
BBX 4 4 -2 -5
BITMAP
80
80
F0
80
ENDCHAR
STARTCHAR 031A
ENCODING 794
SWIDTH 0 0
DWIDTH 0 0
BBX 4 3 -2 13
BITMAP
F0
10
10
ENDCHAR
STARTCHAR 031B
ENCODING 795
SWIDTH 0 0
DWIDTH 0 0
BBX 3 4 0 10
BITMAP
20
20
20
C0
ENDCHAR
STARTCHAR 031C
ENCODING 796
SWIDTH 0 0
DWIDTH 0 0
BBX 2 4 -1 -5
BITMAP
C0
80
80
40
ENDCHAR
STARTCHAR 031D
ENCODING 797
SWIDTH 0 0
DWIDTH 0 0
BBX 4 3 -2 -5
BITMAP
40
40
F0
ENDCHAR
STARTCHAR 031E
ENCODING 798
SWIDTH 0 0
DWIDTH 0 0
BBX 4 3 -2 -5
BITMAP
F0
40
40
ENDCHAR
STARTCHAR 031F
ENCODING 799
SWIDTH 0 0
DWIDTH 0 0
BBX 4 3 -2 -4
BITMAP
40
F0
40
ENDCHAR
STARTCHAR 0320
ENCODING 800
SWIDTH 0 0
DWIDTH 0 0
BBX 4 1 -2 -4
BITMAP
F0
ENDCHAR
STARTCHAR 0323
ENCODING 803
SWIDTH 0 0
DWIDTH 0 0
BBX 2 2 -1 -4
BITMAP
C0
C0
ENDCHAR
STARTCHAR 0324
ENCODING 804
SWIDTH 0 0
DWIDTH 0 0
BBX 6 2 -3 -4
BITMAP
08
CC
ENDCHAR
STARTCHAR 0325
ENCODING 805
SWIDTH 0 0
DWIDTH 0 0
BBX 4 5 -2 -6
BITMAP
60
90
90
90
60
ENDCHAR
STARTCHAR 0326
ENCODING 806
SWIDTH 0 0
DWIDTH 0 0
BBX 3 3 -2 -4
BITMAP
60
20
E0
ENDCHAR
STARTCHAR 0327
ENCODING 807
SWIDTH 0 0
DWIDTH 0 0
BBX 3 4 -2 -4
BITMAP
40
20
20
E0
ENDCHAR
STARTCHAR 0328
ENCODING 808
SWIDTH 0 0
DWIDTH 0 0
BBX 3 5 -1 -5
BITMAP
40
80
80
80
60
ENDCHAR
STARTCHAR 0329
ENCODING 809
SWIDTH 0 0
DWIDTH 0 0
BBX 1 4 -1 -6
BITMAP
80
80
80
80
ENDCHAR
STARTCHAR 032A
ENCODING 810
SWIDTH 0 0
DWIDTH 0 0
BBX 6 3 -3 -5
BITMAP
FC
84
84
ENDCHAR
STARTCHAR 032C
ENCODING 812
SWIDTH 0 0
DWIDTH 0 0
BBX 6 4 -3 -5
BITMAP
84
88
48
30
ENDCHAR
STARTCHAR 032E
ENCODING 814
SWIDTH 0 0
DWIDTH 0 0
BBX 6 3 -3 -5
BITMAP
84
84
78
ENDCHAR
STARTCHAR 032F
ENCODING 815
SWIDTH 0 0
DWIDTH 0 0
BBX 6 3 -3 -5
BITMAP
78
84
84
ENDCHAR
STARTCHAR 0330
ENCODING 816
SWIDTH 0 0
DWIDTH 0 0
BBX 8 3 -4 -5
BITMAP
71
9A
8E
ENDCHAR
STARTCHAR 0331
ENCODING 817
SWIDTH 0 0
DWIDTH 0 0
BBX 6 1 -3 -4
BITMAP
FC
ENDCHAR
STARTCHAR 0334
ENCODING 820
SWIDTH 0 0
DWIDTH 0 0
BBX 8 3 -4 4
BITMAP
71
8A
86
ENDCHAR
STARTCHAR 0339
ENCODING 825
SWIDTH 0 0
DWIDTH 0 0
BBX 2 4 -1 -5
BITMAP
C0
40
40
80
ENDCHAR
STARTCHAR 033A
ENCODING 826
SWIDTH 0 0
DWIDTH 0 0
BBX 6 3 -3 -5
BITMAP
84
84
FC
ENDCHAR
STARTCHAR 033B
ENCODING 827
SWIDTH 0 0
DWIDTH 0 0
BBX 6 3 -3 -5
BITMAP
FC
84
FC
ENDCHAR
STARTCHAR 033C
ENCODING 828
SWIDTH 0 0
DWIDTH 0 0
BBX 6 3 -3 -5
BITMAP
FC
B4
A4
ENDCHAR
STARTCHAR 033D
ENCODING 829
SWIDTH 0 0
DWIDTH 0 0
BBX 4 3 -2 13
BITMAP
90
60
60
ENDCHAR
STARTCHAR 0342
ENCODING 834
SWIDTH 0 0
DWIDTH 0 0
BBX 8 3 -4 13
BITMAP
61
92
8E
ENDCHAR
STARTCHAR 0345
ENCODING 837
SWIDTH 0 0
DWIDTH 0 0
BBX 2 2 0 -3
BITMAP
80
C0
ENDCHAR
STARTCHAR 0361
ENCODING 865
SWIDTH 0 0
DWIDTH 0 0
BBX 20 4 -10 12
BITMAP
01F800
1E0780
600060
800010
ENDCHAR
STARTCHAR 0374
ENCODING 884
SWIDTH 225 0
DWIDTH 5 0
BBX 1 5 2 11
BITMAP
80
80
80
80
80
ENDCHAR
STARTCHAR 0375
ENCODING 885
SWIDTH 225 0
DWIDTH 5 0
BBX 1 5 2 0
BITMAP
80
80
80
80
80
ENDCHAR
STARTCHAR 037A
ENCODING 890
SWIDTH 540 0
DWIDTH 12 0
BBX 2 3 6 -4
BITMAP
80
80
C0
ENDCHAR
STARTCHAR 037E
ENCODING 894
SWIDTH 225 0
DWIDTH 5 0
BBX 3 13 1 -3
BITMAP
40
40
00
00
00
00
00
00
40
60
20
40
C0
ENDCHAR
STARTCHAR 0384
ENCODING 900
SWIDTH 540 0
DWIDTH 12 0
BBX 2 4 6 13
BITMAP
C0
80
80
80
ENDCHAR
STARTCHAR 0385
ENCODING 901
SWIDTH 540 0
DWIDTH 12 0
BBX 6 4 3 13
BITMAP
10
10
D4
20
ENDCHAR
STARTCHAR 0386
ENCODING 902
SWIDTH 540 0
DWIDTH 12 0
BBX 11 15 0 0
BITMAP
4600
4600
8A00
8900
0900
0900
1080
1080
1080
3FC0
2040
6040
4020
4020
8020
ENDCHAR
STARTCHAR 0387
ENCODING 903
SWIDTH 225 0
DWIDTH 5 0
BBX 1 2 2 8
BITMAP
80
80
ENDCHAR
STARTCHAR 0388
ENCODING 904
SWIDTH 540 0
DWIDTH 12 0
BBX 12 15 -1 0
BITMAP
4FF0
4800
4800
8800
0800
0800
0800
0FE0
0800
0800
0800
0800
0800
0800
0FF0
ENDCHAR
STARTCHAR 0389
ENCODING 905
SWIDTH 675 0
DWIDTH 15 0
BBX 14 15 -1 0
BITMAP
4804
4804
4804
8804
0804
0804
0804
0FFC
0804
0804
0804
0804
0804
0804
0804
ENDCHAR
STARTCHAR 038A
ENCODING 906
SWIDTH 270 0
DWIDTH 6 0
BBX 5 15 -1 0
BITMAP
48
48
48
88
08
08
08
08
08
08
08
08
08
08
08
ENDCHAR
STARTCHAR 038C
ENCODING 908
SWIDTH 675 0
DWIDTH 15 0
BBX 15 15 -1 0
BITMAP
43E0
4418
4808
9804
1004
1006
1002
1002
1002
1006
1004
1804
0808
0418
03E0
ENDCHAR
STARTCHAR 038E
ENCODING 910
SWIDTH 540 0
DWIDTH 12 0
BBX 13 15 -1 0
BITMAP
5008
4810
4810
8420
0420
0240
0240
0180
0180
0180
0180
0180
0180
0180
0180
ENDCHAR
STARTCHAR 038F
ENCODING 911
SWIDTH 675 0
DWIDTH 15 0
BBX 15 15 -1 0
BITMAP
43E0
4618
4808
9804
1004
1002
1002
1002
1002
1006
1004
0804
0808
0410
3E3E
ENDCHAR
STARTCHAR 0390
ENCODING 912
SWIDTH 225 0
DWIDTH 5 0
BBX 6 17 0 0
BITMAP
10
20
AC
20
00
00
20
20
20
20
20
20
20
20
20
20
30
ENDCHAR
STARTCHAR 0391
ENCODING 913
SWIDTH 540 0
DWIDTH 12 0
BBX 11 15 0 0
BITMAP
0600
0600
0A00
0900
0900
1100
1080
1080
2080
3FC0
2040
4040
4020
4020
8020
ENDCHAR
STARTCHAR 0392
ENCODING 914
SWIDTH 585 0
DWIDTH 13 0
BBX 10 15 2 0
BITMAP
FE00
8100
8080
8080
8080
8080
8300
FE00
8180
80C0
8040
8040
80C0
8180
FE00
ENDCHAR
STARTCHAR 0393
ENCODING 915
SWIDTH 495 0
DWIDTH 11 0
BBX 8 15 2 0
BITMAP
FF
80
80
80
80
80
80
80
80
80
80
80
80
80
80
ENDCHAR
STARTCHAR 0394
ENCODING 916
SWIDTH 540 0
DWIDTH 12 0
BBX 11 15 1 0
BITMAP
0C00
0C00
0A00
1200
1200
1100
2100
2100
2080
4080
4080
4040
8040
8040
FFE0
ENDCHAR
STARTCHAR 0395
ENCODING 917
SWIDTH 495 0
DWIDTH 11 0
BBX 8 15 2 0
BITMAP
FF
80
80
80
80
80
80
FE
80
80
80
80
80
80
FF
ENDCHAR
STARTCHAR 0396
ENCODING 918
SWIDTH 540 0
DWIDTH 12 0
BBX 10 15 1 0
BITMAP
7FC0
0080
0080
0100
0200
0200
0400
0C00
0800
1000
1000
2000
4000
4000
FFC0
ENDCHAR
STARTCHAR 0397
ENCODING 919
SWIDTH 630 0
DWIDTH 14 0
BBX 10 15 2 0
BITMAP
8040
8040
8040
8040
8040
8040
8040
FFC0
8040
8040
8040
8040
8040
8040
8040
ENDCHAR
STARTCHAR 0398
ENCODING 920
SWIDTH 630 0
DWIDTH 14 0
BBX 12 15 1 0
BITMAP
0F80
30C0
2020
4020
4010
C010
8010
8F90
8010
8010
4010
4030
6020
3040
0F80
ENDCHAR
STARTCHAR 0399
ENCODING 921
SWIDTH 225 0
DWIDTH 5 0
BBX 1 15 2 0
BITMAP
80
80
80
80
80
80
80
80
80
80
80
80
80
80
80
ENDCHAR
STARTCHAR 039A
ENCODING 922
SWIDTH 540 0
DWIDTH 12 0
BBX 10 15 2 0
BITMAP
8080
8100
8200
8600
8C00
8800
9800
A400
C600
8200
8300
8100
8080
8080
8040
ENDCHAR
STARTCHAR 039B
ENCODING 923
SWIDTH 495 0
DWIDTH 11 0
BBX 11 15 0 0
BITMAP
0400
0C00
0A00
0A00
1200
1100
1100
2100
2080
2080
2080
4040
4040
4040
8020
ENDCHAR
STARTCHAR 039C
ENCODING 924
SWIDTH 720 0
DWIDTH 16 0
BBX 12 15 2 0
BITMAP
C030
C050
C050
A050
A090
9090
9090
9110
8910
8910
8A10
8610
8610
8010
8010
ENDCHAR
STARTCHAR 039D
ENCODING 925
SWIDTH 630 0
DWIDTH 14 0
BBX 10 15 2 0
BITMAP
C040
C040
A040
A040
9040
9040
8840
8440
8440
8240
8240
8140
8140
80C0
8040
ENDCHAR
STARTCHAR 039E
ENCODING 926
SWIDTH 495 0
DWIDTH 11 0
BBX 9 15 1 0
BITMAP
FF80
0000
0000
0000
0000
0000
0000
3F00
0000
0000
0000
0000
0000
0000
FF80
ENDCHAR
STARTCHAR 039F
ENCODING 927
SWIDTH 630 0
DWIDTH 14 0
BBX 12 15 1 0
BITMAP
0F80
30C0
2020
4030
4010
8010
8010
8010
8010
8010
4010
4020
2020
30C0
0F80
ENDCHAR
STARTCHAR 03A0
ENCODING 928
SWIDTH 630 0
DWIDTH 14 0
BBX 10 15 2 0
BITMAP
FFC0
8040
8040
8040
8040
8040
8040
8040
8040
8040
8040
8040
8040
8040
8040
ENDCHAR
STARTCHAR 03A1
ENCODING 929
SWIDTH 540 0
DWIDTH 12 0
BBX 9 15 2 0
BITMAP
FE00
8100
8080
8080
8080
8080
8080
8300
FC00
8000
8000
8000
8000
8000
8000
ENDCHAR
STARTCHAR 03A3
ENCODING 931
SWIDTH 540 0
DWIDTH 12 0
BBX 10 15 1 0
BITMAP
FF80
4000
2000
2000
1000
0800
0400
0400
0400
0800
1000
2000
6000
4000
FFC0
ENDCHAR
STARTCHAR 03A4
ENCODING 932
SWIDTH 540 0
DWIDTH 12 0
BBX 10 15 1 0
BITMAP
FFC0
0800
0800
0800
0800
0800
0800
0800
0800
0800
0800
0800
0800
0800
0800
ENDCHAR
STARTCHAR 03A5
ENCODING 933
SWIDTH 450 0
DWIDTH 10 0
BBX 10 15 0 0
BITMAP
8040
4080
4080
2100
2100
1200
1200
0C00
0C00
0800
0800
0800
0800
0800
0800
ENDCHAR
STARTCHAR 03A6
ENCODING 934
SWIDTH 675 0
DWIDTH 15 0
BBX 13 15 1 0
BITMAP
0200
0200
1FC0
2230
4218
C208
8208
8208
8208
C208
4210
2230
1FC0
0200
0200
ENDCHAR
STARTCHAR 03A7
ENCODING 935
SWIDTH 495 0
DWIDTH 11 0
BBX 9 15 1 0
BITMAP
8080
4100
4100
2200
2400
1400
1800
0800
1400
2400
2200
4200
4100
8100
8080
ENDCHAR
STARTCHAR 03A8
ENCODING 936
SWIDTH 675 0
DWIDTH 15 0
BBX 11 15 2 0
BITMAP
8420
8420
8420
8420
8420
8420
8420
4440
3F80
0400
0400
0400
0400
0400
0400
ENDCHAR
STARTCHAR 03A9
ENCODING 937
SWIDTH 675 0
DWIDTH 15 0
BBX 13 15 1 0
BITMAP
0F80
3040
2020
4030
4010
C010
8010
8010
8010
4010
4010
4020
2020
1040
F8F8
ENDCHAR
STARTCHAR 03AA
ENCODING 938
SWIDTH 225 0
DWIDTH 5 0
BBX 6 18 0 0
BITMAP
8C
88
00
20
20
20
20
20
20
20
20
20
20
20
20
20
20
20
ENDCHAR
STARTCHAR 03AB
ENCODING 939
SWIDTH 450 0
DWIDTH 10 0
BBX 10 18 0 0
BITMAP
3300
2100
0000
8040
4080
4080
2100
2100
1200
1200
0C00
0C00
0800
0800
0800
0800
0800
0800
ENDCHAR
STARTCHAR 03AC
ENCODING 940
SWIDTH 540 0
DWIDTH 12 0
BBX 10 17 1 0
BITMAP
0200
0400
0400
0400
0000
0000
1E40
2140
4180
C080
8080
8080
8080
8080
4180
4280
3CC0
ENDCHAR
STARTCHAR 03AD
ENCODING 941
SWIDTH 450 0
DWIDTH 10 0
BBX 8 17 1 0
BITMAP
04
04
08
08
08
00
3E
41
40
40
60
3C
40
80
80
41
3E
ENDCHAR
STARTCHAR 03AE
ENCODING 942
SWIDTH 540 0
DWIDTH 12 0
BBX 8 21 2 -4
BITMAP
04
0C
08
08
08
00
9E
A2
C1
81
81
81
81
81
81
81
81
01
01
01
01
ENDCHAR
STARTCHAR 03AF
ENCODING 943
SWIDTH 225 0
DWIDTH 5 0
BBX 2 17 2 0
BITMAP
40
40
80
80
00
00
80
80
80
80
80
80
80
80
80
80
C0
ENDCHAR
STARTCHAR 03B0
ENCODING 944
SWIDTH 495 0
DWIDTH 11 0
BBX 8 17 2 0
BITMAP
10
10
D4
20
00
00
82
82
82
81
81
81
81
82
82
86
78
ENDCHAR
STARTCHAR 03B1
ENCODING 945
SWIDTH 540 0
DWIDTH 12 0
BBX 10 11 1 0
BITMAP
1E40
2140
4180
C080
8080
8080
8080
8080
4180
4280
3CC0
ENDCHAR
STARTCHAR 03B2
ENCODING 946
SWIDTH 540 0
DWIDTH 12 0
BBX 9 20 2 -4
BITMAP
3C00
4200
8200
8100
8200
8200
8400
9C00
8300
8180
8080
8080
8080
8080
C100
BE00
8000
8000
8000
8000
ENDCHAR
STARTCHAR 03B3
ENCODING 947
SWIDTH 450 0
DWIDTH 10 0
BBX 10 15 0 -4
BITMAP
C040
4080
2080
2080
1080
1100
1100
0A00
0A00
0C00
0C00
0800
0800
0800
0800
ENDCHAR
STARTCHAR 03B4
ENCODING 948
SWIDTH 540 0
DWIDTH 12 0
BBX 9 16 1 0
BITMAP
1F00
2080
2000
2000
1000
0800
0E00
3100
4080
4080
8080
8080
8080
4080
2100
1E00
ENDCHAR
STARTCHAR 03B5
ENCODING 949
SWIDTH 450 0
DWIDTH 10 0
BBX 8 11 1 0
BITMAP
3E
41
40
40
60
3C
40
80
80
41
3E
ENDCHAR
STARTCHAR 03B6
ENCODING 950
SWIDTH 405 0
DWIDTH 9 0
BBX 8 20 1 -4
BITMAP
7F
02
04
08
10
20
20
40
40
80
80
80
80
40
60
3C
03
01
01
02
ENDCHAR
STARTCHAR 03B7
ENCODING 951
SWIDTH 540 0
DWIDTH 12 0
BBX 8 15 2 -4
BITMAP
9E
A2
C1
81
81
81
81
81
81
81
81
01
01
01
01
ENDCHAR
STARTCHAR 03B8
ENCODING 952
SWIDTH 495 0
DWIDTH 11 0
BBX 9 16 1 0
BITMAP
1C00
2200
4100
4100
4180
4080
8080
FF80
8080
4080
4080
4100
4100
4100
2200
1C00
ENDCHAR
STARTCHAR 03B9
ENCODING 953
SWIDTH 225 0
DWIDTH 5 0
BBX 2 11 2 0
BITMAP
80
80
80
80
80
80
80
80
80
80
C0
ENDCHAR
STARTCHAR 03BA
ENCODING 954
SWIDTH 450 0
DWIDTH 10 0
BBX 8 11 2 0
BITMAP
81
86
88
90
90
B0
C8
84
84
82
81
ENDCHAR
STARTCHAR 03BB
ENCODING 955
SWIDTH 450 0
DWIDTH 10 0
BBX 10 16 0 0
BITMAP
F000
1800
0800
0800
0400
0400
0A00
0A00
0A00
1100
1100
2100
2080
4080
4080
4040
ENDCHAR
STARTCHAR 03BC
ENCODING 956
SWIDTH 540 0
DWIDTH 12 0
BBX 9 15 2 -4
BITMAP
8100
8100
8100
8100
8100
8100
8100
8100
8300
C500
B980
8000
8000
8000
8000
ENDCHAR
STARTCHAR 03BD
ENCODING 957
SWIDTH 450 0
DWIDTH 10 0
BBX 9 11 0 0
BITMAP
8080
4080
6080
2080
2100
1100
1100
1200
0A00
0C00
0C00
ENDCHAR
STARTCHAR 03BE
ENCODING 958
SWIDTH 405 0
DWIDTH 9 0
BBX 8 20 1 -4
BITMAP
FF
20
20
40
40
20
30
1E
20
40
80
80
80
C0
60
3C
03
01
01
02
ENDCHAR
STARTCHAR 03BF
ENCODING 959
SWIDTH 540 0
DWIDTH 12 0
BBX 9 11 1 0
BITMAP
1E00
6100
4080
8080
8080
8080
8080
8080
4080
6100
1E00
ENDCHAR
STARTCHAR 03C0
ENCODING 960
SWIDTH 540 0
DWIDTH 12 0
BBX 11 11 1 0
BITMAP
FFE0
2080
2080
2100
2100
2100
2100
2100
2100
2100
40C0
ENDCHAR
STARTCHAR 03C1
ENCODING 961
SWIDTH 540 0
DWIDTH 12 0
BBX 9 15 2 -4
BITMAP
3E00
4300
C100
8080
8080
8080
8080
8180
8100
C200
BC00
8000
8000
8000
8000
ENDCHAR
STARTCHAR 03C2
ENCODING 962
SWIDTH 405 0
DWIDTH 9 0
BBX 7 15 1 -4
BITMAP
1E
62
40
80
80
80
80
C0
40
30
0C
02
02
04
04
ENDCHAR
STARTCHAR 03C3
ENCODING 963
SWIDTH 540 0
DWIDTH 12 0
BBX 11 11 1 0
BITMAP
1FE0
6100
4080
8080
8080
8080
8080
8080
4080
6100
1E00
ENDCHAR
STARTCHAR 03C4
ENCODING 964
SWIDTH 450 0
DWIDTH 10 0
BBX 8 11 1 0
BITMAP
FF
10
10
10
10
10
10
10
10
10
0C
ENDCHAR
STARTCHAR 03C5
ENCODING 965
SWIDTH 495 0
DWIDTH 11 0
BBX 8 11 2 0
BITMAP
82
82
82
81
81
81
81
82
82
86
78
ENDCHAR
STARTCHAR 03C6
ENCODING 966
SWIDTH 630 0
DWIDTH 14 0
BBX 12 18 1 -4
BITMAP
0200
0200
0200
1F80
2260
4220
C210
8210
8210
8210
C210
4220
2260
1F80
0200
0200
0200
0200
ENDCHAR
STARTCHAR 03C7
ENCODING 967
SWIDTH 450 0
DWIDTH 10 0
BBX 10 15 0 -4
BITMAP
C080
4080
2100
2100
1200
1E00
0C00
0C00
0C00
1200
1200
2100
2080
4080
C040
ENDCHAR
STARTCHAR 03C8
ENCODING 968
SWIDTH 630 0
DWIDTH 14 0
BBX 11 18 2 -4
BITMAP
0400
0400
0400
8440
8420
8420
8420
8420
8420
8420
8420
8440
44C0
3F00
0400
0400
0400
0400
ENDCHAR
STARTCHAR 03C9
ENCODING 969
SWIDTH 675 0
DWIDTH 15 0
BBX 13 11 1 0
BITMAP
2020
6030
4010
4010
8208
8208
8208
8208
4210
4510
38E0
ENDCHAR
STARTCHAR 03CA
ENCODING 970
SWIDTH 225 0
DWIDTH 5 0
BBX 5 15 0 0
BITMAP
88
88
00
00
20
20
20
20
20
20
20
20
20
20
30
ENDCHAR
STARTCHAR 03CB
ENCODING 971
SWIDTH 495 0
DWIDTH 11 0
BBX 8 15 2 0
BITMAP
CC
44
00
00
82
82
82
81
81
81
81
82
82
86
78
ENDCHAR
STARTCHAR 03CC
ENCODING 972
SWIDTH 540 0
DWIDTH 12 0
BBX 9 17 1 0
BITMAP
0400
0400
0400
0800
0000
0000
1E00
6100
4080
8080
8080
8080
8080
8080
4080
6100
1E00
ENDCHAR
STARTCHAR 03CD
ENCODING 973
SWIDTH 495 0
DWIDTH 11 0
BBX 8 17 2 0
BITMAP
08
10
10
10
00
00
82
82
82
81
81
81
81
82
82
86
78
ENDCHAR
STARTCHAR 03CE
ENCODING 974
SWIDTH 675 0
DWIDTH 15 0
BBX 13 17 1 0
BITMAP
0100
0100
0200
0200
0000
0000
2020
6030
4010
4010
8208
8208
8208
8208
4210
4510
38E0
ENDCHAR
STARTCHAR 03D0
ENCODING 976
SWIDTH 540 0
DWIDTH 12 0
BBX 9 16 2 0
BITMAP
3C00
4200
8200
8200
8200
8200
8400
BC00
C300
8100
8080
8080
8080
C180
6100
3E00
ENDCHAR
STARTCHAR 03D1
ENCODING 977
SWIDTH 495 0
DWIDTH 11 0
BBX 8 16 2 0
BITMAP
78
C4
82
82
81
81
41
3F
01
81
81
82
82
82
44
38
ENDCHAR
STARTCHAR 03D5
ENCODING 981
SWIDTH 630 0
DWIDTH 14 0
BBX 12 15 1 -4
BITMAP
21C0
6220
4210
8210
8210
8210
8210
8210
4220
2240
1F80
0200
0200
0200
0200
ENDCHAR
STARTCHAR 03D7
ENCODING 983
SWIDTH 450 0
DWIDTH 10 0
BBX 8 15 2 -4
BITMAP
81
86
88
90
90
B0
C8
84
84
82
81
01
02
06
04
ENDCHAR
STARTCHAR 03D9
ENCODING 985
SWIDTH 540 0
DWIDTH 12 0
BBX 9 15 1 -4
BITMAP
1E00
6100
4080
8080
8080
8080
8080
8080
4080
6100
1E00
0800
0800
0800
0800
ENDCHAR
STARTCHAR 03DB
ENCODING 987
SWIDTH 450 0
DWIDTH 10 0
BBX 8 15 1 -4
BITMAP
1F
60
40
80
80
80
80
C0
40
30
0E
03
01
02
02
ENDCHAR
STARTCHAR 03DD
ENCODING 989
SWIDTH 405 0
DWIDTH 9 0
BBX 6 15 2 -4
BITMAP
FC
80
80
80
80
80
80
FC
80
80
80
80
80
80
80
ENDCHAR
STARTCHAR 03E1
ENCODING 993
SWIDTH 495 0
DWIDTH 11 0
BBX 10 19 0 -4
BITMAP
6000
1000
0800
0400
0200
0200
0100
0700
1880
E080
0080
0340
0C40
3040
0040
0040
0040
0040
0040
ENDCHAR
STARTCHAR 0400
ENCODING 1024
SWIDTH 495 0
DWIDTH 11 0
BBX 8 19 2 0
BITMAP
20
10
08
00
FF
80
80
80
80
80
80
FE
80
80
80
80
80
80
FF
ENDCHAR
STARTCHAR 0401
ENCODING 1025
SWIDTH 495 0
DWIDTH 11 0
BBX 8 18 2 0
BITMAP
62
22
00
FF
80
80
80
80
80
80
FE
80
80
80
80
80
80
FF
ENDCHAR
STARTCHAR 0402
ENCODING 1026
SWIDTH 675 0
DWIDTH 15 0
BBX 13 15 1 0
BITMAP
FFC0
0800
0800
0800
0800
0800
0FC0
0830
0810
0808
0808
0808
0818
0810
08E0
ENDCHAR
STARTCHAR 0403
ENCODING 1027
SWIDTH 495 0
DWIDTH 11 0
BBX 8 19 2 0
BITMAP
06
0C
10
00
FF
80
80
80
80
80
80
80
80
80
80
80
80
80
80
ENDCHAR
STARTCHAR 0404
ENCODING 1028
SWIDTH 585 0
DWIDTH 13 0
BBX 10 15 1 0
BITMAP
0F80
30C0
2000
4000
4000
8000
8000
FF00
8000
8000
4000
4000
6000
3040
0F80
ENDCHAR
STARTCHAR 0405
ENCODING 1029
SWIDTH 540 0
DWIDTH 12 0
BBX 10 15 1 0
BITMAP
1E00
2180
4000
4000
4000
6000
3800
0600
0180
0080
0040
0040
8080
4180
3E00
ENDCHAR
STARTCHAR 0406
ENCODING 1030
SWIDTH 225 0
DWIDTH 5 0
BBX 1 15 2 0
BITMAP
80
80
80
80
80
80
80
80
80
80
80
80
80
80
80
ENDCHAR
STARTCHAR 0407
ENCODING 1031
SWIDTH 225 0
DWIDTH 5 0
BBX 6 18 0 0
BITMAP
8C
88
00
20
20
20
20
20
20
20
20
20
20
20
20
20
20
20
ENDCHAR
STARTCHAR 0408
ENCODING 1032
SWIDTH 450 0
DWIDTH 10 0
BBX 7 15 1 0
BITMAP
02
02
02
02
02
02
02
02
02
02
02
02
82
C4
7C
ENDCHAR
STARTCHAR 0409
ENCODING 1033
SWIDTH 900 0
DWIDTH 20 0
BBX 19 15 0 0
BITMAP
07E000
042000
082000
082000
082000
082000
083F00
0820C0
102040
102020
102020
102020
302040
2020C0
E03F00
ENDCHAR
STARTCHAR 040A
ENCODING 1034
SWIDTH 945 0
DWIDTH 21 0
BBX 17 15 2 0
BITMAP
804000
804000
804000
804000
804000
804000
807E00
FFC100
804080
804080
804080
804080
804080
804180
807E00
ENDCHAR
STARTCHAR 040B
ENCODING 1035
SWIDTH 675 0
DWIDTH 15 0
BBX 13 15 1 0
BITMAP
FFC0
0800
0800
0800
0800
0800
0FC0
0830
0810
0808
0808
0808
0808
0808
0808
ENDCHAR
STARTCHAR 040C
ENCODING 1036
SWIDTH 540 0
DWIDTH 12 0
BBX 10 19 2 0
BITMAP
0200
0400
0800
0000
80C0
8100
8100
8200
8200
8400
8C00
F800
8400
8400
8200
8100
8180
8080
8040
ENDCHAR
STARTCHAR 040D
ENCODING 1037
SWIDTH 630 0
DWIDTH 14 0
BBX 10 19 2 0
BITMAP
1000
0800
0400
0000
8040
80C0
80C0
8140
8240
8240
8440
8440
8840
9040
9040
A040
A040
C040
C040
ENDCHAR
STARTCHAR 040E
ENCODING 1038
SWIDTH 495 0
DWIDTH 11 0
BBX 11 19 0 0
BITMAP
2100
1100
1E00
0000
8020
4040
4040
2080
2080
1080
1100
1100
0A00
0A00
0600
0400
0400
0800
3000
ENDCHAR
STARTCHAR 040F
ENCODING 1039
SWIDTH 630 0
DWIDTH 14 0
BBX 10 19 2 -4
BITMAP
8040
8040
8040
8040
8040
8040
8040
8040
8040
8040
8040
8040
8040
8040
FFC0
0400
0400
0400
0400
ENDCHAR
STARTCHAR 0410
ENCODING 1040
SWIDTH 540 0
DWIDTH 12 0
BBX 11 15 0 0
BITMAP
0600
0600
0A00
0900
0900
1100
1080
1080
2080
3FC0
2040
4040
4020
4020
8020
ENDCHAR
STARTCHAR 0411
ENCODING 1041
SWIDTH 585 0
DWIDTH 13 0
BBX 10 15 2 0
BITMAP
FF80
8000
8000
8000
8000
8000
8000
FE00
8180
8080
8040
8040
8080
8180
FE00
ENDCHAR
STARTCHAR 0412
ENCODING 1042
SWIDTH 585 0
DWIDTH 13 0
BBX 10 15 2 0
BITMAP
FE00
8100
8080
8080
8080
8080
8300
FE00
8180
80C0
8040
8040
80C0
8180
FE00
ENDCHAR
STARTCHAR 0413
ENCODING 1043
SWIDTH 495 0
DWIDTH 11 0
BBX 8 15 2 0
BITMAP
FF
80
80
80
80
80
80
80
80
80
80
80
80
80
80
ENDCHAR
STARTCHAR 0414
ENCODING 1044
SWIDTH 630 0
DWIDTH 14 0
BBX 12 19 1 -4
BITMAP
0FC0
0840
1040
1040
1040
1040
1040
1040
2040
2040
2040
2040
4040
4040
FFF0
8010
8010
8010
8010
ENDCHAR
STARTCHAR 0415
ENCODING 1045
SWIDTH 495 0
DWIDTH 11 0
BBX 8 15 2 0
BITMAP
FF
80
80
80
80
80
80
FE
80
80
80
80
80
80
FF
ENDCHAR
STARTCHAR 0416
ENCODING 1046
SWIDTH 765 0
DWIDTH 17 0
BBX 17 15 0 0
BITMAP
C08180
208200
108400
108400
088800
088800
088800
07F000
088800
088C00
108400
208200
208200
408100
C08180
ENDCHAR
STARTCHAR 0417
ENCODING 1047
SWIDTH 540 0
DWIDTH 12 0
BBX 10 15 1 0
BITMAP
1E00
6180
0080
0080
0080
0080
0100
1E00
0180
0040
0040
0040
8040
4080
3F00
ENDCHAR
STARTCHAR 0418
ENCODING 1048
SWIDTH 630 0
DWIDTH 14 0
BBX 10 15 2 0
BITMAP
8040
80C0
80C0
8140
8240
8240
8440
8440
8840
9040
9040
A040
A040
C040
C040
ENDCHAR
STARTCHAR 0419
ENCODING 1049
SWIDTH 630 0
DWIDTH 14 0
BBX 10 19 2 0
BITMAP
2100
1100
1E00
0000
8040
80C0
80C0
8140
8240
8240
8440
8440
8840
9040
9040
A040
A040
C040
C040
ENDCHAR
STARTCHAR 041A
ENCODING 1050
SWIDTH 540 0
DWIDTH 12 0
BBX 10 15 2 0
BITMAP
80C0
8100
8100
8200
8200
8400
8C00
F800
8400
8400
8200
8100
8180
8080
8040
ENDCHAR
STARTCHAR 041B
ENCODING 1051
SWIDTH 630 0
DWIDTH 14 0
BBX 11 15 0 0
BITMAP
07E0
0420
0820
0820
0820
0820
0820
0820
1020
1020
1020
1020
3020
2020
C020
ENDCHAR
STARTCHAR 041C
ENCODING 1052
SWIDTH 720 0
DWIDTH 16 0
BBX 12 15 2 0
BITMAP
C030
C050
C050
A050
A090
9090
9090
9110
8910
8910
8A10
8610
8610
8010
8010
ENDCHAR
STARTCHAR 041D
ENCODING 1053
SWIDTH 630 0
DWIDTH 14 0
BBX 10 15 2 0
BITMAP
8040
8040
8040
8040
8040
8040
8040
FFC0
8040
8040
8040
8040
8040
8040
8040
ENDCHAR
STARTCHAR 041E
ENCODING 1054
SWIDTH 630 0
DWIDTH 14 0
BBX 12 15 1 0
BITMAP
0F80
30C0
2020
4030
4010
8010
8010
8010
8010
8010
4010
4020
2020
30C0
0F80
ENDCHAR
STARTCHAR 041F
ENCODING 1055
SWIDTH 630 0
DWIDTH 14 0
BBX 10 15 2 0
BITMAP
FFC0
8040
8040
8040
8040
8040
8040
8040
8040
8040
8040
8040
8040
8040
8040
ENDCHAR
STARTCHAR 0420
ENCODING 1056
SWIDTH 540 0
DWIDTH 12 0
BBX 9 15 2 0
BITMAP
FE00
8100
8080
8080
8080
8080
8080
8300
FC00
8000
8000
8000
8000
8000
8000
ENDCHAR
STARTCHAR 0421
ENCODING 1057
SWIDTH 585 0
DWIDTH 13 0
BBX 10 15 1 0
BITMAP
0F80
3040
2000
4000
4000
8000
8000
8000
8000
8000
4000
4000
2000
3040
0F80
ENDCHAR
STARTCHAR 0422
ENCODING 1058
SWIDTH 540 0
DWIDTH 12 0
BBX 10 15 1 0
BITMAP
FFC0
0800
0800
0800
0800
0800
0800
0800
0800
0800
0800
0800
0800
0800
0800
ENDCHAR
STARTCHAR 0423
ENCODING 1059
SWIDTH 495 0
DWIDTH 11 0
BBX 11 15 0 0
BITMAP
8020
4040
4040
2080
2080
1080
1100
1100
0A00
0A00
0600
0400
0400
0800
3000
ENDCHAR
STARTCHAR 0424
ENCODING 1060
SWIDTH 720 0
DWIDTH 16 0
BBX 14 15 1 0
BITMAP
0200
0200
1FC0
2230
4208
8208
8204
8204
8204
C208
4208
3230
0FC0
0200
0200
ENDCHAR
STARTCHAR 0425
ENCODING 1061
SWIDTH 495 0
DWIDTH 11 0
BBX 9 15 1 0
BITMAP
8080
4100
4100
2200
2400
1400
1800
0800
1400
2400
2200
4200
4100
8100
8080
ENDCHAR
STARTCHAR 0426
ENCODING 1062
SWIDTH 630 0
DWIDTH 14 0
BBX 11 19 2 -4
BITMAP
8040
8040
8040
8040
8040
8040
8040
8040
8040
8040
8040
8040
8040
8040
FFE0
0020
0020
0020
0020
ENDCHAR
STARTCHAR 0427
ENCODING 1063
SWIDTH 585 0
DWIDTH 13 0
BBX 9 15 2 0
BITMAP
8080
8080
8080
8080
8080
8080
C080
3F80
0080
0080
0080
0080
0080
0080
0080
ENDCHAR
STARTCHAR 0428
ENCODING 1064
SWIDTH 855 0
DWIDTH 19 0
BBX 14 15 2 0
BITMAP
8104
8104
8104
8104
8104
8104
8104
8104
8104
8104
8104
8104
8104
8104
FFFC
ENDCHAR
STARTCHAR 0429
ENCODING 1065
SWIDTH 855 0
DWIDTH 19 0
BBX 16 19 2 -4
BITMAP
8104
8104
8104
8104
8104
8104
8104
8104
8104
8104
8104
8104
8104
8104
FFFF
0001
0001
0001
0001
ENDCHAR
STARTCHAR 042A
ENCODING 1066
SWIDTH 720 0
DWIDTH 16 0
BBX 14 15 1 0
BITMAP
FC00
0400
0400
0400
0400
0400
07E0
0418
0408
0404
0404
0404
0408
0418
07E0
ENDCHAR
STARTCHAR 042B
ENCODING 1067
SWIDTH 765 0
DWIDTH 17 0
BBX 13 15 2 0
BITMAP
8008
8008
8008
8008
8008
8008
FE08
8308
8088
8088
8088
8088
8088
8108
FE08
ENDCHAR
STARTCHAR 042C
ENCODING 1068
SWIDTH 585 0
DWIDTH 13 0
BBX 10 15 2 0
BITMAP
8000
8000
8000
8000
8000
8000
FE00
8180
8080
8080
8040
8080
8080
8180
FE00
ENDCHAR
STARTCHAR 042D
ENCODING 1069
SWIDTH 585 0
DWIDTH 13 0
BBX 10 15 1 0
BITMAP
3E00
4100
0080
00C0
0040
0040
0040
1FC0
0040
0040
0040
0040
8080
C100
3E00
ENDCHAR
STARTCHAR 042E
ENCODING 1070
SWIDTH 900 0
DWIDTH 20 0
BBX 16 15 2 0
BITMAP
80F8
8184
8202
8203
8401
8401
8401
FC01
8401
8401
8401
8201
8202
8104
80F8
ENDCHAR
STARTCHAR 042F
ENCODING 1071
SWIDTH 540 0
DWIDTH 12 0
BBX 9 15 1 0
BITMAP
3F80
4080
C080
8080
8080
4080
6080
3F80
0880
1080
3080
2080
4080
4080
8080
ENDCHAR
STARTCHAR 0430
ENCODING 1072
SWIDTH 495 0
DWIDTH 11 0
BBX 8 11 1 0
BITMAP
3E
43
01
01
03
3D
41
81
81
43
7D
ENDCHAR
STARTCHAR 0431
ENCODING 1073
SWIDTH 540 0
DWIDTH 12 0
BBX 10 16 1 0
BITMAP
0080
0F00
3000
6000
4000
4000
5E00
A180
C080
8040
8040
8040
4080
4080
2100
1E00
ENDCHAR
STARTCHAR 0432
ENCODING 1074
SWIDTH 495 0
DWIDTH 11 0
BBX 8 11 2 0
BITMAP
FC
82
81
81
82
FC
83
81
81
83
FE
ENDCHAR
STARTCHAR 0433
ENCODING 1075
SWIDTH 405 0
DWIDTH 9 0
BBX 6 11 2 0
BITMAP
FC
80
80
80
80
80
80
80
80
80
80
ENDCHAR
STARTCHAR 0434
ENCODING 1076
SWIDTH 495 0
DWIDTH 11 0
BBX 10 15 1 -4
BITMAP
3F00
2100
2100
2100
2100
4100
4100
4100
4100
4100
FFC0
8080
8080
8080
8000
ENDCHAR
STARTCHAR 0435
ENCODING 1077
SWIDTH 495 0
DWIDTH 11 0
BBX 9 11 1 0
BITMAP
1E00
2100
4100
8080
8080
FF80
8000
8000
4000
2000
1F00
ENDCHAR
STARTCHAR 0436
ENCODING 1078
SWIDTH 630 0
DWIDTH 14 0
BBX 12 11 1 0
BITMAP
8410
4420
2440
2440
2440
1F80
2440
4420
4420
8410
8410
ENDCHAR
STARTCHAR 0437
ENCODING 1079
SWIDTH 450 0
DWIDTH 10 0
BBX 8 11 1 0
BITMAP
7C
82
02
02
02
3C
02
01
01
82
7C
ENDCHAR
STARTCHAR 0438
ENCODING 1080
SWIDTH 540 0
DWIDTH 12 0
BBX 8 11 2 0
BITMAP
81
83
83
85
89
89
91
A1
A1
C1
81
ENDCHAR
STARTCHAR 0439
ENCODING 1081
SWIDTH 540 0
DWIDTH 12 0
BBX 8 16 2 0
BITMAP
42
42
3C
00
00
81
83
83
85
89
89
91
A1
A1
C1
81
ENDCHAR
STARTCHAR 043A
ENCODING 1082
SWIDTH 450 0
DWIDTH 10 0
BBX 8 11 2 0
BITMAP
83
84
84
88
88
F8
88
84
84
82
81
ENDCHAR
STARTCHAR 043B
ENCODING 1083
SWIDTH 495 0
DWIDTH 11 0
BBX 9 11 0 0
BITMAP
1F80
1080
1080
1080
1080
1080
1080
2080
2080
2080
C080
ENDCHAR
STARTCHAR 043C
ENCODING 1084
SWIDTH 630 0
DWIDTH 14 0
BBX 10 11 2 0
BITMAP
80C0
C0C0
C140
A140
A140
9240
9240
9440
8C40
8C40
8040
ENDCHAR
STARTCHAR 043D
ENCODING 1085
SWIDTH 540 0
DWIDTH 12 0
BBX 8 11 2 0
BITMAP
81
81
81
81
81
FF
81
81
81
81
81
ENDCHAR
STARTCHAR 043E
ENCODING 1086
SWIDTH 540 0
DWIDTH 12 0
BBX 10 11 1 0
BITMAP
1E00
2100
4080
C080
8040
8040
8040
8080
4080
2100
1E00
ENDCHAR
STARTCHAR 043F
ENCODING 1087
SWIDTH 540 0
DWIDTH 12 0
BBX 8 11 2 0
BITMAP
FF
81
81
81
81
81
81
81
81
81
81
ENDCHAR
STARTCHAR 0440
ENCODING 1088
SWIDTH 540 0
DWIDTH 12 0
BBX 9 16 2 -5
BITMAP
9E00
E100
8100
8080
8080
8080
8080
8080
8100
C300
BC00
8000
8000
8000
8000
8000
ENDCHAR
STARTCHAR 0441
ENCODING 1089
SWIDTH 450 0
DWIDTH 10 0
BBX 8 11 1 0
BITMAP
1E
21
40
C0
80
80
80
80
40
61
1E
ENDCHAR
STARTCHAR 0442
ENCODING 1090
SWIDTH 450 0
DWIDTH 10 0
BBX 8 11 1 0
BITMAP
FF
10
10
10
10
10
10
10
10
10
10
ENDCHAR
STARTCHAR 0443
ENCODING 1091
SWIDTH 450 0
DWIDTH 10 0
BBX 9 16 0 -5
BITMAP
C080
4080
4080
2100
2100
2100
1200
1200
1200
0C00
0C00
0800
0800
0800
1000
6000
ENDCHAR
STARTCHAR 0444
ENCODING 1092
SWIDTH 720 0
DWIDTH 16 0
BBX 14 21 1 -5
BITMAP
0200
0200
0200
0200
0200
3EF0
6318
4208
8208
820C
8204
8208
8208
4208
6310
3EE0
0200
0200
0200
0200
0200
ENDCHAR
STARTCHAR 0445
ENCODING 1093
SWIDTH 405 0
DWIDTH 9 0
BBX 7 11 1 0
BITMAP
82
44
44
28
28
10
28
48
44
82
82
ENDCHAR
STARTCHAR 0446
ENCODING 1094
SWIDTH 540 0
DWIDTH 12 0
BBX 9 15 2 -4
BITMAP
8100
8100
8100
8100
8100
8100
8100
8100
8100
8100
FF80
0080
0080
0080
0080
ENDCHAR
STARTCHAR 0447
ENCODING 1095
SWIDTH 495 0
DWIDTH 11 0
BBX 8 11 1 0
BITMAP
81
81
81
81
41
41
3F
01
01
01
01
ENDCHAR
STARTCHAR 0448
ENCODING 1096
SWIDTH 720 0
DWIDTH 16 0
BBX 12 11 2 0
BITMAP
8410
8410
8410
8410
8410
8410
8410
8410
8410
8410
FFF0
ENDCHAR
STARTCHAR 0449
ENCODING 1097
SWIDTH 720 0
DWIDTH 16 0
BBX 13 15 2 -4
BITMAP
8410
8410
8410
8410
8410
8410
8410
8410
8410
8410
FFF8
0008
0008
0008
0008
ENDCHAR
STARTCHAR 044A
ENCODING 1098
SWIDTH 585 0
DWIDTH 13 0
BBX 11 11 1 0
BITMAP
F800
0800
0800
0800
0F80
0840
0820
0820
0820
0840
0F80
ENDCHAR
STARTCHAR 044B
ENCODING 1099
SWIDTH 630 0
DWIDTH 14 0
BBX 10 11 2 0
BITMAP
8040
8040
8040
8040
F840
8440
8240
8240
8240
8640
F840
ENDCHAR
STARTCHAR 044C
ENCODING 1100
SWIDTH 495 0
DWIDTH 11 0
BBX 8 11 2 0
BITMAP
80
80
80
80
FC
82
82
81
82
82
FC
ENDCHAR
STARTCHAR 044D
ENCODING 1101
SWIDTH 450 0
DWIDTH 10 0
BBX 8 11 1 0
BITMAP
78
86
02
01
01
3F
01
01
02
86
78
ENDCHAR
STARTCHAR 044E
ENCODING 1102
SWIDTH 720 0
DWIDTH 16 0
BBX 13 11 2 0
BITMAP
83C0
8420
8810
8810
8808
F808
8808
8818
8810
8430
83C0
ENDCHAR
STARTCHAR 044F
ENCODING 1103
SWIDTH 495 0
DWIDTH 11 0
BBX 8 11 1 0
BITMAP
3F
41
41
41
41
3F
11
21
21
41
81
ENDCHAR
STARTCHAR 0450
ENCODING 1104
SWIDTH 495 0
DWIDTH 11 0
BBX 9 16 1 1
BITMAP
1000
0800
0400
0000
0000
1E00
2100
4100
8080
8080
FF80
8000
8000
4000
2000
1F00
ENDCHAR
STARTCHAR 0451
ENCODING 1105
SWIDTH 495 0
DWIDTH 11 0
BBX 9 15 1 0
BITMAP
3300
2200
0000
0000
1E00
2100
4100
8080
8080
FF80
8000
8000
4000
2000
1F00
ENDCHAR
STARTCHAR 0452
ENCODING 1106
SWIDTH 540 0
DWIDTH 12 0
BBX 11 21 0 -5
BITMAP
2000
2000
FE00
2000
2000
2000
2780
38C0
2040
2040
2060
2020
2020
2020
2020
2040
0040
0040
0040
0080
0700
ENDCHAR
STARTCHAR 0453
ENCODING 1107
SWIDTH 405 0
DWIDTH 9 0
BBX 6 16 2 1
BITMAP
0C
18
20
00
00
FC
80
80
80
80
80
80
80
80
80
80
ENDCHAR
STARTCHAR 0454
ENCODING 1108
SWIDTH 450 0
DWIDTH 10 0
BBX 8 11 1 0
BITMAP
1E
21
40
80
80
FE
80
80
40
61
1E
ENDCHAR
STARTCHAR 0455
ENCODING 1109
SWIDTH 405 0
DWIDTH 9 0
BBX 7 11 1 0
BITMAP
3C
40
80
80
60
18
06
02
02
82
7C
ENDCHAR
STARTCHAR 0456
ENCODING 1110
SWIDTH 225 0
DWIDTH 5 0
BBX 1 15 2 0
BITMAP
80
80
00
00
80
80
80
80
80
80
80
80
80
80
80
ENDCHAR
STARTCHAR 0457
ENCODING 1111
SWIDTH 225 0
DWIDTH 5 0
BBX 5 15 0 0
BITMAP
88
88
00
00
20
20
20
20
20
20
20
20
20
20
20
ENDCHAR
STARTCHAR 0458
ENCODING 1112
SWIDTH 225 0
DWIDTH 5 0
BBX 4 20 -1 -5
BITMAP
10
10
00
00
10
10
10
10
10
10
10
10
10
10
10
10
10
10
10
E0
ENDCHAR
STARTCHAR 0459
ENCODING 1113
SWIDTH 720 0
DWIDTH 16 0
BBX 15 11 0 0
BITMAP
1F80
1080
1080
1080
10F8
1084
1082
1082
2082
2084
C0F8
ENDCHAR
STARTCHAR 045A
ENCODING 1114
SWIDTH 720 0
DWIDTH 16 0
BBX 13 11 2 0
BITMAP
8100
8100
8100
8100
81E0
FF18
8108
8108
8108
8108
81F0
ENDCHAR
STARTCHAR 045B
ENCODING 1115
SWIDTH 540 0
DWIDTH 12 0
BBX 10 16 0 0
BITMAP
2000
2000
FE00
2000
2000
2000
2780
3880
2040
2040
2040
2040
2040
2040
2040
2040
ENDCHAR
STARTCHAR 045C
ENCODING 1116
SWIDTH 450 0
DWIDTH 10 0
BBX 8 16 2 1
BITMAP
04
08
10
00
00
83
84
84
88
88
F8
88
84
84
82
81
ENDCHAR
STARTCHAR 045D
ENCODING 1117
SWIDTH 540 0
DWIDTH 12 0
BBX 8 17 2 0
BITMAP
20
20
10
08
00
00
81
83
83
85
89
89
91
A1
A1
C1
81
ENDCHAR
STARTCHAR 045E
ENCODING 1118
SWIDTH 450 0
DWIDTH 10 0
BBX 9 21 0 -5
BITMAP
2100
2100
1E00
0000
0000
C080
4080
4080
2100
2100
2100
1200
1200
1200
0C00
0C00
0800
0800
0800
1000
6000
ENDCHAR
STARTCHAR 045F
ENCODING 1119
SWIDTH 540 0
DWIDTH 12 0
BBX 8 14 2 -4
BITMAP
81
81
81
81
81
81
81
81
81
81
FF
08
08
08
ENDCHAR
STARTCHAR 0462
ENCODING 1122
SWIDTH 630 0
DWIDTH 14 0
BBX 11 16 1 0
BITMAP
1000
1000
1000
FF80
1000
1000
1000
1000
1F80
1060
1020
1020
1020
1020
1060
1F80
ENDCHAR
STARTCHAR 0463
ENCODING 1123
SWIDTH 540 0
DWIDTH 12 0
BBX 10 14 1 0
BITMAP
1000
1000
1000
FF80
1000
1000
1000
1F80
1040
1040
1040
1040
1040
1F80
ENDCHAR
STARTCHAR 0472
ENCODING 1138
SWIDTH 630 0
DWIDTH 14 0
BBX 12 15 1 0
BITMAP
0F80
3040
2020
4020
4010
8010
8010
FFF0
8010
8010
4010
4030
6020
3040
0F80
ENDCHAR
STARTCHAR 0473
ENCODING 1139
SWIDTH 540 0
DWIDTH 12 0
BBX 10 11 1 0
BITMAP
1E00
2100
4080
8080
8040
FFC0
8040
8080
4080
6100
1E00
ENDCHAR
STARTCHAR 0474
ENCODING 1140
SWIDTH 495 0
DWIDTH 11 0
BBX 12 15 0 0
BITMAP
8030
4040
4040
4040
2080
2080
2080
2100
1100
1100
1200
0A00
0A00
0A00
0400
ENDCHAR
STARTCHAR 0475
ENCODING 1141
SWIDTH 450 0
DWIDTH 10 0
BBX 10 11 0 0
BITMAP
80C0
4080
4100
2100
2100
2200
1200
1200
1400
0C00
0C00
ENDCHAR
STARTCHAR 0490
ENCODING 1168
SWIDTH 495 0
DWIDTH 11 0
BBX 8 19 2 0
BITMAP
01
01
01
01
FF
80
80
80
80
80
80
80
80
80
80
80
80
80
80
ENDCHAR
STARTCHAR 0491
ENCODING 1169
SWIDTH 405 0
DWIDTH 9 0
BBX 7 15 2 0
BITMAP
02
02
02
04
FC
80
80
80
80
80
80
80
80
80
80
ENDCHAR
STARTCHAR 0492
ENCODING 1170
SWIDTH 495 0
DWIDTH 11 0
BBX 10 15 1 0
BITMAP
3FC0
2000
2000
2000
2000
2000
2000
FC00
2000
2000
2000
2000
2000
2000
2000
ENDCHAR
STARTCHAR 0493
ENCODING 1171
SWIDTH 405 0
DWIDTH 9 0
BBX 7 11 1 0
BITMAP
7E
40
40
40
40
F8
40
40
40
40
40
ENDCHAR
STARTCHAR 0496
ENCODING 1174
SWIDTH 810 0
DWIDTH 18 0
BBX 17 19 0 -4
BITMAP
C08180
208200
108400
108400
088800
088800
088800
07F000
088800
088C00
108400
208200
208200
408100
C08180
000080
000080
000080
000080
ENDCHAR
STARTCHAR 0497
ENCODING 1175
SWIDTH 675 0
DWIDTH 15 0
BBX 13 15 1 -4
BITMAP
8010
4420
2440
2440
2440
1F80
2440
4420
4420
8410
8418
0008
0008
0008
0008
ENDCHAR
STARTCHAR 0498
ENCODING 1176
SWIDTH 540 0
DWIDTH 12 0
BBX 10 19 1 -4
BITMAP
1E00
6180
0080
0080
0080
0080
0100
1E00
0180
0040
0040
0040
8040
4080
3F00
0400
0400
0400
0400
ENDCHAR
STARTCHAR 0499
ENCODING 1177
SWIDTH 450 0
DWIDTH 10 0
BBX 8 15 1 -4
BITMAP
7C
82
02
02
02
3C
02
01
01
82
7C
10
10
10
10
ENDCHAR
STARTCHAR 049A
ENCODING 1178
SWIDTH 585 0
DWIDTH 13 0
BBX 11 19 2 -4
BITMAP
80C0
8100
8100
8200
8200
8400
8C00
F800
8400
8400
8200
8100
8180
8080
8060
0020
0020
0020
0020
ENDCHAR
STARTCHAR 049B
ENCODING 1179
SWIDTH 495 0
DWIDTH 11 0
BBX 9 15 2 -4
BITMAP
8300
8400
8400
8800
8800
F800
8800
8400
8400
8200
8180
0080
0080
0080
0080
ENDCHAR
STARTCHAR 04A0
ENCODING 1184
SWIDTH 675 0
DWIDTH 15 0
BBX 14 15 1 0
BITMAP
F80C
0810
0810
0820
0820
0840
0840
0F80
0840
0860
0820
0810
0818
0808
0804
ENDCHAR
STARTCHAR 04A1
ENCODING 1185
SWIDTH 585 0
DWIDTH 13 0
BBX 11 11 1 0
BITMAP
F820
0840
0880
0880
0900
0F00
0880
0880
0840
0820
0820
ENDCHAR
STARTCHAR 04A2
ENCODING 1186
SWIDTH 630 0
DWIDTH 14 0
BBX 12 18 2 -4
BITMAP
8040
8040
8040
8040
8040
8040
FFC0
8040
8040
8040
8040
8040
8040
8070
0010
0020
0020
0020
ENDCHAR
STARTCHAR 04A3
ENCODING 1187
SWIDTH 540 0
DWIDTH 12 0
BBX 10 15 2 -4
BITMAP
8100
8100
8100
8100
8100
FF00
8100
8100
8100
8100
81C0
0040
0040
0040
0040
ENDCHAR
STARTCHAR 04AA
ENCODING 1194
SWIDTH 585 0
DWIDTH 13 0
BBX 10 19 1 -4
BITMAP
0F80
3040
2000
4000
4000
8000
8000
8000
8000
8000
4000
4000
2000
3040
0F80
0200
0200
0200
0200
ENDCHAR
STARTCHAR 04AB
ENCODING 1195
SWIDTH 450 0
DWIDTH 10 0
BBX 8 15 1 -4
BITMAP
1E
21
40
C0
80
80
80
80
40
61
1E
08
08
08
08
ENDCHAR
STARTCHAR 04AE
ENCODING 1198
SWIDTH 450 0
DWIDTH 10 0
BBX 10 15 0 0
BITMAP
8040
4080
4080
2100
2100
1200
1200
0C00
0C00
0800
0800
0800
0800
0800
0800
ENDCHAR
STARTCHAR 04AF
ENCODING 1199
SWIDTH 450 0
DWIDTH 10 0
BBX 9 15 0 -4
BITMAP
C080
4080
4100
2100
2100
2200
1200
1200
1400
0C00
0800
0800
0800
0800
0800
ENDCHAR
STARTCHAR 04B0
ENCODING 1200
SWIDTH 450 0
DWIDTH 10 0
BBX 10 15 0 0
BITMAP
8040
4080
4080
2100
2100
1200
1200
0C00
7F80
0800
0800
0800
0800
0800
0800
ENDCHAR
STARTCHAR 04B1
ENCODING 1201
SWIDTH 450 0
DWIDTH 10 0
BBX 9 16 0 -5
BITMAP
8080
4080
4080
4100
2100
2200
1200
1200
1400
0C00
7F80
0800
0800
0800
0800
0800
ENDCHAR
STARTCHAR 04B2
ENCODING 1202
SWIDTH 540 0
DWIDTH 12 0
BBX 10 19 1 -4
BITMAP
8080
8100
4100
6200
2200
1400
1800
0800
1C00
1400
2200
4200
4100
8100
80C0
0040
0040
0040
0040
ENDCHAR
STARTCHAR 04B3
ENCODING 1203
SWIDTH 450 0
DWIDTH 10 0
BBX 8 15 1 -4
BITMAP
82
82
44
28
28
10
28
28
44
82
83
01
01
01
01
ENDCHAR
STARTCHAR 04B6
ENCODING 1206
SWIDTH 585 0
DWIDTH 13 0
BBX 10 19 2 -4
BITMAP
8080
8080
8080
8080
8080
8080
C080
3F80
0080
0080
0080
0080
0080
0080
00C0
0040
0040
0040
0040
ENDCHAR
STARTCHAR 04B7
ENCODING 1207
SWIDTH 495 0
DWIDTH 11 0
BBX 9 14 1 -4
BITMAP
8100
8100
8100
4100
4100
3F00
0100
0100
0100
0180
0080
0080
0080
0080
ENDCHAR
STARTCHAR 04BA
ENCODING 1210
SWIDTH 585 0
DWIDTH 13 0
BBX 9 15 2 0
BITMAP
8000
8000
8000
8000
8000
8000
FE00
8100
8080
8080
8080
8080
8080
8080
8080
ENDCHAR
STARTCHAR 04BB
ENCODING 1211
SWIDTH 540 0
DWIDTH 12 0
BBX 8 16 2 0
BITMAP
80
80
80
80
80
9E
E2
81
81
81
81
81
81
81
81
81
ENDCHAR
STARTCHAR 04C0
ENCODING 1216
SWIDTH 225 0
DWIDTH 5 0
BBX 1 15 2 0
BITMAP
80
80
80
80
80
80
80
80
80
80
80
80
80
80
80
ENDCHAR
STARTCHAR 04C1
ENCODING 1217
SWIDTH 765 0
DWIDTH 17 0
BBX 17 18 0 1
BITMAP
022000
01C000
000000
C08180
208200
108400
108400
088800
088800
088800
07F000
088800
088C00
108400
208200
208200
408100
408100
ENDCHAR
STARTCHAR 04C2
ENCODING 1218
SWIDTH 630 0
DWIDTH 14 0
BBX 12 16 1 0
BITMAP
1080
1080
0F00
0000
0000
8010
4420
2440
2440
2440
1F80
2440
4420
4420
8410
8410
ENDCHAR
STARTCHAR 04CF
ENCODING 1231
SWIDTH 225 0
DWIDTH 5 0
BBX 2 16 2 0
BITMAP
80
80
80
80
80
80
80
80
80
80
80
80
80
80
80
C0
ENDCHAR
STARTCHAR 04D0
ENCODING 1232
SWIDTH 540 0
DWIDTH 12 0
BBX 11 19 0 0
BITMAP
1080
1080
0F00
0000
0600
0600
0A00
0900
0900
1100
1080
1080
2080
3FC0
2040
4040
4020
4020
8020
ENDCHAR
STARTCHAR 04D1
ENCODING 1233
SWIDTH 495 0
DWIDTH 11 0
BBX 8 16 1 0
BITMAP
41
22
1E
00
00
3E
43
01
01
03
3D
41
81
81
43
7D
ENDCHAR
STARTCHAR 04D4
ENCODING 1236
SWIDTH 810 0
DWIDTH 18 0
BBX 16 15 1 0
BITMAP
01FF
0180
0280
0280
0480
0480
0880
08FE
1080
3F80
2080
4080
4080
8080
80FF
ENDCHAR
STARTCHAR 04D5
ENCODING 1237
SWIDTH 765 0
DWIDTH 17 0
BBX 16 11 1 0
BITMAP
1E3C
6246
0182
0102
0301
3DFF
4100
4100
8180
4242
3C3C
ENDCHAR
STARTCHAR 04D6
ENCODING 1238
SWIDTH 495 0
DWIDTH 11 0
BBX 8 19 2 0
BITMAP
42
22
3C
00
FF
80
80
80
80
80
80
FE
80
80
80
80
80
80
FF
ENDCHAR
STARTCHAR 04D7
ENCODING 1239
SWIDTH 495 0
DWIDTH 11 0
BBX 9 16 1 0
BITMAP
4100
2100
1E00
0000
0000
1E00
2100
4100
8080
8080
FF80
8000
8000
4000
2000
1F00
ENDCHAR
STARTCHAR 04D8
ENCODING 1240
SWIDTH 630 0
DWIDTH 14 0
BBX 12 15 1 0
BITMAP
0F80
3040
0020
0030
0010
0010
0010
FFF0
8010
4010
4010
4020
2020
3040
0F80
ENDCHAR
STARTCHAR 04D9
ENCODING 1241
SWIDTH 495 0
DWIDTH 11 0
BBX 9 11 1 0
BITMAP
3C00
4200
0100
0100
0080
FF80
8080
8100
8100
4200
3C00
ENDCHAR
STARTCHAR 04E2
ENCODING 1250
SWIDTH 630 0
DWIDTH 14 0
BBX 10 18 2 0
BITMAP
3F00
0000
0000
8040
80C0
80C0
8140
8240
8240
8440
8440
8840
9040
9040
A040
A040
C040
C040
ENDCHAR
STARTCHAR 04E3
ENCODING 1251
SWIDTH 540 0
DWIDTH 12 0
BBX 8 15 2 0
BITMAP
7E
00
00
00
81
83
83
85
89
89
91
A1
A1
C1
81
ENDCHAR
STARTCHAR 04E6
ENCODING 1254
SWIDTH 630 0
DWIDTH 14 0
BBX 12 18 1 0
BITMAP
1880
0880
0000
0F80
30C0
2020
4030
4010
8010
8010
8010
8010
8010
4010
4020
2020
30C0
0F80
ENDCHAR
STARTCHAR 04E7
ENCODING 1255
SWIDTH 540 0
DWIDTH 12 0
BBX 10 15 1 0
BITMAP
3300
2200
0000
0000
1E00
2100
4080
C080
8040
8040
8040
8080
4080
2100
1E00
ENDCHAR
STARTCHAR 04E8
ENCODING 1256
SWIDTH 630 0
DWIDTH 14 0
BBX 12 15 1 0
BITMAP
0F80
3040
2020
4020
4010
8010
8010
FFF0
8010
8010
4010
4030
6020
3040
0F80
ENDCHAR
STARTCHAR 04E9
ENCODING 1257
SWIDTH 540 0
DWIDTH 12 0
BBX 10 11 1 0
BITMAP
1E00
2100
4080
8080
8040
FFC0
8040
8080
4080
6100
1E00
ENDCHAR
STARTCHAR 04EE
ENCODING 1262
SWIDTH 495 0
DWIDTH 11 0
BBX 11 18 0 0
BITMAP
3F00
0000
0000
8020
4040
4040
2080
2080
1080
1100
1100
0A00
0A00
0600
0400
0400
0800
3000
ENDCHAR
STARTCHAR 04EF
ENCODING 1263
SWIDTH 450 0
DWIDTH 10 0
BBX 9 20 0 -5
BITMAP
3F00
0000
0000
0000
C080
4080
4080
2100
2100
2100
1200
1200
1200
0C00
0C00
0800
0800
0800
1000
6000
ENDCHAR
STARTCHAR 04F2
ENCODING 1266
SWIDTH 495 0
DWIDTH 11 0
BBX 11 20 0 0
BITMAP
0080
0480
0900
1200
0000
8020
4040
4040
2080
2080
1080
1100
1100
0A00
0A00
0600
0400
0400
0800
3000
ENDCHAR
STARTCHAR 04F3
ENCODING 1267
SWIDTH 450 0
DWIDTH 10 0
BBX 9 21 0 -4
BITMAP
0480
0900
0900
0000
0000
8080
4080
4080
4100
2100
2100
1200
1200
1200
0C00
0C00
0400
0800
0800
1000
6000
ENDCHAR
STARTCHAR 1D43
ENCODING 7491
SWIDTH 315 0
DWIDTH 7 0
BBX 5 7 1 9
BITMAP
78
08
08
78
88
88
70
ENDCHAR
STARTCHAR 1D47
ENCODING 7495
SWIDTH 360 0
DWIDTH 8 0
BBX 6 10 1 9
BITMAP
80
80
80
B8
C4
84
84
84
84
F8
ENDCHAR
STARTCHAR 1D48
ENCODING 7496
SWIDTH 360 0
DWIDTH 8 0
BBX 6 10 1 9
BITMAP
04
04
04
7C
84
84
84
84
84
7C
ENDCHAR
STARTCHAR 1D49
ENCODING 7497
SWIDTH 315 0
DWIDTH 7 0
BBX 6 7 1 9
BITMAP
78
88
84
FC
80
80
78
ENDCHAR
STARTCHAR 1D4D
ENCODING 7501
SWIDTH 315 0
DWIDTH 7 0
BBX 6 11 1 5
BITMAP
7C
88
88
88
F0
80
78
84
84
84
78
ENDCHAR
STARTCHAR 1D4F
ENCODING 7503
SWIDTH 315 0
DWIDTH 7 0
BBX 6 10 1 9
BITMAP
80
80
80
88
90
A0
B0
D0
88
84
ENDCHAR
STARTCHAR 1D50
ENCODING 7504
SWIDTH 540 0
DWIDTH 12 0
BBX 10 7 1 9
BITMAP
BB80
CC40
8440
8440
8440
8440
8440
ENDCHAR
STARTCHAR 1D52
ENCODING 7506
SWIDTH 360 0
DWIDTH 8 0
BBX 6 7 1 9
BITMAP
78
84
84
84
84
84
78
ENDCHAR
STARTCHAR 1D56
ENCODING 7510
SWIDTH 360 0
DWIDTH 8 0
BBX 6 10 1 6
BITMAP
B8
C4
84
84
84
84
F8
80
80
80
ENDCHAR
STARTCHAR 1D57
ENCODING 7511
SWIDTH 225 0
DWIDTH 5 0
BBX 5 9 0 9
BITMAP
40
40
F0
40
40
40
40
40
38
ENDCHAR
STARTCHAR 1D58
ENCODING 7512
SWIDTH 360 0
DWIDTH 8 0
BBX 6 7 1 9
BITMAP
84
84
84
84
84
8C
74
ENDCHAR
STARTCHAR 1D5B
ENCODING 7515
SWIDTH 315 0
DWIDTH 7 0
BBX 6 7 0 9
BITMAP
84
44
44
48
28
30
10
ENDCHAR
STARTCHAR 1D9C
ENCODING 7580
SWIDTH 315 0
DWIDTH 7 0
BBX 5 7 1 9
BITMAP
78
80
80
80
80
80
78
ENDCHAR
STARTCHAR 1DA0
ENCODING 7584
SWIDTH 180 0
DWIDTH 4 0
BBX 4 11 0 9
BITMAP
30
20
40
40
F0
40
40
40
40
40
40
ENDCHAR
STARTCHAR 1DBB
ENCODING 7611
SWIDTH 270 0
DWIDTH 6 0
BBX 6 7 0 9
BITMAP
7C
08
10
20
20
40
FC
ENDCHAR
STARTCHAR 1E06
ENCODING 7686
SWIDTH 585 0
DWIDTH 13 0
BBX 10 19 2 -4
BITMAP
FE00
8100
8080
8080
8080
8080
8300
FE00
8180
80C0
8040
8040
80C0
8180
FE00
0000
0000
0000
3E00
ENDCHAR
STARTCHAR 1E07
ENCODING 7687
SWIDTH 540 0
DWIDTH 12 0
BBX 9 19 2 -3
BITMAP
8000
8000
8000
8000
8000
9E00
E100
8100
8080
8080
8080
8080
8080
8100
C300
BC00
0000
0000
7E00
ENDCHAR
STARTCHAR 1E0C
ENCODING 7692
SWIDTH 585 0
DWIDTH 13 0
BBX 10 19 2 -4
BITMAP
FC00
8300
8080
8080
8040
8040
8040
8040
8040
8040
8040
8080
8080
8300
FC00
0000
0000
0800
0800
ENDCHAR
STARTCHAR 1E0D
ENCODING 7693
SWIDTH 540 0
DWIDTH 12 0
BBX 9 20 1 -4
BITMAP
0080
0080
0080
0080
0080
1E80
2180
4080
C080
8080
8080
8080
8080
4080
6180
3E80
0000
0000
0400
0400
ENDCHAR
STARTCHAR 1E0E
ENCODING 7694
SWIDTH 585 0
DWIDTH 13 0
BBX 10 19 2 -4
BITMAP
FC00
8300
8080
8080
8040
8040
8040
8040
8040
8040
8040
8080
8080
8300
FC00
0000
0000
0000
3E00
ENDCHAR
STARTCHAR 1E0F
ENCODING 7695
SWIDTH 540 0
DWIDTH 12 0
BBX 9 19 1 -3
BITMAP
0080
0080
0080
0080
0080
1E80
2180
4080
C080
8080
8080
8080
8080
4080
6180
3E80
0000
0000
1F00
ENDCHAR
STARTCHAR 1E16
ENCODING 7702
SWIDTH 495 0
DWIDTH 11 0
BBX 8 21 2 0
BITMAP
04
08
00
7E
00
00
FF
80
80
80
80
80
80
FE
80
80
80
80
80
80
FF
ENDCHAR
STARTCHAR 1E17
ENCODING 7703
SWIDTH 495 0
DWIDTH 11 0
BBX 9 18 1 0
BITMAP
0200
0C00
0000
3F00
0000
0000
0000
1E00
2100
4100
8080
8080
FF80
8000
8000
4000
2000
1F00
ENDCHAR
STARTCHAR 1E20
ENCODING 7712
SWIDTH 585 0
DWIDTH 13 0
BBX 11 17 1 0
BITMAP
0F80
0000
0F80
1040
2000
4000
4000
C000
8000
8000
83E0
8020
4020
4020
2020
3060
0F80
ENDCHAR
STARTCHAR 1E21
ENCODING 7713
SWIDTH 495 0
DWIDTH 11 0
BBX 10 20 1 -5
BITMAP
3F00
0000
0000
0000
3F80
4200
4100
4100
4100
4100
2200
5C00
4000
4000
3F00
4080
8040
8080
4180
3E00
ENDCHAR
STARTCHAR 1E24
ENCODING 7716
SWIDTH 630 0
DWIDTH 14 0
BBX 10 19 2 -4
BITMAP
8040
8040
8040
8040
8040
8040
8040
FFC0
8040
8040
8040
8040
8040
8040
8040
0000
0000
0C00
0C00
ENDCHAR
STARTCHAR 1E25
ENCODING 7717
SWIDTH 540 0
DWIDTH 12 0
BBX 8 20 2 -4
BITMAP
80
80
80
80
80
9E
E2
81
81
81
81
81
81
81
81
81
00
00
08
18
ENDCHAR
STARTCHAR 1E2A
ENCODING 7722
SWIDTH 630 0
DWIDTH 14 0
BBX 10 20 2 -5
BITMAP
8040
8040
8040
8040
8040
8040
8040
FFC0
8040
8040
8040
8040
8040
8040
8040
0000
0000
2100
2100
1E00
ENDCHAR
STARTCHAR 1E2B
ENCODING 7723
SWIDTH 540 0
DWIDTH 12 0
BBX 8 21 2 -5
BITMAP
80
80
80
80
80
9E
E2
81
81
81
81
81
81
81
81
81
00
00
42
42
3C
ENDCHAR
STARTCHAR 1E32
ENCODING 7730
SWIDTH 540 0
DWIDTH 12 0
BBX 10 19 2 -4
BITMAP
8080
8100
8200
8600
8C00
8800
9800
A400
C600
8200
8300
8100
8080
8080
8040
0000
0000
0400
0C00
ENDCHAR
STARTCHAR 1E33
ENCODING 7731
SWIDTH 450 0
DWIDTH 10 0
BBX 8 20 2 -4
BITMAP
80
80
80
80
80
82
84
88
88
90
A8
C8
84
86
82
81
00
00
10
10
ENDCHAR
STARTCHAR 1E34
ENCODING 7732
SWIDTH 540 0
DWIDTH 12 0
BBX 10 19 2 -4
BITMAP
8080
8100
8200
8600
8C00
8800
9800
A400
C600
8200
8300
8100
8080
8080
8040
0000
0000
0000
3F00
ENDCHAR
STARTCHAR 1E35
ENCODING 7733
SWIDTH 450 0
DWIDTH 10 0
BBX 8 20 2 -4
BITMAP
80
80
80
80
80
82
84
88
88
90
A8
C8
84
86
82
81
00
00
00
7C
ENDCHAR
STARTCHAR 1E36
ENCODING 7734
SWIDTH 450 0
DWIDTH 10 0
BBX 8 19 2 -4
BITMAP
80
80
80
80
80
80
80
80
80
80
80
80
80
80
FF
00
00
08
08
ENDCHAR
STARTCHAR 1E37
ENCODING 7735
SWIDTH 225 0
DWIDTH 5 0
BBX 2 20 2 -4
BITMAP
80
80
80
80
80
80
80
80
80
80
80
80
80
80
80
C0
00
00
C0
C0
ENDCHAR
STARTCHAR 1E38
ENCODING 7736
SWIDTH 450 0
DWIDTH 10 0
BBX 10 22 0 -4
BITMAP
F800
0000
0000
2000
2000
2000
2000
2000
2000
2000
2000
2000
2000
2000
2000
2000
2000
3FC0
0000
0000
0200
0200
ENDCHAR
STARTCHAR 1E39
ENCODING 7737
SWIDTH 225 0
DWIDTH 5 0
BBX 5 23 0 -4
BITMAP
F8
00
00
20
20
20
20
20
20
20
20
20
20
20
20
20
20
20
30
00
00
30
30
ENDCHAR
STARTCHAR 1E3A
ENCODING 7738
SWIDTH 450 0
DWIDTH 10 0
BBX 8 19 2 -4
BITMAP
80
80
80
80
80
80
80
80
80
80
80
80
80
80
FF
00
00
00
3E
ENDCHAR
STARTCHAR 1E3B
ENCODING 7739
SWIDTH 225 0
DWIDTH 5 0
BBX 6 19 0 -3
BITMAP
20
20
20
20
20
20
20
20
20
20
20
20
20
20
20
30
00
00
FC
ENDCHAR
STARTCHAR 1E3E
ENCODING 7742
SWIDTH 720 0
DWIDTH 16 0
BBX 12 19 2 0
BITMAP
0100
0200
0400
0000
C030
C050
C050
A050
A090
9090
9090
9110
8910
8910
8A10
8610
8610
8010
8010
ENDCHAR
STARTCHAR 1E3F
ENCODING 7743
SWIDTH 810 0
DWIDTH 18 0
BBX 14 16 2 1
BITMAP
0080
0100
0200
0000
0000
9C78
E28C
8304
8104
8104
8104
8104
8104
8104
8104
8104
ENDCHAR
STARTCHAR 1E40
ENCODING 7744
SWIDTH 720 0
DWIDTH 16 0
BBX 12 18 2 0
BITMAP
0600
0400
0000
C030
C050
C050
A050
A090
9090
9090
9110
8910
8910
8A10
8610
8610
8010
8010
ENDCHAR
STARTCHAR 1E41
ENCODING 7745
SWIDTH 810 0
DWIDTH 18 0
BBX 14 15 2 0
BITMAP
0300
0300
0000
0000
9C78
E28C
8304
8104
8104
8104
8104
8104
8104
8104
8104
ENDCHAR
STARTCHAR 1E42
ENCODING 7746
SWIDTH 720 0
DWIDTH 16 0
BBX 12 19 2 -4
BITMAP
C030
C050
C050
A050
A090
9090
9090
9110
8910
8910
8A10
8610
8610
8010
8010
0000
0000
0400
0600
ENDCHAR
STARTCHAR 1E43
ENCODING 7747
SWIDTH 810 0
DWIDTH 18 0
BBX 14 15 2 -4
BITMAP
9C78
E28C
8304
8104
8104
8104
8104
8104
8104
8104
8104
0000
0000
0100
0100
ENDCHAR
STARTCHAR 1E44
ENCODING 7748
SWIDTH 630 0
DWIDTH 14 0
BBX 10 18 2 0
BITMAP
0C00
0400
0000
C040
C040
A040
A040
9040
9040
8840
8440
8440
8240
8240
8140
8140
80C0
8040
ENDCHAR
STARTCHAR 1E45
ENCODING 7749
SWIDTH 540 0
DWIDTH 12 0
BBX 8 15 2 0
BITMAP
08
08
00
00
9E
E2
81
81
81
81
81
81
81
81
81
ENDCHAR
STARTCHAR 1E46
ENCODING 7750
SWIDTH 630 0
DWIDTH 14 0
BBX 10 19 2 -4
BITMAP
C040
C040
A040
A040
9040
9040
8840
8440
8440
8240
8240
8140
8140
80C0
8040
0000
0000
0C00
0C00
ENDCHAR
STARTCHAR 1E47
ENCODING 7751
SWIDTH 540 0
DWIDTH 12 0
BBX 8 15 2 -4
BITMAP
9E
E2
81
81
81
81
81
81
81
81
81
00
00
18
18
ENDCHAR
STARTCHAR 1E48
ENCODING 7752
SWIDTH 630 0
DWIDTH 14 0
BBX 10 19 2 -4
BITMAP
C040
C040
A040
A040
9040
9040
8840
8440
8440
8240
8240
8140
8140
80C0
8040
0000
0000
0000
3F00
ENDCHAR
STARTCHAR 1E49
ENCODING 7753
SWIDTH 540 0
DWIDTH 12 0
BBX 8 15 2 -4
BITMAP
9E
E2
81
81
81
81
81
81
81
81
81
00
00
00
7E
ENDCHAR
STARTCHAR 1E52
ENCODING 7762
SWIDTH 630 0
DWIDTH 14 0
BBX 12 20 1 1
BITMAP
0100
0200
0000
1F80
0000
0F80
30C0
2020
4030
4010
8010
8010
8010
8010
8010
4010
4020
2020
30C0
0F80
ENDCHAR
STARTCHAR 1E53
ENCODING 7763
SWIDTH 540 0
DWIDTH 12 0
BBX 10 18 1 0
BITMAP
0200
0C00
0000
3F00
0000
0000
0000
1E00
2100
4080
C080
8040
8040
8040
8080
4080
2100
1E00
ENDCHAR
STARTCHAR 1E58
ENCODING 7768
SWIDTH 540 0
DWIDTH 12 0
BBX 9 18 2 0
BITMAP
1800
1800
0000
FE00
8100
8080
8080
8080
8080
8100
FE00
8400
8400
8200
8200
8100
8180
8080
ENDCHAR
STARTCHAR 1E59
ENCODING 7769
SWIDTH 315 0
DWIDTH 7 0
BBX 5 15 2 0
BITMAP
20
20
00
00
98
E0
C0
80
80
80
80
80
80
80
80
ENDCHAR
STARTCHAR 1E5A
ENCODING 7770
SWIDTH 540 0
DWIDTH 12 0
BBX 9 19 2 -4
BITMAP
FE00
8100
8080
8080
8080
8080
8100
FE00
8400
8400
8200
8200
8100
8180
8080
0000
0000
0800
0800
ENDCHAR
STARTCHAR 1E5B
ENCODING 7771
SWIDTH 315 0
DWIDTH 7 0
BBX 5 15 2 -4
BITMAP
98
E0
C0
80
80
80
80
80
80
80
80
00
00
80
80
ENDCHAR
STARTCHAR 1E5C
ENCODING 7772
SWIDTH 540 0
DWIDTH 12 0
BBX 9 22 2 -4
BITMAP
7E00
0000
0000
FE00
8100
8080
8080
8080
8080
8100
FE00
8400
8400
8200
8200
8100
8180
8080
0000
0000
0800
0800
ENDCHAR
STARTCHAR 1E5D
ENCODING 7773
SWIDTH 315 0
DWIDTH 7 0
BBX 5 19 2 -4
BITMAP
F8
00
00
00
98
E0
C0
80
80
80
80
80
80
80
80
00
00
80
80
ENDCHAR
STARTCHAR 1E5E
ENCODING 7774
SWIDTH 540 0
DWIDTH 12 0
BBX 9 19 2 -4
BITMAP
FE00
8100
8080
8080
8080
8080
8100
FE00
8400
8400
8200
8200
8100
8180
8080
0000
0000
0000
3E00
ENDCHAR
STARTCHAR 1E5F
ENCODING 7775
SWIDTH 315 0
DWIDTH 7 0
BBX 7 15 0 -4
BITMAP
26
38
30
20
20
20
20
20
20
20
20
00
00
00
F8
ENDCHAR
STARTCHAR 1E60
ENCODING 7776
SWIDTH 540 0
DWIDTH 12 0
BBX 10 18 1 0
BITMAP
0C00
0C00
0000
1E00
2180
4000
4000
4000
6000
3800
0600
0180
0080
0040
0040
8080
4180
3E00
ENDCHAR
STARTCHAR 1E61
ENCODING 7777
SWIDTH 405 0
DWIDTH 9 0
BBX 7 15 1 0
BITMAP
10
10
00
00
3C
40
80
80
60
18
06
02
02
82
7C
ENDCHAR
STARTCHAR 1E62
ENCODING 7778
SWIDTH 540 0
DWIDTH 12 0
BBX 10 19 1 -4
BITMAP
1E00
2180
4000
4000
4000
6000
3800
0600
0180
0080
0040
0040
8080
4180
3E00
0000
0000
0C00
0C00
ENDCHAR
STARTCHAR 1E63
ENCODING 7779
SWIDTH 405 0
DWIDTH 9 0
BBX 7 15 1 -4
BITMAP
3C
40
80
80
60
18
06
02
02
82
7C
00
00
10
18
ENDCHAR
STARTCHAR 1E6C
ENCODING 7788
SWIDTH 540 0
DWIDTH 12 0
BBX 10 19 1 -4
BITMAP
FFC0
0800
0800
0800
0800
0800
0800
0800
0800
0800
0800
0800
0800
0800
0800
0000
0000
0800
0C00
ENDCHAR
STARTCHAR 1E6D
ENCODING 7789
SWIDTH 315 0
DWIDTH 7 0
BBX 6 18 1 -4
BITMAP
40
40
40
F8
40
40
40
40
40
40
40
40
20
3C
00
00
10
10
ENDCHAR
STARTCHAR 1E6E
ENCODING 7790
SWIDTH 540 0
DWIDTH 12 0
BBX 10 19 1 -4
BITMAP
FFC0
0800
0800
0800
0800
0800
0800
0800
0800
0800
0800
0800
0800
0800
0800
0000
0000
0000
3F00
ENDCHAR
STARTCHAR 1E6F
ENCODING 7791
SWIDTH 315 0
DWIDTH 7 0
BBX 6 17 1 -3
BITMAP
40
40
40
F8
40
40
40
40
40
40
40
40
20
3C
00
00
7C
ENDCHAR
STARTCHAR 1E80
ENCODING 7808
SWIDTH 765 0
DWIDTH 17 0
BBX 15 19 1 0
BITMAP
0400
0200
0100
0000
8102
8302
8282
8282
4284
4444
4444
4444
4444
2828
2828
2828
2828
3030
1010
ENDCHAR
STARTCHAR 1E81
ENCODING 7809
SWIDTH 675 0
DWIDTH 15 0
BBX 14 16 1 1
BITMAP
0400
0200
0100
0000
0000
8204
8508
8508
4508
4510
4890
4890
2890
2860
3060
1060
ENDCHAR
STARTCHAR 1E82
ENCODING 7810
SWIDTH 765 0
DWIDTH 17 0
BBX 15 19 1 0
BITMAP
0040
0080
0100
0000
8102
8302
8282
8282
4284
4444
4444
4444
4444
2828
2828
2828
2828
3030
1010
ENDCHAR
STARTCHAR 1E83
ENCODING 7811
SWIDTH 675 0
DWIDTH 15 0
BBX 14 17 1 0
BITMAP
0080
0180
0300
0200
0000
0000
8204
8508
8508
4508
4510
4890
4890
2890
2860
3060
1060
ENDCHAR
STARTCHAR 1E84
ENCODING 7812
SWIDTH 765 0
DWIDTH 17 0
BBX 15 18 1 0
BITMAP
0440
0440
0000
8102
8302
8282
8282
4284
4444
4444
4444
4444
2828
2828
2828
2828
3030
1010
ENDCHAR
STARTCHAR 1E85
ENCODING 7813
SWIDTH 675 0
DWIDTH 15 0
BBX 14 15 1 0
BITMAP
0880
0880
0000
0000
8204
8508
8508
4508
4510
4890
4890
2890
2860
3060
1060
ENDCHAR
STARTCHAR 1E8E
ENCODING 7822
SWIDTH 450 0
DWIDTH 10 0
BBX 10 18 0 0
BITMAP
0C00
0C00
0000
8040
4080
4080
2100
2100
1200
1200
0C00
0C00
0800
0800
0800
0800
0800
0800
ENDCHAR
STARTCHAR 1E8F
ENCODING 7823
SWIDTH 450 0
DWIDTH 10 0
BBX 9 20 0 -5
BITMAP
0C00
0C00
0000
0000
C080
4080
4080
2100
2100
2100
1200
1200
1200
0C00
0C00
0800
0800
0800
1000
6000
ENDCHAR
STARTCHAR 1E92
ENCODING 7826
SWIDTH 540 0
DWIDTH 12 0
BBX 10 19 1 -4
BITMAP
7FC0
0080
0080
0100
0200
0200
0400
0C00
0800
1000
1000
2000
4000
4000
FFC0
0000
0000
0400
0C00
ENDCHAR
STARTCHAR 1E93
ENCODING 7827
SWIDTH 405 0
DWIDTH 9 0
BBX 7 15 1 -4
BITMAP
FE
06
04
08
08
10
20
20
40
80
FE
00
00
10
18
ENDCHAR
STARTCHAR 1E94
ENCODING 7828
SWIDTH 540 0
DWIDTH 12 0
BBX 10 19 1 -4
BITMAP
7FC0
0080
0080
0100
0200
0200
0400
0C00
0800
1000
1000
2000
4000
4000
FFC0
0000
0000
0000
1F00
ENDCHAR
STARTCHAR 1E95
ENCODING 7829
SWIDTH 405 0
DWIDTH 9 0
BBX 7 15 1 -4
BITMAP
FE
06
04
08
08
10
20
20
40
80
FE
00
00
00
7E
ENDCHAR
STARTCHAR 1E96
ENCODING 7830
SWIDTH 540 0
DWIDTH 12 0
BBX 8 20 2 -4
BITMAP
80
80
80
80
80
9E
E2
81
81
81
81
81
81
81
81
81
00
00
00
3E
ENDCHAR
STARTCHAR 1E97
ENCODING 7831
SWIDTH 315 0
DWIDTH 7 0
BBX 7 18 0 0
BITMAP
CC
88
00
00
20
20
20
7C
20
20
20
20
20
20
20
20
10
1E
ENDCHAR
STARTCHAR 1E9E
ENCODING 7838
SWIDTH 630 0
DWIDTH 14 0
BBX 11 15 2 0
BITMAP
1F00
2180
40C0
C0C0
8180
8100
8200
8780
80C0
8020
8020
8020
8020
8840
8780
ENDCHAR
STARTCHAR 1EA0
ENCODING 7840
SWIDTH 540 0
DWIDTH 12 0
BBX 11 19 0 -4
BITMAP
0600
0600
0A00
0900
0900
1100
1080
1080
2080
3FC0
2040
4040
4020
4020
8020
0000
0000
0400
0600
ENDCHAR
STARTCHAR 1EA1
ENCODING 7841
SWIDTH 495 0
DWIDTH 11 0
BBX 8 15 1 -4
BITMAP
3E
43
01
01
03
3D
41
81
81
43
7D
00
00
08
08
ENDCHAR
STARTCHAR 1EA2
ENCODING 7842
SWIDTH 540 0
DWIDTH 12 0
BBX 11 20 0 0
BITMAP
0400
0200
0200
0600
0000
0600
0600
0A00
0900
0900
1100
1080
1080
2080
3FC0
2040
4040
4020
4020
8020
ENDCHAR
STARTCHAR 1EA3
ENCODING 7843
SWIDTH 495 0
DWIDTH 11 0
BBX 8 17 1 0
BITMAP
18
04
04
08
00
00
3E
43
01
01
07
39
41
81
81
43
7D
ENDCHAR
STARTCHAR 1EA4
ENCODING 7844
SWIDTH 540 0
DWIDTH 12 0
BBX 11 19 0 1
BITMAP
0040
0680
0900
0000
0600
0600
0A00
0900
0900
1100
1080
1080
2080
3FC0
2040
4040
4020
4020
8020
ENDCHAR
STARTCHAR 1EA5
ENCODING 7845
SWIDTH 495 0
DWIDTH 11 0
BBX 9 17 1 0
BITMAP
0080
0080
0D00
3200
0000
0000
3E00
4300
0100
0100
0300
3D00
4100
8100
8100
4300
7D00
ENDCHAR
STARTCHAR 1EA6
ENCODING 7846
SWIDTH 540 0
DWIDTH 12 0
BBX 11 19 0 1
BITMAP
2000
1600
0900
0000
0600
0600
0A00
0900
0900
1100
1080
1080
2080
3FC0
2040
4040
4020
4020
8020
ENDCHAR
STARTCHAR 1EA7
ENCODING 7847
SWIDTH 495 0
DWIDTH 11 0
BBX 8 17 1 0
BITMAP
80
C0
2C
32
00
00
3E
43
01
01
03
3D
41
81
81
43
7D
ENDCHAR
STARTCHAR 1EA8
ENCODING 7848
SWIDTH 540 0
DWIDTH 12 0
BBX 11 20 0 0
BITMAP
0180
0040
0680
0900
0000
0600
0600
0A00
0900
0900
1100
1080
1080
2080
3FC0
2040
4040
4020
4020
8020
ENDCHAR
STARTCHAR 1EA9
ENCODING 7849
SWIDTH 495 0
DWIDTH 11 0
BBX 9 17 1 0
BITMAP
0300
0080
0D00
3200
0000
0000
3E00
4300
0100
0100
0700
3900
4100
8100
8100
4300
7D00
ENDCHAR
STARTCHAR 1EAA
ENCODING 7850
SWIDTH 540 0
DWIDTH 12 0
BBX 11 21 0 0
BITMAP
1C80
2380
0000
0600
0900
0000
0600
0600
0A00
0900
0900
1100
1080
1080
2080
3FC0
2040
4040
4020
4020
8020
ENDCHAR
STARTCHAR 1EAB
ENCODING 7851
SWIDTH 495 0
DWIDTH 11 0
BBX 8 18 1 0
BITMAP
31
2E
00
0C
32
00
00
3E
43
01
01
03
3D
41
81
81
43
7D
ENDCHAR
STARTCHAR 1EAC
ENCODING 7852
SWIDTH 540 0
DWIDTH 12 0
BBX 11 23 0 -4
BITMAP
0600
0900
1080
0000
0600
0600
0A00
0900
0900
1100
1080
1080
2080
3FC0
2040
4040
4020
4020
8020
0000
0000
0400
0600
ENDCHAR
STARTCHAR 1EAD
ENCODING 7853
SWIDTH 495 0
DWIDTH 11 0
BBX 8 21 1 -4
BITMAP
08
14
22
21
00
00
3E
43
01
01
03
3D
41
81
81
43
7D
00
00
08
08
ENDCHAR
STARTCHAR 1EAE
ENCODING 7854
SWIDTH 540 0
DWIDTH 12 0
BBX 11 21 0 0
BITMAP
0100
0200
1480
1100
0F00
0000
0600
0600
0A00
0900
0900
1100
1080
1080
2080
3FC0
2040
4040
4020
4020
8020
ENDCHAR
STARTCHAR 1EAF
ENCODING 7855
SWIDTH 495 0
DWIDTH 11 0
BBX 8 17 1 1
BITMAP
04
49
22
1E
00
00
3E
43
01
01
03
3D
41
81
81
43
7D
ENDCHAR
STARTCHAR 1EB0
ENCODING 7856
SWIDTH 540 0
DWIDTH 12 0
BBX 11 21 0 0
BITMAP
0800
0C00
1480
1100
0F00
0000
0600
0600
0A00
0900
0900
1100
1080
1080
2080
3FC0
2040
4040
4020
4020
8020
ENDCHAR
STARTCHAR 1EB1
ENCODING 7857
SWIDTH 495 0
DWIDTH 11 0
BBX 8 18 1 0
BITMAP
10
08
49
22
1E
00
00
3E
43
01
01
03
3D
41
81
81
43
7D
ENDCHAR
STARTCHAR 1EB2
ENCODING 7858
SWIDTH 540 0
DWIDTH 12 0
BBX 11 21 0 0
BITMAP
0600
0200
1680
1100
0F00
0000
0600
0600
0A00
0900
0900
1100
1080
1080
2080
3FC0
2040
4040
4020
4020
8020
ENDCHAR
STARTCHAR 1EB3
ENCODING 7859
SWIDTH 495 0
DWIDTH 11 0
BBX 8 19 1 0
BITMAP
08
04
04
49
22
1C
00
00
3E
43
01
01
07
39
41
81
81
43
7D
ENDCHAR
STARTCHAR 1EB4
ENCODING 7860
SWIDTH 540 0
DWIDTH 12 0
BBX 11 21 0 0
BITMAP
1C80
0380
0000
1080
0F00
0000
0600
0600
0A00
0900
0900
1100
1080
1080
2080
3FC0
2040
4040
4020
4020
8020
ENDCHAR
STARTCHAR 1EB5
ENCODING 7861
SWIDTH 495 0
DWIDTH 11 0
BBX 8 18 1 0
BITMAP
31
2E
00
22
1E
00
00
3E
43
01
01
03
3D
41
81
81
43
7D
ENDCHAR
STARTCHAR 1EB6
ENCODING 7862
SWIDTH 540 0
DWIDTH 12 0
BBX 11 23 0 -4
BITMAP
1080
1100
0F00
0000
0600
0600
0A00
0900
0900
1100
1080
1080
2080
3FC0
2040
4040
4020
4020
8020
0000
0000
0400
0600
ENDCHAR
STARTCHAR 1EB7
ENCODING 7863
SWIDTH 495 0
DWIDTH 11 0
BBX 8 20 1 -4
BITMAP
41
22
1E
00
00
3E
43
01
01
03
3D
41
81
81
43
7D
00
00
08
08
ENDCHAR
STARTCHAR 1EB8
ENCODING 7864
SWIDTH 495 0
DWIDTH 11 0
BBX 8 19 2 -4
BITMAP
FF
80
80
80
80
80
80
FE
80
80
80
80
80
80
FF
00
00
08
08
ENDCHAR
STARTCHAR 1EB9
ENCODING 7865
SWIDTH 495 0
DWIDTH 11 0
BBX 9 15 1 -4
BITMAP
1E00
2100
4100
8080
8080
FF80
8000
8000
4000
2000
1F00
0000
0000
0800
0C00
ENDCHAR
STARTCHAR 1EBA
ENCODING 7866
SWIDTH 495 0
DWIDTH 11 0
BBX 8 20 2 0
BITMAP
10
0C
04
08
00
FF
80
80
80
80
80
80
FE
80
80
80
80
80
80
FF
ENDCHAR
STARTCHAR 1EBB
ENCODING 7867
SWIDTH 495 0
DWIDTH 11 0
BBX 9 17 1 0
BITMAP
0800
0400
0400
0C00
0000
0000
1E00
2100
4100
8080
8080
FF80
8000
8000
4000
2000
1F00
ENDCHAR
STARTCHAR 1EBC
ENCODING 7868
SWIDTH 495 0
DWIDTH 11 0
BBX 8 19 2 0
BITMAP
31
49
06
00
FF
80
80
80
80
80
80
FE
80
80
80
80
80
80
FF
ENDCHAR
STARTCHAR 1EBD
ENCODING 7869
SWIDTH 495 0
DWIDTH 11 0
BBX 9 16 1 0
BITMAP
3000
4900
4700
0000
0000
1E00
2100
4100
8080
8080
FF80
8000
8000
4000
2000
1F00
ENDCHAR
STARTCHAR 1EBE
ENCODING 7870
SWIDTH 495 0
DWIDTH 11 0
BBX 8 19 2 1
BITMAP
01
1A
26
00
FF
80
80
80
80
80
80
FE
80
80
80
80
80
80
FF
ENDCHAR
STARTCHAR 1EBF
ENCODING 7871
SWIDTH 495 0
DWIDTH 11 0
BBX 9 17 1 0
BITMAP
0080
0080
0D00
1200
2000
0000
1E00
2100
4100
8080
8080
FF80
8000
8000
4000
2000
1F00
ENDCHAR
STARTCHAR 1EC0
ENCODING 7872
SWIDTH 495 0
DWIDTH 11 0
BBX 8 19 2 1
BITMAP
40
58
26
00
FF
80
80
80
80
80
80
FE
80
80
80
80
80
80
FF
ENDCHAR
STARTCHAR 1EC1
ENCODING 7873
SWIDTH 495 0
DWIDTH 11 0
BBX 9 17 1 0
BITMAP
8000
4000
2C00
1200
2000
0000
1E00
2100
4100
8080
8080
FF80
8000
8000
4000
2000
1F00
ENDCHAR
STARTCHAR 1EC2
ENCODING 7874
SWIDTH 495 0
DWIDTH 11 0
BBX 8 20 2 0
BITMAP
03
01
19
26
00
FF
80
80
80
80
80
80
FE
80
80
80
80
80
80
FF
ENDCHAR
STARTCHAR 1EC3
ENCODING 7875
SWIDTH 495 0
DWIDTH 11 0
BBX 9 17 1 0
BITMAP
0300
0080
0D00
1200
2000
0000
1E00
2100
4100
8080
8080
FF80
8000
8000
4000
2000
1F00
ENDCHAR
STARTCHAR 1EC4
ENCODING 7876
SWIDTH 495 0
DWIDTH 11 0
BBX 8 21 2 0
BITMAP
30
4E
00
18
26
00
FF
80
80
80
80
80
80
FE
80
80
80
80
80
80
FF
ENDCHAR
STARTCHAR 1EC5
ENCODING 7877
SWIDTH 495 0
DWIDTH 11 0
BBX 9 18 1 0
BITMAP
1100
2E00
0000
0C00
1200
2000
0000
1E00
2100
4100
8080
8080
FF80
8000
8000
4000
2000
1F00
ENDCHAR
STARTCHAR 1EC6
ENCODING 7878
SWIDTH 495 0
DWIDTH 11 0
BBX 8 23 2 -4
BITMAP
18
24
42
00
FF
80
80
80
80
80
80
FE
80
80
80
80
80
80
FF
00
00
08
08
ENDCHAR
STARTCHAR 1EC7
ENCODING 7879
SWIDTH 495 0
DWIDTH 11 0
BBX 9 21 1 -4
BITMAP
0C00
1400
1200
2100
0000
0000
1E00
2100
4100
8080
8080
FF80
8000
8000
4000
2000
1F00
0000
0000
0800
0800
ENDCHAR
STARTCHAR 1EC8
ENCODING 7880
SWIDTH 225 0
DWIDTH 5 0
BBX 3 19 1 0
BITMAP
E0
20
20
40
00
40
40
40
40
40
40
40
40
40
40
40
40
40
40
ENDCHAR
STARTCHAR 1EC9
ENCODING 7881
SWIDTH 225 0
DWIDTH 5 0
BBX 3 17 1 0
BITMAP
C0
20
20
40
00
00
40
40
40
40
40
40
40
40
40
40
40
ENDCHAR
STARTCHAR 1ECA
ENCODING 7882
SWIDTH 225 0
DWIDTH 5 0
BBX 1 19 2 -4
BITMAP
80
80
80
80
80
80
80
80
80
80
80
80
80
80
80
00
00
80
80
ENDCHAR
STARTCHAR 1ECB
ENCODING 7883
SWIDTH 225 0
DWIDTH 5 0
BBX 1 19 2 -4
BITMAP
80
80
00
00
80
80
80
80
80
80
80
80
80
80
80
00
00
80
80
ENDCHAR
STARTCHAR 1ECC
ENCODING 7884
SWIDTH 630 0
DWIDTH 14 0
BBX 12 19 1 -4
BITMAP
0F80
30C0
2020
4030
4010
8010
8010
8010
8010
8010
4010
4020
2020
30C0
0F80
0000
0000
0200
0600
ENDCHAR
STARTCHAR 1ECD
ENCODING 7885
SWIDTH 540 0
DWIDTH 12 0
BBX 10 15 1 -4
BITMAP
1E00
2100
4080
C080
8040
8040
8040
8080
4080
2100
1E00
0000
0000
0C00
0C00
ENDCHAR
STARTCHAR 1ECE
ENCODING 7886
SWIDTH 630 0
DWIDTH 14 0
BBX 12 19 1 0
BITMAP
0600
0100
0200
0000
0F80
30C0
2020
4030
4010
8010
8010
8010
8010
8010
4010
4020
2020
30C0
0F80
ENDCHAR
STARTCHAR 1ECF
ENCODING 7887
SWIDTH 540 0
DWIDTH 12 0
BBX 10 17 1 0
BITMAP
0800
0400
0400
0C00
0000
0000
1E00
2100
4080
C080
8040
8040
8040
8080
4080
2100
1E00
ENDCHAR
STARTCHAR 1ED0
ENCODING 7888
SWIDTH 630 0
DWIDTH 14 0
BBX 12 19 1 1
BITMAP
0040
0680
0900
0000
0F80
30C0
2020
4030
4010
8010
8010
8010
8010
8010
4010
4020
2020
30C0
0F80
ENDCHAR
STARTCHAR 1ED1
ENCODING 7889
SWIDTH 540 0
DWIDTH 12 0
BBX 10 16 1 1
BITMAP
0080
0D00
1200
0000
0000
1E00
2100
4080
C080
8040
8040
8040
8080
4080
2100
1E00
ENDCHAR
STARTCHAR 1ED2
ENCODING 7890
SWIDTH 630 0
DWIDTH 14 0
BBX 12 19 1 1
BITMAP
1000
1600
0900
0000
0F80
30C0
2020
4030
4010
8010
8010
8010
8010
8010
4010
4020
2020
30C0
0F80
ENDCHAR
STARTCHAR 1ED3
ENCODING 7891
SWIDTH 540 0
DWIDTH 12 0
BBX 10 17 1 0
BITMAP
8000
4000
2C00
1200
0000
0000
1E00
2100
4080
C080
8040
8040
8040
8080
4080
2100
1E00
ENDCHAR
STARTCHAR 1ED4
ENCODING 7892
SWIDTH 630 0
DWIDTH 14 0
BBX 12 20 1 0
BITMAP
00C0
0040
0640
0980
0000
0F80
30C0
2020
4030
4010
8010
8010
8010
8010
8010
4010
4020
2020
30C0
0F80
ENDCHAR
STARTCHAR 1ED5
ENCODING 7893
SWIDTH 540 0
DWIDTH 12 0
BBX 10 17 1 0
BITMAP
0100
0080
0C80
1300
0000
0000
1E00
2100
4080
C080
8040
8040
8040
8080
4080
2100
1E00
ENDCHAR
STARTCHAR 1ED6
ENCODING 7894
SWIDTH 630 0
DWIDTH 14 0
BBX 12 21 1 0
BITMAP
0C00
1280
0100
0600
0900
0000
0F80
30C0
2020
4030
4010
8010
8010
8010
8010
8010
4010
4020
2020
30C0
0F80
ENDCHAR
STARTCHAR 1ED7
ENCODING 7895
SWIDTH 540 0
DWIDTH 12 0
BBX 10 18 1 0
BITMAP
1100
2E00
0000
0C00
1200
0000
0000
1E00
2100
4080
C080
8040
8040
8040
8080
4080
2100
1E00
ENDCHAR
STARTCHAR 1ED8
ENCODING 7896
SWIDTH 630 0
DWIDTH 14 0
BBX 12 23 1 -4
BITMAP
0200
0500
1880
0000
0F80
30C0
2020
4030
4010
8010
8010
8010
8010
8010
4010
4020
2020
30C0
0F80
0000
0000
0200
0600
ENDCHAR
STARTCHAR 1ED9
ENCODING 7897
SWIDTH 540 0
DWIDTH 12 0
BBX 10 21 1 -4
BITMAP
0C00
1400
1200
2100
0000
0000
1E00
2100
4080
C080
8040
8040
8040
8080
4080
2100
1E00
0000
0000
0C00
0C00
ENDCHAR
STARTCHAR 1EDA
ENCODING 7898
SWIDTH 630 0
DWIDTH 14 0
BBX 12 19 1 0
BITMAP
0080
0110
0210
0010
0FA0
3040
2020
4030
4010
C010
8010
8010
8010
C010
4010
4030
2020
1040
0F80
ENDCHAR
STARTCHAR 1EDB
ENCODING 7899
SWIDTH 540 0
DWIDTH 12 0
BBX 10 16 1 1
BITMAP
0200
0400
0840
0040
0040
1F80
2100
4080
C080
8040
8040
8040
8080
4080
2100
1E00
ENDCHAR
STARTCHAR 1EDC
ENCODING 7900
SWIDTH 630 0
DWIDTH 14 0
BBX 12 19 1 0
BITMAP
0800
0410
0210
0010
0FA0
3040
2020
4030
4010
C010
8010
8010
8010
C010
4010
4030
2020
1040
0F80
ENDCHAR
STARTCHAR 1EDD
ENCODING 7901
SWIDTH 540 0
DWIDTH 12 0
BBX 10 16 1 1
BITMAP
1000
0800
0440
0040
0040
1F80
2100
4080
C080
8040
8040
8040
8080
4080
2100
1E00
ENDCHAR
STARTCHAR 1EDE
ENCODING 7902
SWIDTH 630 0
DWIDTH 14 0
BBX 12 19 1 0
BITMAP
0600
0110
0210
0010
0FA0
3040
2020
4030
4010
C010
8010
8010
8010
C010
4010
4030
2020
1040
0F80
ENDCHAR
STARTCHAR 1EDF
ENCODING 7903
SWIDTH 540 0
DWIDTH 12 0
BBX 10 17 1 0
BITMAP
0800
0400
0400
0C40
0040
0040
1F80
2100
4080
C080
8040
8040
8040
8080
4080
2100
1E00
ENDCHAR
STARTCHAR 1EE0
ENCODING 7904
SWIDTH 630 0
DWIDTH 14 0
BBX 12 19 1 0
BITMAP
0C40
1250
0190
0010
0FA0
3040
2020
4030
4010
C010
8010
8010
8010
C010
4010
4030
2020
1040
0F80
ENDCHAR
STARTCHAR 1EE1
ENCODING 7905
SWIDTH 540 0
DWIDTH 12 0
BBX 10 16 1 0
BITMAP
3000
4900
4740
0040
0040
1F80
2100
4080
C080
8040
8040
8040
8080
4080
2100
1E00
ENDCHAR
STARTCHAR 1EE2
ENCODING 7906
SWIDTH 630 0
DWIDTH 14 0
BBX 12 22 1 -4
BITMAP
0010
0010
0010
0FA0
3040
2020
4030
4010
C010
8010
8010
8010
C010
4010
4030
2020
1040
0F80
0000
0000
0200
0600
ENDCHAR
STARTCHAR 1EE3
ENCODING 7907
SWIDTH 540 0
DWIDTH 12 0
BBX 10 18 1 -4
BITMAP
0040
0040
0040
1F80
2100
4080
C080
8040
8040
8040
8080
4080
2100
1E00
0000
0000
0C00
0C00
ENDCHAR
STARTCHAR 1EE4
ENCODING 7908
SWIDTH 630 0
DWIDTH 14 0
BBX 10 19 2 -4
BITMAP
8040
8040
8040
8040
8040
8040
8040
8040
8040
8040
8040
8040
4080
6180
1E00
0000
0000
0C00
0C00
ENDCHAR
STARTCHAR 1EE5
ENCODING 7909
SWIDTH 540 0
DWIDTH 12 0
BBX 8 15 2 -4
BITMAP
81
81
81
81
81
81
81
81
83
C5
79
00
00
08
08
ENDCHAR
STARTCHAR 1EE6
ENCODING 7910
SWIDTH 630 0
DWIDTH 14 0
BBX 10 20 2 0
BITMAP
0800
0600
0200
0C00
0000
8040
8040
8040
8040
8040
8040
8040
8040
8040
8040
8040
8040
4080
6180
1E00
ENDCHAR
STARTCHAR 1EE7
ENCODING 7911
SWIDTH 540 0
DWIDTH 12 0
BBX 8 17 2 0
BITMAP
10
08
08
10
00
00
81
81
81
81
81
81
81
81
83
C5
79
ENDCHAR
STARTCHAR 1EE8
ENCODING 7912
SWIDTH 630 0
DWIDTH 14 0
BBX 12 19 2 0
BITMAP
0200
0410
0810
0010
8060
8040
8040
8040
8040
8040
8040
8040
8040
8040
8040
8040
4080
6180
1E00
ENDCHAR
STARTCHAR 1EE9
ENCODING 7913
SWIDTH 540 0
DWIDTH 12 0
BBX 10 17 2 0
BITMAP
0400
0400
0800
1040
0040
0080
8100
8100
8100
8100
8100
8100
8100
8100
8300
C500
7900
ENDCHAR
STARTCHAR 1EEA
ENCODING 7914
SWIDTH 630 0
DWIDTH 14 0
BBX 12 19 2 0
BITMAP
1000
0810
0410
0010
8060
8040
8040
8040
8040
8040
8040
8040
8040
8040
8040
8040
4080
6180
1E00
ENDCHAR
STARTCHAR 1EEB
ENCODING 7915
SWIDTH 540 0
DWIDTH 12 0
BBX 10 16 2 1
BITMAP
2000
1000
0840
0040
0080
8100
8100
8100
8100
8100
8100
8100
8100
8300
C500
7900
ENDCHAR
STARTCHAR 1EEC
ENCODING 7916
SWIDTH 630 0
DWIDTH 14 0
BBX 12 20 2 0
BITMAP
0800
0410
0410
0C10
0030
8040
8040
8040
8040
8040
8040
8040
8040
8040
8040
8040
8040
4080
6180
1E00
ENDCHAR
STARTCHAR 1EED
ENCODING 7917
SWIDTH 540 0
DWIDTH 12 0
BBX 10 17 2 0
BITMAP
1000
0800
0800
1040
0040
0080
8100
8100
8100
8100
8100
8100
8100
8100
8300
C500
7900
ENDCHAR
STARTCHAR 1EEE
ENCODING 7918
SWIDTH 630 0
DWIDTH 14 0
BBX 12 19 2 0
BITMAP
3080
4D10
4310
0010
8060
8040
8040
8040
8040
8040
8040
8040
8040
8040
8040
8040
4080
6180
1E00
ENDCHAR
STARTCHAR 1EEF
ENCODING 7919
SWIDTH 540 0
DWIDTH 12 0
BBX 10 16 2 0
BITMAP
6000
9200
8C40
0040
0080
8100
8100
8100
8100
8100
8100
8100
8100
8300
C500
7900
ENDCHAR
STARTCHAR 1EF0
ENCODING 7920
SWIDTH 630 0
DWIDTH 14 0
BBX 12 22 2 -3
BITMAP
0010
0010
0010
8060
8040
8040
8040
8040
8040
8040
8040
8040
8040
8040
8040
4080
6180
1E00
0000
0000
0C00
0C00
ENDCHAR
STARTCHAR 1EF1
ENCODING 7921
SWIDTH 540 0
DWIDTH 12 0
BBX 10 18 2 -3
BITMAP
0040
0040
0080
8100
8100
8100
8100
8100
8100
8100
8100
8300
C500
7900
0000
0000
0800
1800
ENDCHAR
STARTCHAR 1EF2
ENCODING 7922
SWIDTH 450 0
DWIDTH 10 0
BBX 10 19 0 0
BITMAP
1000
0800
0400
0000
8040
4080
4080
2100
2100
1200
1200
0C00
0C00
0800
0800
0800
0800
0800
0800
ENDCHAR
STARTCHAR 1EF3
ENCODING 7923
SWIDTH 450 0
DWIDTH 10 0
BBX 9 21 0 -4
BITMAP
1000
0800
0400
0000
0000
C080
4080
4080
2100
2100
2100
1200
1200
1200
0C00
0C00
0800
0800
0800
1000
6000
ENDCHAR
STARTCHAR 1EF4
ENCODING 7924
SWIDTH 450 0
DWIDTH 10 0
BBX 10 19 0 -4
BITMAP
8040
4080
4080
2100
2100
1200
1200
0C00
0C00
0800
0800
0800
0800
0800
0800
0000
0000
0C00
0C00
ENDCHAR
STARTCHAR 1EF5
ENCODING 7925
SWIDTH 450 0
DWIDTH 10 0
BBX 9 16 0 -5
BITMAP
C080
4080
4080
2100
2100
2100
1200
1200
1200
0C00
0C00
0800
0800
0800
1180
6180
ENDCHAR
STARTCHAR 1EF6
ENCODING 7926
SWIDTH 450 0
DWIDTH 10 0
BBX 8 19 1 0
BITMAP
18
08
08
10
00
81
81
42
42
24
24
18
18
10
10
10
10
10
10
ENDCHAR
STARTCHAR 1EF7
ENCODING 7927
SWIDTH 450 0
DWIDTH 10 0
BBX 9 22 0 -5
BITMAP
0800
0600
0200
0C00
0000
0000
8080
4080
4080
2100
2100
2100
1200
1200
1200
0C00
0C00
0400
0800
0800
1000
6000
ENDCHAR
STARTCHAR 1EF8
ENCODING 7928
SWIDTH 450 0
DWIDTH 10 0
BBX 10 19 0 0
BITMAP
3080
4D00
4300
0000
8040
4080
4080
2100
2100
1200
1200
0C00
0C00
0800
0800
0800
0800
0800
0800
ENDCHAR
STARTCHAR 1EF9
ENCODING 7929
SWIDTH 450 0
DWIDTH 10 0
BBX 9 21 0 -5
BITMAP
3880
4500
4300
0000
0000
C080
4080
4080
2100
2100
2100
1200
1200
1200
0C00
0C00
0800
0800
0800
1000
6000
ENDCHAR
STARTCHAR 1F00
ENCODING 7936
SWIDTH 540 0
DWIDTH 12 0
BBX 10 17 1 0
BITMAP
0800
0600
0200
0C00
0000
0000
1E40
2140
4180
C080
8080
8080
8080
8080
4180
4280
3CC0
ENDCHAR
STARTCHAR 1F01
ENCODING 7937
SWIDTH 540 0
DWIDTH 12 0
BBX 10 17 1 0
BITMAP
0400
0800
0800
0C00
0000
0000
1E40
2140
4180
C080
8080
8080
8080
8080
4180
4280
3CC0
ENDCHAR
STARTCHAR 1F02
ENCODING 7938
SWIDTH 540 0
DWIDTH 12 0
BBX 10 17 1 0
BITMAP
3400
0A00
0A00
1200
0000
0000
1E40
2140
4180
C080
8080
8080
8080
8080
4180
4280
3CC0
ENDCHAR
STARTCHAR 1F03
ENCODING 7939
SWIDTH 540 0
DWIDTH 12 0
BBX 10 17 1 0
BITMAP
1400
2400
2200
1200
0000
0000
1E40
2140
4180
C080
8080
8080
8080
8080
4180
4280
3CC0
ENDCHAR
STARTCHAR 1F04
ENCODING 7940
SWIDTH 540 0
DWIDTH 12 0
BBX 10 17 1 0
BITMAP
3200
0A00
0A00
1400
0000
0000
1E40
2140
4180
C080
8080
8080
8080
8080
4180
4280
3CC0
ENDCHAR
STARTCHAR 1F05
ENCODING 7941
SWIDTH 540 0
DWIDTH 12 0
BBX 10 17 1 0
BITMAP
1A00
2200
2200
1400
0000
0000
1E40
2140
4180
C080
8080
8080
8080
8080
4180
4280
3CC0
ENDCHAR
STARTCHAR 1F06
ENCODING 7942
SWIDTH 540 0
DWIDTH 12 0
BBX 10 18 1 0
BITMAP
1900
2700
0000
0C00
0400
0000
0000
1E40
2140
4180
C080
8080
8080
8080
8080
4180
4280
3CC0
ENDCHAR
STARTCHAR 1F07
ENCODING 7943
SWIDTH 540 0
DWIDTH 12 0
BBX 10 18 1 0
BITMAP
1900
2700
0000
0C00
0800
0400
0000
1E40
2140
4180
C080
8080
8080
8080
8080
4180
4280
3CC0
ENDCHAR
STARTCHAR 1F08
ENCODING 7944
SWIDTH 540 0
DWIDTH 12 0
BBX 12 15 0 0
BITMAP
C600
2600
2600
4900
0900
0900
1080
1080
1080
3FC0
2040
2060
4020
4020
4030
ENDCHAR
STARTCHAR 1F09
ENCODING 7945
SWIDTH 540 0
DWIDTH 12 0
BBX 12 15 0 0
BITMAP
C600
8600
8600
4900
0900
0900
1080
1080
1080
3FC0
2040
2040
4020
4020
4030
ENDCHAR
STARTCHAR 1F0A
ENCODING 7946
SWIDTH 630 0
DWIDTH 14 0
BBX 14 15 0 0
BITMAP
9080
5140
5140
8940
0220
0220
0220
0410
0410
07F0
0808
0808
0808
1004
1004
ENDCHAR
STARTCHAR 1F0B
ENCODING 7947
SWIDTH 630 0
DWIDTH 14 0
BBX 14 15 0 0
BITMAP
D080
9180
9140
9140
0220
0220
0220
0410
0410
07F0
0808
0808
0808
1004
1004
ENDCHAR
STARTCHAR 1F0C
ENCODING 7948
SWIDTH 630 0
DWIDTH 14 0
BBX 14 15 0 0
BITMAP
9080
5140
5140
9140
0220
0220
0220
0410
0410
07F0
0808
0808
0808
1004
1004
ENDCHAR
STARTCHAR 1F0D
ENCODING 7949
SWIDTH 630 0
DWIDTH 14 0
BBX 14 15 0 0
BITMAP
D080
9180
9140
9140
0240
0220
0220
0410
0410
07F0
0808
0808
0808
1004
1004
ENDCHAR
STARTCHAR 1F0E
ENCODING 7950
SWIDTH 585 0
DWIDTH 13 0
BBX 12 15 0 0
BITMAP
D300
6300
2500
2480
4480
0880
0840
0840
1040
1FE0
1020
2020
2010
2010
4010
ENDCHAR
STARTCHAR 1F0F
ENCODING 7951
SWIDTH 585 0
DWIDTH 13 0
BBX 12 15 0 0
BITMAP
D300
2300
4500
4480
0480
0880
0840
0840
1040
1FE0
1020
2020
2010
2010
4010
ENDCHAR
STARTCHAR 1F10
ENCODING 7952
SWIDTH 450 0
DWIDTH 10 0
BBX 8 17 1 0
BITMAP
18
04
04
08
00
00
3E
41
40
40
60
3C
40
80
80
41
3E
ENDCHAR
STARTCHAR 1F11
ENCODING 7953
SWIDTH 450 0
DWIDTH 10 0
BBX 8 17 1 0
BITMAP
08
10
10
08
00
00
3E
41
40
40
60
3C
40
80
80
41
3E
ENDCHAR
STARTCHAR 1F12
ENCODING 7954
SWIDTH 450 0
DWIDTH 10 0
BBX 8 17 1 0
BITMAP
6C
14
14
24
00
00
3E
41
40
40
60
3C
40
80
80
41
3E
ENDCHAR
STARTCHAR 1F13
ENCODING 7955
SWIDTH 450 0
DWIDTH 10 0
BBX 8 17 1 0
BITMAP
38
44
44
24
00
00
3E
41
40
40
60
3C
40
80
80
41
3E
ENDCHAR
STARTCHAR 1F14
ENCODING 7956
SWIDTH 450 0
DWIDTH 10 0
BBX 8 17 1 0
BITMAP
62
14
14
24
00
00
3E
41
40
40
60
3C
40
80
80
41
3E
ENDCHAR
STARTCHAR 1F15
ENCODING 7957
SWIDTH 450 0
DWIDTH 10 0
BBX 8 17 1 0
BITMAP
14
64
44
28
00
00
3E
41
40
40
60
3C
40
80
80
41
3E
ENDCHAR
STARTCHAR 1F18
ENCODING 7960
SWIDTH 585 0
DWIDTH 13 0
BBX 12 15 0 0
BITMAP
CFF0
4800
4800
4800
8800
0800
0800
0FE0
0800
0800
0800
0800
0800
0800
0FF0
ENDCHAR
STARTCHAR 1F19
ENCODING 7961
SWIDTH 585 0
DWIDTH 13 0
BBX 12 15 0 0
BITMAP
CFF0
8800
8800
8800
0800
0800
0800
0FE0
0800
0800
0800
0800
0800
0800
0FF0
ENDCHAR
STARTCHAR 1F1A
ENCODING 7962
SWIDTH 720 0
DWIDTH 16 0
BBX 15 15 0 0
BITMAP
93FC
5200
5200
4A00
8200
0200
0200
03F8
0200
0200
0200
0200
0200
0200
03FE
ENDCHAR
STARTCHAR 1F1B
ENCODING 7963
SWIDTH 675 0
DWIDTH 15 0
BBX 14 15 0 0
BITMAP
D3FC
9200
9200
9200
0200
0200
0200
03F8
0200
0200
0200
0200
0200
0200
03FC
ENDCHAR
STARTCHAR 1F1C
ENCODING 7964
SWIDTH 720 0
DWIDTH 16 0
BBX 14 15 0 0
BITMAP
93FC
5200
5200
5200
8200
0200
0200
03F8
0200
0200
0200
0200
0200
0200
03FC
ENDCHAR
STARTCHAR 1F1D
ENCODING 7965
SWIDTH 675 0
DWIDTH 15 0
BBX 14 15 0 0
BITMAP
D3FC
9200
9200
9200
0200
0200
0200
03F8
0200
0200
0200
0200
0200
0200
03FC
ENDCHAR
STARTCHAR 1F20
ENCODING 7968
SWIDTH 540 0
DWIDTH 12 0
BBX 8 21 2 -4
BITMAP
18
04
04
08
00
00
9E
A2
C1
81
81
81
81
81
81
81
81
01
01
01
01
ENDCHAR
STARTCHAR 1F21
ENCODING 7969
SWIDTH 540 0
DWIDTH 12 0
BBX 8 21 2 -4
BITMAP
08
10
10
08
00
00
9E
A2
C1
81
81
81
81
81
81
81
81
01
01
01
01
ENDCHAR
STARTCHAR 1F22
ENCODING 7970
SWIDTH 540 0
DWIDTH 12 0
BBX 8 21 2 -4
BITMAP
6C
14
14
24
00
00
9E
A2
C1
81
81
81
81
81
81
81
81
01
01
01
01
ENDCHAR
STARTCHAR 1F23
ENCODING 7971
SWIDTH 540 0
DWIDTH 12 0
BBX 8 21 2 -4
BITMAP
38
44
44
24
00
00
9E
A2
C1
81
81
81
81
81
81
81
81
01
01
01
01
ENDCHAR
STARTCHAR 1F24
ENCODING 7972
SWIDTH 540 0
DWIDTH 12 0
BBX 8 21 2 -4
BITMAP
66
14
14
24
00
00
9E
A2
C1
81
81
81
81
81
81
81
81
01
01
01
01
ENDCHAR
STARTCHAR 1F25
ENCODING 7973
SWIDTH 540 0
DWIDTH 12 0
BBX 8 21 2 -4
BITMAP
34
44
44
28
00
00
9E
A2
C1
81
81
81
81
81
81
81
81
01
01
01
01
ENDCHAR
STARTCHAR 1F26
ENCODING 7974
SWIDTH 540 0
DWIDTH 12 0
BBX 8 22 2 -4
BITMAP
32
4E
00
18
08
00
00
9E
A2
C1
81
81
81
81
81
81
81
81
01
01
01
01
ENDCHAR
STARTCHAR 1F27
ENCODING 7975
SWIDTH 540 0
DWIDTH 12 0
BBX 8 22 2 -4
BITMAP
32
4E
00
18
10
08
00
9E
A2
C1
81
81
81
81
81
81
81
81
01
01
01
01
ENDCHAR
STARTCHAR 1F28
ENCODING 7976
SWIDTH 720 0
DWIDTH 16 0
BBX 14 15 0 0
BITMAP
C804
4804
4804
4804
8804
0804
0804
0FFC
0804
0804
0804
0804
0804
0804
0804
ENDCHAR
STARTCHAR 1F29
ENCODING 7977
SWIDTH 720 0
DWIDTH 16 0
BBX 14 15 0 0
BITMAP
C804
8804
8804
8804
0804
0804
0804
0FFC
0804
0804
0804
0804
0804
0804
0804
ENDCHAR
STARTCHAR 1F2A
ENCODING 7978
SWIDTH 810 0
DWIDTH 18 0
BBX 16 15 0 0
BITMAP
9201
5201
5201
4A01
8201
0201
0201
03FF
0201
0201
0201
0201
0201
0201
0201
ENDCHAR
STARTCHAR 1F2B
ENCODING 7979
SWIDTH 810 0
DWIDTH 18 0
BBX 16 15 0 0
BITMAP
D201
9201
9201
9201
0201
0201
0201
03FF
0201
0201
0201
0201
0201
0201
0201
ENDCHAR
STARTCHAR 1F2C
ENCODING 7980
SWIDTH 810 0
DWIDTH 18 0
BBX 16 15 0 0
BITMAP
9201
5201
5201
5201
8201
0201
0201
03FF
0201
0201
0201
0201
0201
0201
0201
ENDCHAR
STARTCHAR 1F2D
ENCODING 7981
SWIDTH 810 0
DWIDTH 18 0
BBX 16 15 0 0
BITMAP
D201
9201
9201
9201
0201
0201
0201
03FF
0201
0201
0201
0201
0201
0201
0201
ENDCHAR
STARTCHAR 1F2E
ENCODING 7982
SWIDTH 810 0
DWIDTH 18 0
BBX 16 15 0 0
BITMAP
D201
2201
6201
2201
4201
0201
0201
03FF
0201
0201
0201
0201
0201
0201
0201
ENDCHAR
STARTCHAR 1F2F
ENCODING 7983
SWIDTH 810 0
DWIDTH 18 0
BBX 16 15 0 0
BITMAP
D201
2201
6201
8201
4201
0201
0201
03FF
0201
0201
0201
0201
0201
0201
0201
ENDCHAR
STARTCHAR 1F30
ENCODING 7984
SWIDTH 225 0
DWIDTH 5 0
BBX 3 17 1 0
BITMAP
C0
20
20
40
00
00
40
40
40
40
40
40
40
40
40
40
60
ENDCHAR
STARTCHAR 1F31
ENCODING 7985
SWIDTH 225 0
DWIDTH 5 0
BBX 3 17 1 0
BITMAP
60
80
80
40
00
00
40
40
40
40
40
40
40
40
40
40
60
ENDCHAR
STARTCHAR 1F32
ENCODING 7986
SWIDTH 225 0
DWIDTH 5 0
BBX 5 17 0 0
BITMAP
90
50
50
88
00
00
20
20
20
20
20
20
20
20
20
20
30
ENDCHAR
STARTCHAR 1F33
ENCODING 7987
SWIDTH 225 0
DWIDTH 5 0
BBX 5 17 -1 0
BITMAP
28
C8
88
48
00
00
10
10
10
10
10
10
10
10
10
10
18
ENDCHAR
STARTCHAR 1F34
ENCODING 7988
SWIDTH 225 0
DWIDTH 5 0
BBX 5 17 0 0
BITMAP
88
50
50
90
00
00
20
20
20
20
20
20
20
20
20
20
30
ENDCHAR
STARTCHAR 1F35
ENCODING 7989
SWIDTH 225 0
DWIDTH 5 0
BBX 5 17 0 0
BITMAP
48
90
90
50
00
00
20
20
20
20
20
20
20
20
20
20
30
ENDCHAR
STARTCHAR 1F36
ENCODING 7990
SWIDTH 225 0
DWIDTH 5 0
BBX 5 18 0 0
BITMAP
C0
B8
00
60
10
20
00
20
20
20
20
20
20
20
20
20
20
30
ENDCHAR
STARTCHAR 1F37
ENCODING 7991
SWIDTH 225 0
DWIDTH 5 0
BBX 5 18 0 0
BITMAP
C0
B8
00
30
40
20
00
20
20
20
20
20
20
20
20
20
20
30
ENDCHAR
STARTCHAR 1F38
ENCODING 7992
SWIDTH 315 0
DWIDTH 7 0
BBX 5 15 0 0
BITMAP
C8
48
48
48
88
08
08
08
08
08
08
08
08
08
08
ENDCHAR
STARTCHAR 1F39
ENCODING 7993
SWIDTH 315 0
DWIDTH 7 0
BBX 5 15 0 0
BITMAP
C8
88
88
48
08
08
08
08
08
08
08
08
08
08
08
ENDCHAR
STARTCHAR 1F3A
ENCODING 7994
SWIDTH 405 0
DWIDTH 9 0
BBX 7 15 0 0
BITMAP
92
52
52
8A
02
02
02
02
02
02
02
02
02
02
02
ENDCHAR
STARTCHAR 1F3B
ENCODING 7995
SWIDTH 405 0
DWIDTH 9 0
BBX 7 15 0 0
BITMAP
D2
92
92
92
02
02
02
02
02
02
02
02
02
02
02
ENDCHAR
STARTCHAR 1F3C
ENCODING 7996
SWIDTH 405 0
DWIDTH 9 0
BBX 7 15 0 0
BITMAP
92
52
52
92
02
02
02
02
02
02
02
02
02
02
02
ENDCHAR
STARTCHAR 1F3D
ENCODING 7997
SWIDTH 405 0
DWIDTH 9 0
BBX 7 15 0 0
BITMAP
D2
92
92
92
02
02
02
02
02
02
02
02
02
02
02
ENDCHAR
STARTCHAR 1F3E
ENCODING 7998
SWIDTH 405 0
DWIDTH 9 0
BBX 7 15 0 0
BITMAP
D2
22
62
22
42
02
02
02
02
02
02
02
02
02
02
ENDCHAR
STARTCHAR 1F3F
ENCODING 7999
SWIDTH 405 0
DWIDTH 9 0
BBX 7 15 0 0
BITMAP
D2
22
62
82
42
02
02
02
02
02
02
02
02
02
02
ENDCHAR
STARTCHAR 1F40
ENCODING 8000
SWIDTH 540 0
DWIDTH 12 0
BBX 9 17 1 0
BITMAP
0800
0400
0400
0800
0000
0000
1E00
6100
4080
8080
8080
8080
8080
8080
4080
6100
1E00
ENDCHAR
STARTCHAR 1F41
ENCODING 8001
SWIDTH 540 0
DWIDTH 12 0
BBX 9 17 1 0
BITMAP
0400
1800
1000
0C00
0000
0000
1E00
6100
4080
8080
8080
8080
8080
8080
4080
6100
1E00
ENDCHAR
STARTCHAR 1F42
ENCODING 8002
SWIDTH 540 0
DWIDTH 12 0
BBX 9 17 1 0
BITMAP
2400
1400
1200
3200
0000
0000
1E00
6100
4080
8080
8080
8080
8080
8080
4080
6100
1E00
ENDCHAR
STARTCHAR 1F43
ENCODING 8003
SWIDTH 540 0
DWIDTH 12 0
BBX 9 17 1 0
BITMAP
1400
2400
2400
3200
0000
0000
1E00
6100
4080
8080
8080
8080
8080
8080
4080
6100
1E00
ENDCHAR
STARTCHAR 1F44
ENCODING 8004
SWIDTH 540 0
DWIDTH 12 0
BBX 9 17 1 0
BITMAP
2200
1200
1400
3400
0000
0000
1E00
6100
4080
8080
8080
8080
8080
8080
4080
6100
1E00
ENDCHAR
STARTCHAR 1F45
ENCODING 8005
SWIDTH 540 0
DWIDTH 12 0
BBX 9 17 1 0
BITMAP
1200
2200
2400
1400
0000
0000
1E00
6100
4080
8080
8080
8080
8080
8080
4080
6100
1E00
ENDCHAR
STARTCHAR 1F48
ENCODING 8008
SWIDTH 720 0
DWIDTH 16 0
BBX 15 15 0 0
BITMAP
C3E0
4618
4808
C804
1004
1002
1002
1002
1002
1002
1004
0804
0808
0618
03E0
ENDCHAR
STARTCHAR 1F49
ENCODING 8009
SWIDTH 720 0
DWIDTH 16 0
BBX 15 15 0 0
BITMAP
C3E0
8410
8808
D004
1004
1004
1006
1006
1006
1004
1004
1004
0808
0410
03E0
ENDCHAR
STARTCHAR 1F4A
ENCODING 8010
SWIDTH 810 0
DWIDTH 18 0
BBX 17 15 0 0
BITMAP
907C00
518600
530100
8A0100
020080
040080
040080
040080
040080
040080
020080
020100
030100
018600
007800
ENDCHAR
STARTCHAR 1F4B
ENCODING 8011
SWIDTH 810 0
DWIDTH 18 0
BBX 17 15 0 0
BITMAP
D07800
918600
930300
920100
040080
040080
040080
040080
040080
040080
060080
020100
030300
018600
007800
ENDCHAR
STARTCHAR 1F4C
ENCODING 8012
SWIDTH 810 0
DWIDTH 18 0
BBX 17 15 0 0
BITMAP
907800
518600
530300
920100
060080
040080
040080
040080
040080
040080
060080
020100
030300
018600
007800
ENDCHAR
STARTCHAR 1F4D
ENCODING 8013
SWIDTH 810 0
DWIDTH 18 0
BBX 17 15 0 0
BITMAP
D07800
918600
930300
920100
040180
040080
040080
040080
040080
040080
040180
020100
030300
018600
007800
ENDCHAR
STARTCHAR 1F50
ENCODING 8016
SWIDTH 495 0
DWIDTH 11 0
BBX 8 17 2 0
BITMAP
20
18
08
30
00
00
82
82
82
81
81
81
81
82
82
86
78
ENDCHAR
STARTCHAR 1F51
ENCODING 8017
SWIDTH 495 0
DWIDTH 11 0
BBX 8 17 2 0
BITMAP
10
20
20
30
00
00
82
82
82
81
81
81
81
82
82
86
78
ENDCHAR
STARTCHAR 1F52
ENCODING 8018
SWIDTH 495 0
DWIDTH 11 0
BBX 8 17 2 0
BITMAP
D0
28
28
48
00
00
82
82
82
81
81
81
81
82
82
86
78
ENDCHAR
STARTCHAR 1F53
ENCODING 8019
SWIDTH 495 0
DWIDTH 11 0
BBX 8 17 2 0
BITMAP
50
90
88
48
00
00
82
82
82
81
81
81
81
82
82
86
78
ENDCHAR
STARTCHAR 1F54
ENCODING 8020
SWIDTH 495 0
DWIDTH 11 0
BBX 8 17 2 0
BITMAP
C8
28
28
50
00
00
82
82
82
81
81
81
81
82
82
86
78
ENDCHAR
STARTCHAR 1F55
ENCODING 8021
SWIDTH 495 0
DWIDTH 11 0
BBX 8 17 2 0
BITMAP
68
88
88
50
00
00
82
82
82
81
81
81
81
82
82
86
78
ENDCHAR
STARTCHAR 1F56
ENCODING 8022
SWIDTH 495 0
DWIDTH 11 0
BBX 8 18 2 0
BITMAP
64
9C
00
30
10
00
00
82
82
82
81
81
81
81
82
82
86
78
ENDCHAR
STARTCHAR 1F57
ENCODING 8023
SWIDTH 495 0
DWIDTH 11 0
BBX 8 18 2 0
BITMAP
64
9C
00
30
20
10
00
82
82
82
81
81
81
81
82
82
86
78
ENDCHAR
STARTCHAR 1F59
ENCODING 8025
SWIDTH 585 0
DWIDTH 13 0
BBX 13 15 0 0
BITMAP
C808
8810
8410
4420
0220
0240
0140
0180
0080
0080
0080
0080
0080
0080
0080
ENDCHAR
STARTCHAR 1F5B
ENCODING 8027
SWIDTH 675 0
DWIDTH 15 0
BBX 15 15 0 0
BITMAP
D202
9204
9104
9108
0088
0088
0050
0050
0020
0020
0020
0020
0020
0020
0020
ENDCHAR
STARTCHAR 1F5D
ENCODING 8029
SWIDTH 675 0
DWIDTH 15 0
BBX 15 15 0 0
BITMAP
D202
9204
9104
9108
0088
0090
0050
0050
0020
0020
0020
0020
0020
0020
0020
ENDCHAR
STARTCHAR 1F5F
ENCODING 8031
SWIDTH 675 0
DWIDTH 15 0
BBX 15 15 0 0
BITMAP
D402
2204
6204
8108
4108
0090
0090
0060
0060
0040
0040
0040
0040
0040
0040
ENDCHAR
STARTCHAR 1F60
ENCODING 8032
SWIDTH 675 0
DWIDTH 15 0
BBX 13 17 1 0
BITMAP
0600
0100
0100
0200
0000
0000
2020
6030
4010
4010
8208
8208
8208
8208
4210
4510
38E0
ENDCHAR
STARTCHAR 1F61
ENCODING 8033
SWIDTH 675 0
DWIDTH 15 0
BBX 13 17 1 0
BITMAP
0300
0400
0400
0200
0000
0000
2020
6030
4010
4010
8208
8208
8208
8208
4210
4510
38E0
ENDCHAR
STARTCHAR 1F62
ENCODING 8034
SWIDTH 675 0
DWIDTH 15 0
BBX 13 17 1 0
BITMAP
0900
0500
0500
0900
0000
0000
2020
6030
4010
4010
8208
8208
8208
8208
4210
4510
38E0
ENDCHAR
STARTCHAR 1F63
ENCODING 8035
SWIDTH 675 0
DWIDTH 15 0
BBX 13 17 1 0
BITMAP
0F00
1100
1100
0900
0000
0000
2020
6030
4010
4010
8208
8208
8208
8208
4210
4510
38E0
ENDCHAR
STARTCHAR 1F64
ENCODING 8036
SWIDTH 675 0
DWIDTH 15 0
BBX 13 17 1 0
BITMAP
0880
0500
0500
0900
0000
0000
2020
6030
4010
4010
8208
8208
8208
8208
4210
4510
38E0
ENDCHAR
STARTCHAR 1F65
ENCODING 8037
SWIDTH 675 0
DWIDTH 15 0
BBX 13 17 1 0
BITMAP
0580
0900
1100
0D00
0000
0000
2020
6030
4010
4010
8208
8208
8208
8208
4210
4510
38E0
ENDCHAR
STARTCHAR 1F66
ENCODING 8038
SWIDTH 675 0
DWIDTH 15 0
BBX 13 18 1 0
BITMAP
0C00
1380
0000
0600
0100
0200
0000
2020
6030
4010
4010
8208
8208
8208
8208
4210
4510
38E0
ENDCHAR
STARTCHAR 1F67
ENCODING 8039
SWIDTH 675 0
DWIDTH 15 0
BBX 13 18 1 0
BITMAP
0C00
1380
0000
0300
0400
0000
0000
2020
6030
4010
4010
8208
8208
8208
8208
4210
4510
38E0
ENDCHAR
STARTCHAR 1F68
ENCODING 8040
SWIDTH 720 0
DWIDTH 16 0
BBX 15 15 0 0
BITMAP
C3E0
4618
480C
4804
9006
1002
1002
1002
1002
1002
1004
0804
0C08
0418
1E3E
ENDCHAR
STARTCHAR 1F69
ENCODING 8041
SWIDTH 720 0
DWIDTH 16 0
BBX 15 15 0 0
BITMAP
C3E0
8410
8808
D004
1004
1006
1002
1002
1002
1004
1004
0804
0808
0410
3E3E
ENDCHAR
STARTCHAR 1F6A
ENCODING 8042
SWIDTH 810 0
DWIDTH 18 0
BBX 17 15 0 0
BITMAP
907C00
518600
530100
8A0100
020080
040080
040080
040080
040080
040080
020080
020100
010100
008200
07C780
ENDCHAR
STARTCHAR 1F6B
ENCODING 8043
SWIDTH 810 0
DWIDTH 18 0
BBX 17 15 0 0
BITMAP
D07800
918600
930100
920100
060080
040080
040080
040080
040080
040080
020180
020100
010300
018200
07C780
ENDCHAR
STARTCHAR 1F6C
ENCODING 8044
SWIDTH 810 0
DWIDTH 18 0
BBX 17 15 0 0
BITMAP
907C00
518600
530100
920100
020080
040080
040080
040080
040080
040080
020080
020100
010100
018200
07C780
ENDCHAR
STARTCHAR 1F6D
ENCODING 8045
SWIDTH 810 0
DWIDTH 18 0
BBX 17 15 0 0
BITMAP
D07800
918600
930100
920100
040080
040080
040080
040080
040080
040080
020180
020100
010200
018200
078780
ENDCHAR
STARTCHAR 1F6E
ENCODING 8046
SWIDTH 765 0
DWIDTH 17 0
BBX 16 15 0 0
BITMAP
F0F0
030C
6602
2402
4C01
0801
0801
0801
0801
0801
0401
0402
0206
0304
0F8F
ENDCHAR
STARTCHAR 1F6F
ENCODING 8047
SWIDTH 765 0
DWIDTH 17 0
BBX 16 15 0 0
BITMAP
F0F0
030C
6602
8402
4C01
0801
0801
0801
0801
0801
0401
0402
0206
0304
0F8F
ENDCHAR
STARTCHAR 1F70
ENCODING 8048
SWIDTH 540 0
DWIDTH 12 0
BBX 10 16 1 1
BITMAP
1000
0800
0400
0000
0000
1E40
2140
4180
C080
8080
8080
8080
8080
4180
4280
3CC0
ENDCHAR
STARTCHAR 1F71
ENCODING 8049
SWIDTH 540 0
DWIDTH 12 0
BBX 10 16 1 1
BITMAP
0200
0400
0800
0000
0000
1E40
2140
4180
C080
8080
8080
8080
8080
4180
4280
3CC0
ENDCHAR
STARTCHAR 1F72
ENCODING 8050
SWIDTH 450 0
DWIDTH 10 0
BBX 8 17 1 0
BITMAP
20
30
10
08
00
00
3E
41
40
40
60
3C
40
80
80
41
3E
ENDCHAR
STARTCHAR 1F73
ENCODING 8051
SWIDTH 450 0
DWIDTH 10 0
BBX 8 16 1 1
BITMAP
04
08
10
00
00
3E
41
40
40
60
3C
40
80
80
41
3E
ENDCHAR
STARTCHAR 1F74
ENCODING 8052
SWIDTH 540 0
DWIDTH 12 0
BBX 8 21 2 -4
BITMAP
20
20
10
08
00
00
9E
A2
C1
81
81
81
81
81
81
81
81
01
01
01
01
ENDCHAR
STARTCHAR 1F75
ENCODING 8053
SWIDTH 540 0
DWIDTH 12 0
BBX 8 20 2 -3
BITMAP
04
08
10
00
00
9E
A2
C1
81
81
81
81
81
81
81
81
01
01
01
01
ENDCHAR
STARTCHAR 1F76
ENCODING 8054
SWIDTH 225 0
DWIDTH 5 0
BBX 4 16 0 1
BITMAP
C0
20
10
00
00
20
20
20
20
20
20
20
20
20
20
30
ENDCHAR
STARTCHAR 1F77
ENCODING 8055
SWIDTH 225 0
DWIDTH 5 0
BBX 4 17 1 0
BITMAP
10
30
60
C0
00
00
40
40
40
40
40
40
40
40
40
40
60
ENDCHAR
STARTCHAR 1F78
ENCODING 8056
SWIDTH 540 0
DWIDTH 12 0
BBX 9 16 1 1
BITMAP
1000
0800
0400
0000
0000
1E00
6100
4080
8080
8080
8080
8080
8080
4080
6100
1E00
ENDCHAR
STARTCHAR 1F79
ENCODING 8057
SWIDTH 540 0
DWIDTH 12 0
BBX 9 17 1 0
BITMAP
0200
0200
0400
0800
0000
0000
1E00
6100
4080
8080
8080
8080
8080
8080
4080
6100
1E00
ENDCHAR
STARTCHAR 1F7A
ENCODING 8058
SWIDTH 495 0
DWIDTH 11 0
BBX 8 16 2 1
BITMAP
40
20
10
00
00
82
82
82
81
81
81
81
82
82
86
78
ENDCHAR
STARTCHAR 1F7B
ENCODING 8059
SWIDTH 495 0
DWIDTH 11 0
BBX 8 16 2 1
BITMAP
08
10
20
00
00
82
82
82
81
81
81
81
82
82
86
78
ENDCHAR
STARTCHAR 1F7C
ENCODING 8060
SWIDTH 675 0
DWIDTH 15 0
BBX 13 16 1 1
BITMAP
0C00
0600
0200
0000
0000
2020
6030
4010
4010
8208
8208
8208
8208
4210
4510
38E0
ENDCHAR
STARTCHAR 1F7D
ENCODING 8061
SWIDTH 675 0
DWIDTH 15 0
BBX 13 16 1 1
BITMAP
0180
0300
0200
0000
0000
2020
6030
4010
4010
8208
8208
8208
8208
4210
4510
38E0
ENDCHAR
STARTCHAR 1F80
ENCODING 8064
SWIDTH 540 0
DWIDTH 12 0
BBX 10 21 1 -4
BITMAP
0800
0600
0200
0C00
0000
0000
1E40
2140
4180
C080
8080
8080
8080
8080
4180
4280
3CC0
0000
0400
0400
0600
ENDCHAR
STARTCHAR 1F81
ENCODING 8065
SWIDTH 540 0
DWIDTH 12 0
BBX 10 21 1 -4
BITMAP
0400
0800
0800
0C00
0000
0000
1E40
2140
4180
C080
8080
8080
8080
8080
4180
4280
3CC0
0000
0400
0400
0600
ENDCHAR
STARTCHAR 1F82
ENCODING 8066
SWIDTH 540 0
DWIDTH 12 0
BBX 10 21 1 -4
BITMAP
3400
0A00
0A00
1200
0000
0000
1E40
2140
4180
C080
8080
8080
8080
8080
4180
4280
3CC0
0000
0400
0400
0600
ENDCHAR
STARTCHAR 1F83
ENCODING 8067
SWIDTH 540 0
DWIDTH 12 0
BBX 10 21 1 -4
BITMAP
1400
2400
2200
1200
0000
0000
1E40
2140
4180
C080
8080
8080
8080
8080
4180
4280
3CC0
0000
0400
0400
0600
ENDCHAR
STARTCHAR 1F84
ENCODING 8068
SWIDTH 540 0
DWIDTH 12 0
BBX 10 21 1 -4
BITMAP
3200
0A00
0A00
1400
0000
0000
1E40
2140
4180
C080
8080
8080
8080
8080
4180
4280
3CC0
0000
0400
0400
0600
ENDCHAR
STARTCHAR 1F85
ENCODING 8069
SWIDTH 540 0
DWIDTH 12 0
BBX 10 21 1 -4
BITMAP
1A00
2200
2200
1400
0000
0000
1E40
2140
4180
C080
8080
8080
8080
8080
4180
4280
3CC0
0000
0400
0400
0600
ENDCHAR
STARTCHAR 1F86
ENCODING 8070
SWIDTH 540 0
DWIDTH 12 0
BBX 10 22 1 -4
BITMAP
1900
2700
0000
0C00
0400
0000
0000
1E40
2140
4180
C080
8080
8080
8080
8080
4180
4280
3CC0
0000
0400
0400
0600
ENDCHAR
STARTCHAR 1F87
ENCODING 8071
SWIDTH 540 0
DWIDTH 12 0
BBX 10 22 1 -4
BITMAP
1900
2700
0000
0C00
0800
0400
0000
1E40
2140
4180
C080
8080
8080
8080
8080
4180
4280
3CC0
0000
0400
0400
0600
ENDCHAR
STARTCHAR 1F88
ENCODING 8072
SWIDTH 765 0
DWIDTH 17 0
BBX 16 15 0 0
BITMAP
C600
2600
2600
4900
0900
0900
1082
1082
1082
3FC2
2042
2062
4022
4022
4033
ENDCHAR
STARTCHAR 1F89
ENCODING 8073
SWIDTH 765 0
DWIDTH 17 0
BBX 16 15 0 0
BITMAP
C600
8600
8600
4900
0900
0900
1082
1082
1082
3FC2
2042
2042
4022
4022
4033
ENDCHAR
STARTCHAR 1F8A
ENCODING 8074
SWIDTH 900 0
DWIDTH 20 0
BBX 19 15 0 0
BITMAP
908000
514000
514000
894000
022000
022000
022080
041080
041080
07F080
080880
080880
080880
100480
100460
ENDCHAR
STARTCHAR 1F8B
ENCODING 8075
SWIDTH 900 0
DWIDTH 20 0
BBX 19 15 0 0
BITMAP
D08000
918000
914000
914000
022000
022000
022080
041080
041080
07F080
080880
080880
080880
100480
100460
ENDCHAR
STARTCHAR 1F8C
ENCODING 8076
SWIDTH 900 0
DWIDTH 20 0
BBX 19 15 0 0
BITMAP
908000
514000
514000
914000
022000
022000
022080
041080
041080
07F080
080880
080880
080880
100480
100460
ENDCHAR
STARTCHAR 1F8D
ENCODING 8077
SWIDTH 900 0
DWIDTH 20 0
BBX 19 15 0 0
BITMAP
D08000
918000
914000
914000
024000
022000
022080
041080
041080
07F080
080880
080880
080880
100480
100460
ENDCHAR
STARTCHAR 1F8E
ENCODING 8078
SWIDTH 810 0
DWIDTH 18 0
BBX 17 15 0 0
BITMAP
D30000
630000
250000
248000
448000
088000
084100
084100
104100
1FE100
102100
202100
201100
201100
401180
ENDCHAR
STARTCHAR 1F8F
ENCODING 8079
SWIDTH 810 0
DWIDTH 18 0
BBX 17 15 0 0
BITMAP
D30000
230000
450000
448000
048000
088000
084100
084100
104100
1FE100
102100
202100
201100
201100
401180
ENDCHAR
STARTCHAR 1F90
ENCODING 8080
SWIDTH 540 0
DWIDTH 12 0
BBX 8 21 2 -4
BITMAP
18
04
04
08
00
00
9E
A2
C1
81
81
81
81
81
81
81
81
01
81
81
C1
ENDCHAR
STARTCHAR 1F91
ENCODING 8081
SWIDTH 540 0
DWIDTH 12 0
BBX 8 21 2 -4
BITMAP
08
10
10
08
00
00
9E
A2
C1
81
81
81
81
81
81
81
81
01
81
81
C1
ENDCHAR
STARTCHAR 1F92
ENCODING 8082
SWIDTH 540 0
DWIDTH 12 0
BBX 8 21 2 -4
BITMAP
6C
14
14
24
00
00
9E
A2
C1
81
81
81
81
81
81
81
81
01
81
81
C1
ENDCHAR
STARTCHAR 1F93
ENCODING 8083
SWIDTH 540 0
DWIDTH 12 0
BBX 8 21 2 -4
BITMAP
38
44
44
24
00
00
9E
A2
C1
81
81
81
81
81
81
81
81
01
81
81
C1
ENDCHAR
STARTCHAR 1F94
ENCODING 8084
SWIDTH 540 0
DWIDTH 12 0
BBX 8 21 2 -4
BITMAP
66
14
14
24
00
00
9E
A2
C1
81
81
81
81
81
81
81
81
01
81
81
C1
ENDCHAR
STARTCHAR 1F95
ENCODING 8085
SWIDTH 540 0
DWIDTH 12 0
BBX 8 21 2 -4
BITMAP
34
44
44
28
00
00
9E
A2
C1
81
81
81
81
81
81
81
81
01
81
81
C1
ENDCHAR
STARTCHAR 1F96
ENCODING 8086
SWIDTH 540 0
DWIDTH 12 0
BBX 8 22 2 -4
BITMAP
32
4E
00
18
08
00
00
9E
A2
C1
81
81
81
81
81
81
81
81
01
81
81
C1
ENDCHAR
STARTCHAR 1F97
ENCODING 8087
SWIDTH 540 0
DWIDTH 12 0
BBX 8 22 2 -4
BITMAP
32
4E
00
18
10
08
00
9E
A2
C1
81
81
81
81
81
81
81
81
01
81
81
C1
ENDCHAR
STARTCHAR 1F98
ENCODING 8088
SWIDTH 990 0
DWIDTH 22 0
BBX 21 15 0 0
BITMAP
C80400
480400
480400
480400
880400
080400
080420
0FFC20
080420
080420
080420
080420
080420
080420
080418
ENDCHAR
STARTCHAR 1F99
ENCODING 8089
SWIDTH 990 0
DWIDTH 22 0
BBX 21 15 0 0
BITMAP
C80400
880400
880400
880400
080400
080400
080420
0FFC20
080420
080420
080420
080420
080420
080420
080418
ENDCHAR
STARTCHAR 1F9A
ENCODING 8090
SWIDTH 1080 0
DWIDTH 24 0
BBX 23 15 0 0
BITMAP
920100
520100
520100
8A0100
020100
020100
03FF08
020108
020108
020108
020108
020108
020108
020108
020106
ENDCHAR
STARTCHAR 1F9B
ENCODING 8091
SWIDTH 1035 0
DWIDTH 23 0
BBX 23 15 0 0
BITMAP
D20100
920100
920100
420100
020100
020100
03FF08
020108
020108
020108
020108
020108
020108
020108
020106
ENDCHAR
STARTCHAR 1F9C
ENCODING 8092
SWIDTH 1080 0
DWIDTH 24 0
BBX 23 15 0 0
BITMAP
920100
520100
520100
920100
020100
020100
03FF08
020108
020108
020108
020108
020108
020108
020108
020106
ENDCHAR
STARTCHAR 1F9D
ENCODING 8093
SWIDTH 1035 0
DWIDTH 23 0
BBX 23 15 0 0
BITMAP
D20100
920100
920100
520100
020100
020100
03FF08
020108
020108
020108
020108
020108
020108
020108
020106
ENDCHAR
STARTCHAR 1F9E
ENCODING 8094
SWIDTH 1035 0
DWIDTH 23 0
BBX 22 15 0 0
BITMAP
D20100
620100
220100
620100
020100
020108
03FF08
020108
020108
020108
020108
020108
020108
020108
02010C
ENDCHAR
STARTCHAR 1F9F
ENCODING 8095
SWIDTH 1035 0
DWIDTH 23 0
BBX 22 15 0 0
BITMAP
D20100
220100
420100
420100
020100
020108
03FF08
020108
020108
020108
020108
020108
020108
020108
02010C
ENDCHAR
STARTCHAR 1FA0
ENCODING 8096
SWIDTH 675 0
DWIDTH 15 0
BBX 13 21 1 -4
BITMAP
0600
0100
0100
0200
0000
0000
2020
6030
4010
4010
8208
8208
8208
8208
4210
4510
38E0
0000
0200
0200
0300
ENDCHAR
STARTCHAR 1FA1
ENCODING 8097
SWIDTH 675 0
DWIDTH 15 0
BBX 13 21 1 -4
BITMAP
0300
0400
0400
0200
0000
0000
2020
6030
4010
4010
8208
8208
8208
8208
4210
4510
38E0
0000
0200
0200
0300
ENDCHAR
STARTCHAR 1FA2
ENCODING 8098
SWIDTH 675 0
DWIDTH 15 0
BBX 13 21 1 -4
BITMAP
0900
0500
0500
0900
0000
0000
2020
6030
4010
4010
8208
8208
8208
8208
4210
4510
38E0
0000
0200
0200
0300
ENDCHAR
STARTCHAR 1FA3
ENCODING 8099
SWIDTH 675 0
DWIDTH 15 0
BBX 13 21 1 -4
BITMAP
0F00
1100
1100
0900
0000
0000
2020
6030
4010
4010
8208
8208
8208
8208
4210
4510
38E0
0000
0200
0200
0300
ENDCHAR
STARTCHAR 1FA4
ENCODING 8100
SWIDTH 675 0
DWIDTH 15 0
BBX 13 21 1 -4
BITMAP
0880
0500
0500
0900
0000
0000
2020
6030
4010
4010
8208
8208
8208
8208
4210
4510
38E0
0000
0200
0200
0300
ENDCHAR
STARTCHAR 1FA5
ENCODING 8101
SWIDTH 675 0
DWIDTH 15 0
BBX 13 21 1 -4
BITMAP
0580
0900
1100
0D00
0000
0000
2020
6030
4010
4010
8208
8208
8208
8208
4210
4510
38E0
0000
0200
0200
0300
ENDCHAR
STARTCHAR 1FA6
ENCODING 8102
SWIDTH 675 0
DWIDTH 15 0
BBX 13 22 1 -4
BITMAP
0C00
1380
0000
0600
0100
0200
0000
2020
6030
4010
4010
8208
8208
8208
8208
4210
4510
38E0
0000
0200
0200
0300
ENDCHAR
STARTCHAR 1FA7
ENCODING 8103
SWIDTH 675 0
DWIDTH 15 0
BBX 13 22 1 -4
BITMAP
0C00
1380
0000
0300
0400
0000
0000
2020
6030
4010
4010
8208
8208
8208
8208
4210
4510
38E0
0000
0200
0200
0300
ENDCHAR
STARTCHAR 1FA8
ENCODING 8104
SWIDTH 945 0
DWIDTH 21 0
BBX 20 15 0 0
BITMAP
C3E000
461800
480C00
C80400
100600
100200
100220
100220
100220
100220
100420
080420
0C0820
041820
1E3E30
ENDCHAR
STARTCHAR 1FA9
ENCODING 8105
SWIDTH 945 0
DWIDTH 21 0
BBX 20 15 0 0
BITMAP
C3E000
841000
880800
D00400
100400
100600
100220
100220
100220
100420
100420
080420
080820
041020
3E3E30
ENDCHAR
STARTCHAR 1FAA
ENCODING 8106
SWIDTH 1080 0
DWIDTH 24 0
BBX 23 15 0 0
BITMAP
907C00
518600
530100
8A0100
020080
040080
040088
040088
040088
040088
020088
020108
010108
008208
07C786
ENDCHAR
STARTCHAR 1FAB
ENCODING 8107
SWIDTH 1080 0
DWIDTH 24 0
BBX 23 15 0 0
BITMAP
D07800
918600
930100
920100
060080
040080
040088
040088
040088
040088
020188
020108
010308
018208
07C786
ENDCHAR
STARTCHAR 1FAC
ENCODING 8108
SWIDTH 1080 0
DWIDTH 24 0
BBX 23 15 0 0
BITMAP
907C00
518600
530100
920100
020080
040080
040088
040088
040088
040088
020088
020108
010108
018208
07C786
ENDCHAR
STARTCHAR 1FAD
ENCODING 8109
SWIDTH 1080 0
DWIDTH 24 0
BBX 23 15 0 0
BITMAP
D07800
918600
930100
920100
040080
040080
040088
040088
040088
040088
020188
020108
010208
018208
078786
ENDCHAR
STARTCHAR 1FAE
ENCODING 8110
SWIDTH 1035 0
DWIDTH 23 0
BBX 22 15 0 0
BITMAP
F0F000
030C00
660200
240200
4C0100
080100
080110
080110
080110
080110
040110
040210
020610
030410
0F8F0C
ENDCHAR
STARTCHAR 1FAF
ENCODING 8111
SWIDTH 1035 0
DWIDTH 23 0
BBX 22 15 0 0
BITMAP
F0F000
030C00
660200
840200
4C0100
080100
080110
080110
080110
080110
040110
040210
020610
030410
0F8F0C
ENDCHAR
STARTCHAR 1FB0
ENCODING 8112
SWIDTH 540 0
DWIDTH 12 0
BBX 10 16 1 0
BITMAP
2100
2100
1E00
0000
0000
1E40
2140
4180
C080
8080
8080
8080
8080
4180
4280
3CC0
ENDCHAR
STARTCHAR 1FB1
ENCODING 8113
SWIDTH 540 0
DWIDTH 12 0
BBX 10 15 1 0
BITMAP
3F00
0000
0000
0000
1E40
2140
4180
C080
8080
8080
8080
8080
4180
4280
3CC0
ENDCHAR
STARTCHAR 1FB2
ENCODING 8114
SWIDTH 540 0
DWIDTH 12 0
BBX 10 20 1 -3
BITMAP
1000
0800
0400
0000
0000
1E40
2140
4180
C080
8080
8080
8080
8080
4180
4280
3CC0
0000
0400
0400
0600
ENDCHAR
STARTCHAR 1FB3
ENCODING 8115
SWIDTH 540 0
DWIDTH 12 0
BBX 10 15 1 -4
BITMAP
1E40
2140
4180
C080
8080
8080
8080
8080
4180
4280
3CC0
0000
0400
0400
0600
ENDCHAR
STARTCHAR 1FB4
ENCODING 8116
SWIDTH 540 0
DWIDTH 12 0
BBX 10 20 1 -3
BITMAP
0200
0400
0800
0000
0000
1E40
2140
4180
C080
8080
8080
8080
8080
4180
4280
3CC0
0000
0400
0400
0600
ENDCHAR
STARTCHAR 1FB6
ENCODING 8118
SWIDTH 540 0
DWIDTH 12 0
BBX 10 16 1 0
BITMAP
1080
2C80
0300
0000
0000
1E40
2140
4180
C080
8080
8080
8080
8080
4180
4280
3CC0
ENDCHAR
STARTCHAR 1FB7
ENCODING 8119
SWIDTH 540 0
DWIDTH 12 0
BBX 10 20 1 -4
BITMAP
1080
2C80
0300
0000
0000
1E40
2140
4180
C080
8080
8080
8080
8080
4180
4280
3CC0
0000
0400
0400
0600
ENDCHAR
STARTCHAR 1FB8
ENCODING 8120
SWIDTH 540 0
DWIDTH 12 0
BBX 11 19 0 0
BITMAP
1080
1100
0F00
0000
0600
0600
0A00
0900
0900
1100
1080
1080
2080
3FC0
2040
4040
4020
4020
8020
ENDCHAR
STARTCHAR 1FB9
ENCODING 8121
SWIDTH 540 0
DWIDTH 12 0
BBX 11 18 0 0
BITMAP
1F80
0000
0000
0600
0600
0A00
0900
0900
1100
1080
1080
2080
3FC0
2040
4040
4020
4020
8020
ENDCHAR
STARTCHAR 1FBA
ENCODING 8122
SWIDTH 540 0
DWIDTH 12 0
BBX 11 15 0 0
BITMAP
8600
4600
4A00
4900
0900
0900
1080
1080
1080
3FC0
2040
6040
4020
4020
8020
ENDCHAR
STARTCHAR 1FBB
ENCODING 8123
SWIDTH 540 0
DWIDTH 12 0
BBX 11 15 0 0
BITMAP
4600
4600
8A00
8900
0900
0900
1080
1080
1080
3FC0
2040
6040
4020
4020
8020
ENDCHAR
STARTCHAR 1FBC
ENCODING 8124
SWIDTH 765 0
DWIDTH 17 0
BBX 16 15 0 0
BITMAP
0600
0600
0A00
0900
0900
1100
1082
1082
2082
3FC2
2042
4042
4022
4022
8023
ENDCHAR
STARTCHAR 1FBD
ENCODING 8125
SWIDTH 540 0
DWIDTH 12 0
BBX 2 4 5 13
BITMAP
80
40
40
C0
ENDCHAR
STARTCHAR 1FBE
ENCODING 8126
SWIDTH 225 0
DWIDTH 5 0
BBX 2 9 2 0
BITMAP
80
80
80
80
80
80
80
80
C0
ENDCHAR
STARTCHAR 1FBF
ENCODING 8127
SWIDTH 540 0
DWIDTH 12 0
BBX 2 4 5 13
BITMAP
80
40
40
C0
ENDCHAR
STARTCHAR 1FC0
ENCODING 8128
SWIDTH 540 0
DWIDTH 12 0
BBX 8 3 2 13
BITMAP
61
92
8E
ENDCHAR
STARTCHAR 1FC1
ENCODING 8129
SWIDTH 540 0
DWIDTH 12 0
BBX 6 4 3 13
BITMAP
C0
B4
08
CC
ENDCHAR
STARTCHAR 1FC2
ENCODING 8130
SWIDTH 540 0
DWIDTH 12 0
BBX 8 21 2 -4
BITMAP
20
20
10
08
00
00
9E
A2
C1
81
81
81
81
81
81
81
81
01
81
81
C1
ENDCHAR
STARTCHAR 1FC3
ENCODING 8131
SWIDTH 540 0
DWIDTH 12 0
BBX 8 15 2 -4
BITMAP
9E
A2
C1
81
81
81
81
81
81
81
81
01
81
81
C1
ENDCHAR
STARTCHAR 1FC4
ENCODING 8132
SWIDTH 540 0
DWIDTH 12 0
BBX 8 20 2 -3
BITMAP
04
08
10
00
00
9E
A2
C1
81
81
81
81
81
81
81
81
01
81
81
C1
ENDCHAR
STARTCHAR 1FC6
ENCODING 8134
SWIDTH 540 0
DWIDTH 12 0
BBX 8 20 2 -4
BITMAP
31
49
06
00
00
9E
A2
C1
81
81
81
81
81
81
81
81
01
01
01
01
ENDCHAR
STARTCHAR 1FC7
ENCODING 8135
SWIDTH 540 0
DWIDTH 12 0
BBX 8 20 2 -4
BITMAP
31
49
06
00
00
9E
A2
C1
81
81
81
81
81
81
81
81
01
81
81
C1
ENDCHAR
STARTCHAR 1FC8
ENCODING 8136
SWIDTH 540 0
DWIDTH 12 0
BBX 11 15 0 0
BITMAP
9FE0
9000
9000
9000
1000
1000
1000
1FC0
1000
1000
1000
1000
1000
1000
1FE0
ENDCHAR
STARTCHAR 1FC9
ENCODING 8137
SWIDTH 540 0
DWIDTH 12 0
BBX 12 15 -1 0
BITMAP
4FF0
4800
4800
8800
0800
0800
0800
0FE0
0800
0800
0800
0800
0800
0800
0FF0
ENDCHAR
STARTCHAR 1FCA
ENCODING 8138
SWIDTH 675 0
DWIDTH 15 0
BBX 13 15 0 0
BITMAP
9008
9008
9008
9008
1008
1008
1008
1FF8
1008
1008
1008
1008
1008
1008
1008
ENDCHAR
STARTCHAR 1FCB
ENCODING 8139
SWIDTH 675 0
DWIDTH 15 0
BBX 14 15 -1 0
BITMAP
4804
4804
4804
8804
0804
0804
0804
0FFC
0804
0804
0804
0804
0804
0804
0804
ENDCHAR
STARTCHAR 1FCC
ENCODING 8140
SWIDTH 855 0
DWIDTH 19 0
BBX 17 15 2 0
BITMAP
804000
804000
804000
804000
804000
804200
FFC200
804200
804200
804200
804200
804200
804200
804200
804180
ENDCHAR
STARTCHAR 1FCD
ENCODING 8141
SWIDTH 540 0
DWIDTH 12 0
BBX 5 4 3 13
BITMAP
90
50
48
C8
ENDCHAR
STARTCHAR 1FCE
ENCODING 8142
SWIDTH 540 0
DWIDTH 12 0
BBX 5 4 3 13
BITMAP
88
48
48
D0
ENDCHAR
STARTCHAR 1FCF
ENCODING 8143
SWIDTH 540 0
DWIDTH 12 0
BBX 6 6 3 12
BITMAP
40
A4
98
30
10
20
ENDCHAR
STARTCHAR 1FD0
ENCODING 8144
SWIDTH 225 0
DWIDTH 5 0
BBX 7 16 -1 0
BITMAP
82
44
38
00
00
10
10
10
10
10
10
10
10
10
10
18
ENDCHAR
STARTCHAR 1FD1
ENCODING 8145
SWIDTH 225 0
DWIDTH 5 0
BBX 5 15 0 0
BITMAP
F8
00
00
00
20
20
20
20
20
20
20
20
20
20
30
ENDCHAR
STARTCHAR 1FD2
ENCODING 8146
SWIDTH 225 0
DWIDTH 5 0
BBX 6 17 0 0
BITMAP
40
20
AC
20
00
00
20
20
20
20
20
20
20
20
20
20
30
ENDCHAR
STARTCHAR 1FD3
ENCODING 8147
SWIDTH 225 0
DWIDTH 5 0
BBX 6 17 0 0
BITMAP
10
20
AC
20
00
00
20
20
20
20
20
20
20
20
20
20
30
ENDCHAR
STARTCHAR 1FD6
ENCODING 8150
SWIDTH 225 0
DWIDTH 5 0
BBX 7 16 -1 0
BITMAP
62
92
8C
00
00
10
10
10
10
10
10
10
10
10
10
18
ENDCHAR
STARTCHAR 1FD7
ENCODING 8151
SWIDTH 225 0
DWIDTH 5 0
BBX 7 18 -1 0
BITMAP
62
92
0C
44
44
00
00
10
10
10
10
10
10
10
10
10
10
18
ENDCHAR
STARTCHAR 1FD8
ENCODING 8152
SWIDTH 225 0
DWIDTH 5 0
BBX 6 19 0 0
BITMAP
04
88
70
00
20
20
20
20
20
20
20
20
20
20
20
20
20
20
20
ENDCHAR
STARTCHAR 1FD9
ENCODING 8153
SWIDTH 225 0
DWIDTH 5 0
BBX 5 18 0 0
BITMAP
F8
00
00
20
20
20
20
20
20
20
20
20
20
20
20
20
20
20
ENDCHAR
STARTCHAR 1FDA
ENCODING 8154
SWIDTH 270 0
DWIDTH 6 0
BBX 4 15 0 0
BITMAP
90
90
90
90
10
10
10
10
10
10
10
10
10
10
10
ENDCHAR
STARTCHAR 1FDB
ENCODING 8155
SWIDTH 270 0
DWIDTH 6 0
BBX 5 15 -1 0
BITMAP
48
48
48
88
08
08
08
08
08
08
08
08
08
08
08
ENDCHAR
STARTCHAR 1FDD
ENCODING 8157
SWIDTH 540 0
DWIDTH 12 0
BBX 5 4 3 13
BITMAP
50
90
90
48
ENDCHAR
STARTCHAR 1FDE
ENCODING 8158
SWIDTH 540 0
DWIDTH 12 0
BBX 5 4 3 13
BITMAP
48
88
90
50
ENDCHAR
STARTCHAR 1FDF
ENCODING 8159
SWIDTH 540 0
DWIDTH 12 0
BBX 6 6 3 12
BITMAP
40
B4
08
30
20
10
ENDCHAR
STARTCHAR 1FE0
ENCODING 8160
SWIDTH 495 0
DWIDTH 11 0
BBX 8 16 2 0
BITMAP
84
84
78
00
00
82
82
82
81
81
81
81
82
82
86
78
ENDCHAR
STARTCHAR 1FE1
ENCODING 8161
SWIDTH 495 0
DWIDTH 11 0
BBX 8 15 2 0
BITMAP
FC
00
00
00
82
82
82
81
81
81
81
82
82
86
78
ENDCHAR
STARTCHAR 1FE2
ENCODING 8162
SWIDTH 495 0
DWIDTH 11 0
BBX 8 17 2 0
BITMAP
20
20
D4
10
00
00
82
82
82
81
81
81
81
82
82
86
78
ENDCHAR
STARTCHAR 1FE3
ENCODING 8163
SWIDTH 495 0
DWIDTH 11 0
BBX 8 17 2 0
BITMAP
10
10
D4
20
00
00
82
82
82
81
81
81
81
82
82
86
78
ENDCHAR
STARTCHAR 1FE4
ENCODING 8164
SWIDTH 540 0
DWIDTH 12 0
BBX 9 21 2 -4
BITMAP
1800
0400
0400
0800
0000
0000
3E00
4300
C100
8080
8080
8080
8080
8180
8100
C200
BC00
8000
8000
8000
8000
ENDCHAR
STARTCHAR 1FE5
ENCODING 8165
SWIDTH 540 0
DWIDTH 12 0
BBX 9 21 2 -4
BITMAP
0C00
1000
1000
0800
0000
0000
3E00
4300
C100
8080
8080
8080
8080
8180
8100
C200
BC00
8000
8000
8000
8000
ENDCHAR
STARTCHAR 1FE6
ENCODING 8166
SWIDTH 495 0
DWIDTH 11 0
BBX 8 16 2 0
BITMAP
42
B2
0C
00
00
82
82
82
81
81
81
81
82
82
86
78
ENDCHAR
STARTCHAR 1FE7
ENCODING 8167
SWIDTH 495 0
DWIDTH 11 0
BBX 8 18 2 0
BITMAP
60
94
0C
CC
40
00
00
82
82
82
81
81
81
81
82
82
86
78
ENDCHAR
STARTCHAR 1FE8
ENCODING 8168
SWIDTH 450 0
DWIDTH 10 0
BBX 10 19 0 0
BITMAP
2100
2100
1E00
0000
8040
4080
4080
2100
2100
1200
1200
0C00
0C00
0800
0800
0800
0800
0800
0800
ENDCHAR
STARTCHAR 1FE9
ENCODING 8169
SWIDTH 450 0
DWIDTH 10 0
BBX 10 18 0 0
BITMAP
3F00
0000
0000
8040
4080
4080
2100
2100
1200
1200
0C00
0C00
0800
0800
0800
0800
0800
0800
ENDCHAR
STARTCHAR 1FEA
ENCODING 8170
SWIDTH 540 0
DWIDTH 12 0
BBX 12 15 0 0
BITMAP
A010
9020
9020
8840
0840
0480
0480
0300
0300
0300
0300
0300
0300
0300
0300
ENDCHAR
STARTCHAR 1FEB
ENCODING 8171
SWIDTH 540 0
DWIDTH 12 0
BBX 13 15 -1 0
BITMAP
5008
4810
4810
8420
0420
0240
0240
0180
0180
0180
0180
0180
0180
0180
0180
ENDCHAR
STARTCHAR 1FEC
ENCODING 8172
SWIDTH 630 0
DWIDTH 14 0
BBX 13 15 0 0
BITMAP
CFE0
8810
8808
C808
0808
0808
0808
0830
0FC0
0800
0800
0800
0800
0800
0800
ENDCHAR
STARTCHAR 1FED
ENCODING 8173
SWIDTH 540 0
DWIDTH 12 0
BBX 6 4 3 13
BITMAP
20
20
AC
20
ENDCHAR
STARTCHAR 1FEE
ENCODING 8174
SWIDTH 540 0
DWIDTH 12 0
BBX 6 4 3 13
BITMAP
10
10
AC
20
ENDCHAR
STARTCHAR 1FEF
ENCODING 8175
SWIDTH 540 0
DWIDTH 12 0
BBX 2 4 4 13
BITMAP
C0
40
40
40
ENDCHAR
STARTCHAR 1FF2
ENCODING 8178
SWIDTH 675 0
DWIDTH 15 0
BBX 13 20 1 -3
BITMAP
0C00
0600
0200
0000
0000
2020
6030
4010
4010
8208
8208
8208
8208
4210
4510
38E0
0000
0200
0200
0300
ENDCHAR
STARTCHAR 1FF3
ENCODING 8179
SWIDTH 675 0
DWIDTH 15 0
BBX 13 15 1 -4
BITMAP
2020
6030
4010
4010
8208
8208
8208
8208
4210
4510
38E0
0000
0200
0200
0300
ENDCHAR
STARTCHAR 1FF4
ENCODING 8180
SWIDTH 675 0
DWIDTH 15 0
BBX 13 20 1 -3
BITMAP
0180
0300
0200
0000
0000
2020
6030
4010
4010
8208
8208
8208
8208
4210
4510
38E0
0000
0200
0200
0300
ENDCHAR
STARTCHAR 1FF6
ENCODING 8182
SWIDTH 675 0
DWIDTH 15 0
BBX 13 16 1 0
BITMAP
0C40
1240
1180
0000
0000
2020
6030
4010
4010
8208
8208
8208
8208
4210
4510
38E0
ENDCHAR
STARTCHAR 1FF7
ENCODING 8183
SWIDTH 675 0
DWIDTH 15 0
BBX 13 20 1 -4
BITMAP
0C40
1240
1180
0000
0000
2020
6030
4010
4010
8208
8208
8208
8208
4210
4510
38E0
0000
0200
0200
0300
ENDCHAR
STARTCHAR 1FF8
ENCODING 8184
SWIDTH 675 0
DWIDTH 15 0
BBX 14 15 0 0
BITMAP
87C0
8830
9010
B008
2008
200C
2004
2004
2004
200C
2008
1008
1010
0830
07C0
ENDCHAR
STARTCHAR 1FF9
ENCODING 8185
SWIDTH 675 0
DWIDTH 15 0
BBX 15 15 -1 0
BITMAP
43E0
4418
4808
9804
1004
1006
1002
1002
1002
1006
1004
1804
0808
0418
03E0
ENDCHAR
STARTCHAR 1FFA
ENCODING 8186
SWIDTH 675 0
DWIDTH 15 0
BBX 14 15 0 0
BITMAP
87C0
8C30
9010
9008
2008
2004
2004
2004
2004
2004
2008
1008
1010
0820
7C7C
ENDCHAR
STARTCHAR 1FFB
ENCODING 8187
SWIDTH 675 0
DWIDTH 15 0
BBX 15 15 -1 0
BITMAP
43E0
4618
4808
9804
1004
1002
1002
1002
1002
1006
1004
0804
0808
0410
3E3E
ENDCHAR
STARTCHAR 1FFC
ENCODING 8188
SWIDTH 900 0
DWIDTH 20 0
BBX 18 15 1 0
BITMAP
0F8000
304000
202000
403000
401000
C01000
801080
801080
801080
401080
401080
402080
202080
104080
F8F8C0
ENDCHAR
STARTCHAR 1FFD
ENCODING 8189
SWIDTH 540 0
DWIDTH 12 0
BBX 2 4 6 13
BITMAP
C0
80
80
80
ENDCHAR
STARTCHAR 1FFE
ENCODING 8190
SWIDTH 540 0
DWIDTH 12 0
BBX 3 4 4 13
BITMAP
20
C0
80
60
ENDCHAR
STARTCHAR 2007
ENCODING 8199
SWIDTH 495 0
DWIDTH 11 0
BBX 0 0 0 0
BITMAP
ENDCHAR
STARTCHAR 2012
ENCODING 8210
SWIDTH 495 0
DWIDTH 11 0
BBX 9 1 1 5
BITMAP
FF80
ENDCHAR
STARTCHAR 2013
ENCODING 8211
SWIDTH 495 0
DWIDTH 11 0
BBX 9 1 1 5
BITMAP
FF80
ENDCHAR
STARTCHAR 2014
ENCODING 8212
SWIDTH 810 0
DWIDTH 18 0
BBX 16 1 1 5
BITMAP
FFFF
ENDCHAR
STARTCHAR 2015
ENCODING 8213
SWIDTH 810 0
DWIDTH 18 0
BBX 16 1 1 5
BITMAP
FFFF
ENDCHAR
STARTCHAR 2016
ENCODING 8214
SWIDTH 360 0
DWIDTH 8 0
BBX 4 22 2 -5
BITMAP
90
90
90
90
90
90
90
90
90
90
90
90
90
90
90
90
90
90
90
90
90
90
ENDCHAR
STARTCHAR 2018
ENCODING 8216
SWIDTH 225 0
DWIDTH 5 0
BBX 3 5 1 11
BITMAP
20
40
80
C0
C0
ENDCHAR
STARTCHAR 2019
ENCODING 8217
SWIDTH 225 0
DWIDTH 5 0
BBX 2 5 2 11
BITMAP
80
C0
40
80
80
ENDCHAR
STARTCHAR 201A
ENCODING 8218
SWIDTH 225 0
DWIDTH 5 0
BBX 3 5 1 -3
BITMAP
40
60
40
40
80
ENDCHAR
STARTCHAR 201C
ENCODING 8220
SWIDTH 360 0
DWIDTH 8 0
BBX 6 5 1 11
BITMAP
24
48
90
D8
C8
ENDCHAR
STARTCHAR 201D
ENCODING 8221
SWIDTH 360 0
DWIDTH 8 0
BBX 5 5 2 11
BITMAP
90
D8
48
90
90
ENDCHAR
STARTCHAR 201E
ENCODING 8222
SWIDTH 360 0
DWIDTH 8 0
BBX 6 5 1 -3
BITMAP
4C
6C
44
48
90
ENDCHAR
STARTCHAR 2020
ENCODING 8224
SWIDTH 405 0
DWIDTH 9 0
BBX 7 17 1 -1
BITMAP
10
10
10
FE
10
10
10
10
10
10
10
10
10
10
10
10
10
ENDCHAR
STARTCHAR 2021
ENCODING 8225
SWIDTH 405 0
DWIDTH 9 0
BBX 7 17 1 -1
BITMAP
10
10
10
FE
10
10
10
10
10
10
10
10
10
FE
10
10
10
ENDCHAR
STARTCHAR 2022
ENCODING 8226
SWIDTH 270 0
DWIDTH 6 0
BBX 4 5 1 3
BITMAP
60
F0
F0
F0
60
ENDCHAR
STARTCHAR 2026
ENCODING 8230
SWIDTH 945 0
DWIDTH 21 0
BBX 17 2 2 0
BITMAP
C0C180
C0C180
ENDCHAR
STARTCHAR 202F
ENCODING 8239
SWIDTH 135 0
DWIDTH 3 0
BBX 0 0 0 0
BITMAP
ENDCHAR
STARTCHAR 2030
ENCODING 8240
SWIDTH 1170 0
DWIDTH 26 0
BBX 24 15 1 0
BITMAP
781000
481000
842000
844000
844000
848000
849C1C
852222
792121
022121
022121
042121
042121
082222
101C1C
ENDCHAR
STARTCHAR 2032
ENCODING 8242
SWIDTH 225 0
DWIDTH 5 0
BBX 1 5 2 11
BITMAP
80
80
80
80
80
ENDCHAR
STARTCHAR 2033
ENCODING 8243
SWIDTH 360 0
DWIDTH 8 0
BBX 4 5 2 11
BITMAP
90
90
90
90
90
ENDCHAR
STARTCHAR 2035
ENCODING 8245
SWIDTH 225 0
DWIDTH 5 0
BBX 1 5 2 11
BITMAP
80
80
80
80
80
ENDCHAR
STARTCHAR 2039
ENCODING 8249
SWIDTH 270 0
DWIDTH 6 0
BBX 4 8 1 2
BITMAP
10
20
40
80
80
40
20
20
ENDCHAR
STARTCHAR 203A
ENCODING 8250
SWIDTH 270 0
DWIDTH 6 0
BBX 4 8 1 2
BITMAP
80
40
20
10
10
20
40
80
ENDCHAR
STARTCHAR 203C
ENCODING 8252
SWIDTH 495 0
DWIDTH 11 0
BBX 7 15 2 0
BITMAP
82
82
82
82
82
82
82
82
82
82
82
00
00
C2
C2
ENDCHAR
STARTCHAR 203D
ENCODING 8253
SWIDTH 405 0
DWIDTH 9 0
BBX 7 15 1 0
BITMAP
78
84
02
12
12
14
14
28
10
10
20
00
00
30
30
ENDCHAR
STARTCHAR 203E
ENCODING 8254
SWIDTH 495 0
DWIDTH 11 0
BBX 11 1 0 13
BITMAP
FFE0
ENDCHAR
STARTCHAR 203F
ENCODING 8255
SWIDTH 0 0
DWIDTH 0 0
BBX 20 3 -10 -5
BITMAP
C00030
3801C0
07FE00
ENDCHAR
STARTCHAR 2044
ENCODING 8260
SWIDTH 90 0
DWIDTH 2 0
BBX 9 15 -4 0
BITMAP
0080
0100
0100
0200
0200
0400
0400
0800
0800
1000
1000
2000
2000
4000
8000
ENDCHAR
STARTCHAR 2047
ENCODING 8263
SWIDTH 765 0
DWIDTH 17 0
BBX 15 15 1 0
BITMAP
783C
84C6
0202
0202
0202
0404
0804
1808
1010
1010
0010
0000
0000
3010
3010
ENDCHAR
STARTCHAR 2048
ENCODING 8264
SWIDTH 630 0
DWIDTH 14 0
BBX 11 15 1 0
BITMAP
7820
8420
0220
0220
0220
0420
0820
1820
1020
1020
0020
0000
0000
3060
3060
ENDCHAR
STARTCHAR 2049
ENCODING 8265
SWIDTH 630 0
DWIDTH 14 0
BBX 11 15 2 0
BITMAP
83C0
8C60
8020
8020
8020
8040
80C0
8080
8100
8100
8100
0000
0000
C100
C100
ENDCHAR
STARTCHAR 2070
ENCODING 8304
SWIDTH 360 0
DWIDTH 8 0
BBX 6 9 1 9
BITMAP
78
44
84
84
84
84
84
44
78
ENDCHAR
STARTCHAR 2071
ENCODING 8305
SWIDTH 135 0
DWIDTH 3 0
BBX 1 10 1 9
BITMAP
80
00
00
80
80
80
80
80
80
80
ENDCHAR
STARTCHAR 2074
ENCODING 8308
SWIDTH 360 0
DWIDTH 8 0
BBX 6 9 1 9
BITMAP
08
18
28
28
48
88
FC
08
08
ENDCHAR
STARTCHAR 2075
ENCODING 8309
SWIDTH 360 0
DWIDTH 8 0
BBX 6 9 1 9
BITMAP
78
40
40
78
04
04
04
84
78
ENDCHAR
STARTCHAR 2076
ENCODING 8310
SWIDTH 360 0
DWIDTH 8 0
BBX 6 10 1 9
BITMAP
38
40
40
80
B8
C4
84
84
44
38
ENDCHAR
STARTCHAR 2077
ENCODING 8311
SWIDTH 360 0
DWIDTH 8 0
BBX 6 9 1 9
BITMAP
FC
08
08
10
10
20
20
20
20
ENDCHAR
STARTCHAR 2078
ENCODING 8312
SWIDTH 360 0
DWIDTH 8 0
BBX 6 9 1 9
BITMAP
78
48
84
48
70
8C
84
84
78
ENDCHAR
STARTCHAR 2079
ENCODING 8313
SWIDTH 360 0
DWIDTH 8 0
BBX 6 9 1 9
BITMAP
70
88
84
84
8C
74
04
08
F0
ENDCHAR
STARTCHAR 207D
ENCODING 8317
SWIDTH 225 0
DWIDTH 5 0
BBX 3 12 1 7
BITMAP
20
40
40
40
80
80
80
80
40
40
40
20
ENDCHAR
STARTCHAR 207E
ENCODING 8318
SWIDTH 225 0
DWIDTH 5 0
BBX 2 12 1 7
BITMAP
80
80
40
40
40
40
40
40
40
40
80
80
ENDCHAR
STARTCHAR 207F
ENCODING 8319
SWIDTH 360 0
DWIDTH 8 0
BBX 6 7 1 9
BITMAP
B8
C4
84
84
84
84
84
ENDCHAR
STARTCHAR 2080
ENCODING 8320
SWIDTH 360 0
DWIDTH 8 0
BBX 6 9 1 -4
BITMAP
78
44
84
84
84
84
84
44
78
ENDCHAR
STARTCHAR 2081
ENCODING 8321
SWIDTH 360 0
DWIDTH 8 0
BBX 2 9 3 -4
BITMAP
C0
40
40
40
40
40
40
40
40
ENDCHAR
STARTCHAR 2082
ENCODING 8322
SWIDTH 360 0
DWIDTH 8 0
BBX 6 9 1 -4
BITMAP
70
88
08
08
08
10
20
40
FC
ENDCHAR
STARTCHAR 2083
ENCODING 8323
SWIDTH 360 0
DWIDTH 8 0
BBX 6 9 1 -4
BITMAP
78
88
08
08
38
04
04
84
78
ENDCHAR
STARTCHAR 2084
ENCODING 8324
SWIDTH 360 0
DWIDTH 8 0
BBX 6 9 1 -4
BITMAP
08
18
28
48
48
FC
08
08
08
ENDCHAR
STARTCHAR 2085
ENCODING 8325
SWIDTH 360 0
DWIDTH 8 0
BBX 6 9 1 -4
BITMAP
78
40
40
78
04
04
04
84
78
ENDCHAR
STARTCHAR 2086
ENCODING 8326
SWIDTH 360 0
DWIDTH 8 0
BBX 6 9 1 -4
BITMAP
3C
40
80
B0
CC
84
84
44
38
ENDCHAR
STARTCHAR 2087
ENCODING 8327
SWIDTH 360 0
DWIDTH 8 0
BBX 6 9 1 -4
BITMAP
FC
08
08
10
10
20
20
20
20
ENDCHAR
STARTCHAR 2088
ENCODING 8328
SWIDTH 360 0
DWIDTH 8 0
BBX 6 9 1 -4
BITMAP
78
48
84
48
70
8C
84
84
78
ENDCHAR
STARTCHAR 2089
ENCODING 8329
SWIDTH 360 0
DWIDTH 8 0
BBX 6 9 1 -4
BITMAP
70
88
84
84
8C
74
04
08
F0
ENDCHAR
STARTCHAR 208D
ENCODING 8333
SWIDTH 225 0
DWIDTH 5 0
BBX 3 12 1 -6
BITMAP
20
40
40
40
80
80
80
80
40
40
40
20
ENDCHAR
STARTCHAR 208E
ENCODING 8334
SWIDTH 225 0
DWIDTH 5 0
BBX 2 12 1 -6
BITMAP
80
80
40
40
40
40
40
40
40
40
80
80
ENDCHAR
STARTCHAR 2094
ENCODING 8340
SWIDTH 315 0
DWIDTH 7 0
BBX 6 7 1 9
BITMAP
70
08
04
FC
88
88
70
ENDCHAR
STARTCHAR 20A1
ENCODING 8353
SWIDTH 495 0
DWIDTH 11 0
BBX 9 19 1 -2
BITMAP
0900
0A00
0F00
3980
2A00
4A00
4A00
4A00
D200
9400
D400
5400
5400
5400
3480
3580
1E00
2400
2800
ENDCHAR
STARTCHAR 20A4
ENCODING 8356
SWIDTH 495 0
DWIDTH 11 0
BBX 9 15 1 0
BITMAP
1E00
2100
2000
4000
2000
2000
FE00
2000
FE00
1000
1000
2000
2000
4000
FF80
ENDCHAR
STARTCHAR 20A6
ENCODING 8358
SWIDTH 495 0
DWIDTH 11 0
BBX 10 15 0 0
BITMAP
2080
3080
3080
3080
2880
2880
FFC0
2480
FFC0
2280
2280
2280
2280
2180
2180
ENDCHAR
STARTCHAR 20A7
ENCODING 8359
SWIDTH 495 0
DWIDTH 11 0
BBX 10 15 0 0
BITMAP
3E00
2100
2180
2080
FFC0
2080
2100
2300
3C00
2000
2000
2000
2000
2000
2000
ENDCHAR
STARTCHAR 20A9
ENCODING 8361
SWIDTH 495 0
DWIDTH 11 0
BBX 11 14 0 0
BITMAP
8040
8440
4440
4C40
4C40
4A40
FFE0
5280
5280
5280
3280
3180
3180
3100
ENDCHAR
STARTCHAR 20AB
ENCODING 8363
SWIDTH 495 0
DWIDTH 11 0
BBX 8 15 2 0
BITMAP
02
02
3F
02
3A
C6
82
82
82
82
82
C6
7A
00
FE
ENDCHAR
STARTCHAR 20AC
ENCODING 8364
SWIDTH 495 0
DWIDTH 11 0
BBX 9 15 1 0
BITMAP
0F00
1080
2000
2000
4000
4000
FF00
4000
FE00
4000
4000
2000
2000
1080
0F00
ENDCHAR
STARTCHAR 20AE
ENCODING 8366
SWIDTH 495 0
DWIDTH 11 0
BBX 9 14 1 1
BITMAP
FF80
0800
0800
0800
0B00
0C00
3900
4E00
1800
6800
0800
0800
0800
0800
ENDCHAR
STARTCHAR 20B1
ENCODING 8369
SWIDTH 495 0
DWIDTH 11 0
BBX 10 15 0 0
BITMAP
3E00
2100
2100
FFC0
2080
FFC0
2100
2300
3C00
2000
2000
2000
2000
2000
2000
ENDCHAR
STARTCHAR 20B2
ENCODING 8370
SWIDTH 495 0
DWIDTH 11 0
BBX 9 19 1 -2
BITMAP
0400
0400
1E00
2100
4000
4000
4000
8000
8000
8000
8780
8080
8080
4080
4080
2180
1E00
0400
0400
ENDCHAR
STARTCHAR 20B4
ENCODING 8372
SWIDTH 495 0
DWIDTH 11 0
BBX 9 15 1 0
BITMAP
3C00
4200
0100
0100
0200
0200
FF80
1800
FF80
6000
4000
4000
4000
6100
1E00
ENDCHAR
STARTCHAR 20B5
ENCODING 8373
SWIDTH 495 0
DWIDTH 11 0
BBX 9 19 1 -2
BITMAP
0400
0400
0F00
3580
2400
4400
4400
4400
C400
8400
C400
4400
4400
4400
2480
3580
1E00
0400
0400
ENDCHAR
STARTCHAR 20B8
ENCODING 8376
SWIDTH 495 0
DWIDTH 11 0
BBX 9 14 1 1
BITMAP
FF80
0000
FF80
0800
0800
0800
0800
0800
0800
0800
0800
0800
0800
0800
ENDCHAR
STARTCHAR 20B9
ENCODING 8377
SWIDTH 495 0
DWIDTH 11 0
BBX 8 15 2 0
BITMAP
FF
0C
04
FF
04
04
0C
F0
20
30
10
08
08
04
06
ENDCHAR
STARTCHAR 20BA
ENCODING 8378
SWIDTH 495 0
DWIDTH 11 0
BBX 9 15 1 0
BITMAP
2000
2000
2200
2C00
3000
E600
2800
3000
E080
2080
2080
2080
2100
2600
3800
ENDCHAR
STARTCHAR 20BD
ENCODING 8381
SWIDTH 495 0
DWIDTH 11 0
BBX 9 15 0 0
BITMAP
3E00
2100
2080
2080
2080
2080
2100
2300
FC00
2000
FF00
2000
2000
2000
2000
ENDCHAR
STARTCHAR 2113
ENCODING 8467
SWIDTH 360 0
DWIDTH 8 0
BBX 7 16 1 0
BITMAP
1C
24
22
42
44
44
44
48
48
50
60
40
C0
60
22
1C
ENDCHAR
STARTCHAR 2116
ENCODING 8470
SWIDTH 855 0
DWIDTH 19 0
BBX 17 15 2 0
BITMAP
C18000
C10E00
C11100
A12080
A12080
912100
911100
890E00
890000
850000
851F00
850000
830000
830000
810000
ENDCHAR
STARTCHAR 2117
ENCODING 8471
SWIDTH 720 0
DWIDTH 16 0
BBX 14 15 1 0
BITMAP
0380
1C60
2010
4008
47C4
8424
8424
8444
8784
8404
8404
4408
2008
1030
0FC0
ENDCHAR
STARTCHAR 2120
ENCODING 8480
SWIDTH 630 0
DWIDTH 14 0
BBX 12 7 1 8
BITMAP
7230
8330
8350
62D0
1290
1210
F210
ENDCHAR
STARTCHAR 2122
ENCODING 8482
SWIDTH 630 0
DWIDTH 14 0
BBX 13 7 0 8
BITMAP
FD08
2198
2198
21A8
2168
2148
2108
ENDCHAR
STARTCHAR 2126
ENCODING 8486
SWIDTH 675 0
DWIDTH 15 0
BBX 13 15 1 0
BITMAP
0F80
3040
2020
4030
4010
C010
8010
8010
8010
4010
4010
4020
2020
1040
F8F8
ENDCHAR
STARTCHAR 212E
ENCODING 8494
SWIDTH 810 0
DWIDTH 18 0
BBX 16 15 1 0
BITMAP
07E0
1818
2004
6006
6006
E007
E007
FFF8
E000
E000
6000
6000
2004
1018
0FE0
ENDCHAR
STARTCHAR 2150
ENCODING 8528
SWIDTH 765 0
DWIDTH 17 0
BBX 14 15 2 0
BITMAP
4040
C080
4080
4100
4100
4200
42FC
4404
4408
0810
0810
1010
2010
2020
0020
ENDCHAR
STARTCHAR 2151
ENCODING 8529
SWIDTH 765 0
DWIDTH 17 0
BBX 14 15 2 0
BITMAP
4040
C040
4080
4080
4100
4200
4238
4444
4484
0884
0844
103C
1004
2004
2078
ENDCHAR
STARTCHAR 2152
ENCODING 8530
SWIDTH 1035 0
DWIDTH 23 0
BBX 21 15 2 0
BITMAP
404000
C04000
408000
408000
410000
420000
4230E0
441110
441210
081210
081208
101210
101210
201110
2010E0
ENDCHAR
STARTCHAR 2153
ENCODING 8531
SWIDTH 765 0
DWIDTH 17 0
BBX 14 15 2 0
BITMAP
4040
C080
4080
4100
4100
4200
4238
4444
4404
0808
0838
1004
2004
2084
4078
ENDCHAR
STARTCHAR 2154
ENCODING 8532
SWIDTH 810 0
DWIDTH 18 0
BBX 16 15 1 0
BITMAP
7010
8810
0820
0820
0840
1080
209C
4122
FD02
0202
020C
0402
0401
0822
081E
ENDCHAR
STARTCHAR 2155
ENCODING 8533
SWIDTH 765 0
DWIDTH 17 0
BBX 14 15 2 0
BITMAP
4040
C080
4080
4100
4100
4200
427C
4440
4440
0878
0804
1004
2004
2084
4078
ENDCHAR
STARTCHAR 2156
ENCODING 8534
SWIDTH 810 0
DWIDTH 18 0
BBX 16 15 1 0
BITMAP
7010
8810
0820
0820
0840
1080
209E
4110
FD20
022C
0212
0401
0401
0822
081E
ENDCHAR
STARTCHAR 2157
ENCODING 8535
SWIDTH 810 0
DWIDTH 18 0
BBX 16 15 1 0
BITMAP
7810
8810
0820
0840
3840
0480
049E
8510
7920
021E
0202
0401
0401
0822
081E
ENDCHAR
STARTCHAR 2158
ENCODING 8536
SWIDTH 810 0
DWIDTH 18 0
BBX 16 15 1 0
BITMAP
0810
1810
2820
4820
4840
FC40
089F
0890
0910
021E
0201
0401
0401
0821
081E
ENDCHAR
STARTCHAR 2159
ENCODING 8537
SWIDTH 765 0
DWIDTH 17 0
BBX 14 15 2 0
BITMAP
4040
C040
4080
4080
4100
4200
423C
4440
4480
08B8
08C4
1084
1084
2044
2038
ENDCHAR
STARTCHAR 215A
ENCODING 8538
SWIDTH 810 0
DWIDTH 18 0
BBX 16 15 1 0
BITMAP
7810
4020
4020
7840
0440
0480
048E
8510
7920
0220
023E
0421
0421
0822
081C
ENDCHAR
STARTCHAR 215B
ENCODING 8539
SWIDTH 765 0
DWIDTH 17 0
BBX 14 15 2 0
BITMAP
4040
C040
4080
4080
4100
4200
4238
4444
4444
0864
0838
1044
1084
2044
2038
ENDCHAR
STARTCHAR 215C
ENCODING 8540
SWIDTH 810 0
DWIDTH 18 0
BBX 16 15 1 0
BITMAP
7810
8810
0820
0840
3040
0C80
049E
8522
7922
0212
021C
0422
0421
0822
081E
ENDCHAR
STARTCHAR 215D
ENCODING 8541
SWIDTH 810 0
DWIDTH 18 0
BBX 16 15 1 0
BITMAP
7810
4020
4020
7840
0440
0480
049E
8522
7922
0212
021C
0422
0421
0822
081E
ENDCHAR
STARTCHAR 215E
ENCODING 8542
SWIDTH 765 0
DWIDTH 17 0
BBX 15 15 1 0
BITMAP
F820
0840
1040
1080
2080
2100
211C
2222
2222
0424
041C
0822
1042
1022
201C
ENDCHAR
STARTCHAR 2189
ENCODING 8585
SWIDTH 810 0
DWIDTH 18 0
BBX 16 15 1 0
BITMAP
7810
4810
8420
8440
8440
8480
849C
8522
7902
0202
020C
0402
0401
0822
081E
ENDCHAR
STARTCHAR 2190
ENCODING 8592
SWIDTH 630 0
DWIDTH 14 0
BBX 12 11 1 0
BITMAP
0400
0800
1000
2000
4000
FFF0
4000
2000
1000
0800
0400
ENDCHAR
STARTCHAR 2191
ENCODING 8593
SWIDTH 630 0
DWIDTH 14 0
BBX 11 12 1 0
BITMAP
0400
0E00
1500
2480
6440
C420
8400
0400
0400
0400
0400
0400
ENDCHAR
STARTCHAR 2192
ENCODING 8594
SWIDTH 630 0
DWIDTH 14 0
BBX 12 11 1 0
BITMAP
0200
0100
0080
0040
0020
FFF0
0020
0040
0080
0100
0200
ENDCHAR
STARTCHAR 2193
ENCODING 8595
SWIDTH 630 0
DWIDTH 14 0
BBX 12 12 1 0
BITMAP
0400
0400
0400
0400
0400
0400
8430
4460
24C0
1480
0D00
0600
ENDCHAR
STARTCHAR 2202
ENCODING 8706
SWIDTH 495 0
DWIDTH 11 0
BBX 9 15 1 0
BITMAP
1E00
2100
0180
0080
0080
0080
3E80
4180
8080
8080
8080
8100
8100
4200
3C00
ENDCHAR
STARTCHAR 2206
ENCODING 8710
SWIDTH 540 0
DWIDTH 12 0
BBX 11 15 1 0
BITMAP
0C00
0C00
0A00
1200
1200
1100
2100
2100
2080
4080
4080
4040
8040
8040
FFE0
ENDCHAR
STARTCHAR 220F
ENCODING 8719
SWIDTH 630 0
DWIDTH 14 0
BBX 10 17 2 -2
BITMAP
FFC0
8040
8040
8040
8040
8040
8040
8040
8040
8040
8040
8040
8040
8040
8040
8040
8040
ENDCHAR
STARTCHAR 2211
ENCODING 8721
SWIDTH 495 0
DWIDTH 11 0
BBX 11 18 0 -3
BITMAP
7FC0
4000
2000
1000
1000
0800
0400
0400
0200
0200
0400
0800
0800
1000
2000
2000
4000
FFE0
ENDCHAR
STARTCHAR 2212
ENCODING 8722
SWIDTH 495 0
DWIDTH 11 0
BBX 9 1 1 7
BITMAP
FF80
ENDCHAR
STARTCHAR 2215
ENCODING 8725
SWIDTH 90 0
DWIDTH 2 0
BBX 9 15 -4 0
BITMAP
0080
0100
0100
0200
0200
0400
0400
0800
0800
1000
1000
2000
2000
4000
8000
ENDCHAR
STARTCHAR 2219
ENCODING 8729
SWIDTH 495 0
DWIDTH 11 0
BBX 2 2 4 6
BITMAP
C0
C0
ENDCHAR
STARTCHAR 221A
ENCODING 8730
SWIDTH 540 0
DWIDTH 12 0
BBX 11 20 1 -2
BITMAP
0020
0020
0040
0040
0040
0040
0080
0080
0080
2080
E080
2100
1100
1100
1100
0A00
0A00
0A00
0600
0400
ENDCHAR
STARTCHAR 221E
ENCODING 8734
SWIDTH 765 0
DWIDTH 17 0
BBX 15 7 1 4
BITMAP
7838
C4C4
8302
8302
8382
C4C4
7838
ENDCHAR
STARTCHAR 222B
ENCODING 8747
SWIDTH 315 0
DWIDTH 7 0
BBX 5 22 1 -4
BITMAP
18
20
20
20
20
20
20
20
20
20
20
20
20
20
10
10
10
10
10
20
20
C0
ENDCHAR
STARTCHAR 2248
ENCODING 8776
SWIDTH 495 0
DWIDTH 11 0
BBX 9 7 1 4
BITMAP
7000
8900
0600
0000
7000
9880
0700
ENDCHAR
STARTCHAR 2260
ENCODING 8800
SWIDTH 495 0
DWIDTH 11 0
BBX 9 11 1 2
BITMAP
0100
0200
0200
FF80
0800
0800
1000
FF80
2000
4000
4000
ENDCHAR
STARTCHAR 2264
ENCODING 8804
SWIDTH 495 0
DWIDTH 11 0
BBX 9 11 1 1
BITMAP
0380
0C00
7000
8000
6000
1C00
0300
0000
0000
0000
FF80
ENDCHAR
STARTCHAR 2265
ENCODING 8805
SWIDTH 495 0
DWIDTH 11 0
BBX 9 11 1 1
BITMAP
C000
3800
0600
0180
0700
1800
E000
0000
0000
0000
FF80
ENDCHAR
STARTCHAR 231C
ENCODING 8988
SWIDTH 270 0
DWIDTH 6 0
BBX 4 15 2 0
BITMAP
F0
80
80
80
80
80
80
80
80
80
80
80
80
80
80
ENDCHAR
STARTCHAR 231D
ENCODING 8989
SWIDTH 270 0
DWIDTH 6 0
BBX 4 15 0 0
BITMAP
F0
10
10
10
10
10
10
10
10
10
10
10
10
10
10
ENDCHAR
STARTCHAR 231E
ENCODING 8990
SWIDTH 270 0
DWIDTH 6 0
BBX 4 15 2 -1
BITMAP
80
80
80
80
80
80
80
80
80
80
80
80
80
80
F0
ENDCHAR
STARTCHAR 231F
ENCODING 8991
SWIDTH 270 0
DWIDTH 6 0
BBX 4 15 0 -1
BITMAP
10
10
10
10
10
10
10
10
10
10
10
10
10
10
F0
ENDCHAR
STARTCHAR 25A0
ENCODING 9632
SWIDTH 900 0
DWIDTH 20 0
BBX 18 18 1 -1
BITMAP
FFFFC0
FFFFC0
FFFFC0
FFFFC0
FFFFC0
FFFFC0
FFFFC0
FFFFC0
FFFFC0
FFFFC0
FFFFC0
FFFFC0
FFFFC0
FFFFC0
FFFFC0
FFFFC0
FFFFC0
FFFFC0
ENDCHAR
STARTCHAR 25B2
ENCODING 9650
SWIDTH 900 0
DWIDTH 20 0
BBX 18 19 1 -2
BITMAP
008000
00C000
00C000
01E000
01E000
03F000
03F000
07F800
07F800
0FFC00
0FFC00
0FFE00
1FFE00
1FFF00
3FFF00
3FFF00
7FFF80
7FFF80
FFFFC0
ENDCHAR
STARTCHAR 25B3
ENCODING 9651
SWIDTH 900 0
DWIDTH 20 0
BBX 18 18 1 0
BITMAP
004000
00C000
012000
012000
021000
021000
021000
040800
040800
080400
080400
100200
100200
200100
200100
400080
400080
FFFFC0
ENDCHAR
STARTCHAR 25B6
ENCODING 9654
SWIDTH 900 0
DWIDTH 20 0
BBX 18 17 1 0
BITMAP
E00000
F80000
FE0000
FF8000
FFE000
FFF800
FFFE00
FFFF80
FFFFC0
FFFF00
FFFC00
FFF000
FF8000
FE0000
F80000
E00000
800000
ENDCHAR
STARTCHAR 25B7
ENCODING 9655
SWIDTH 900 0
DWIDTH 20 0
BBX 18 17 1 0
BITMAP
E00000
980000
860000
818000
806000
801800
800600
800180
8000C0
800300
800C00
803000
80C000
870000
980000
E00000
800000
ENDCHAR
STARTCHAR 25BC
ENCODING 9660
SWIDTH 900 0
DWIDTH 20 0
BBX 18 18 1 -2
BITMAP
FFFFC0
7FFF80
7FFF80
3FFF00
3FFF00
1FFE00
1FFE00
0FFC00
0FFC00
07F800
07F800
03F000
03F000
01F000
01E000
00E000
00C000
004000
ENDCHAR
STARTCHAR 25BD
ENCODING 9661
SWIDTH 900 0
DWIDTH 20 0
BBX 18 18 1 -2
BITMAP
FFFFC0
400080
400080
200100
200100
100200
100200
080400
080400
040400
040800
040800
021000
021000
012000
012000
00C000
00C000
ENDCHAR
STARTCHAR 25C0
ENCODING 9664
SWIDTH 900 0
DWIDTH 20 0
BBX 18 17 1 0
BITMAP
0000C0
0007C0
001FC0
007FC0
01FFC0
07FFC0
1FFFC0
7FFFC0
FFFFC0
3FFFC0
0FFFC0
01FFC0
007FC0
001FC0
0007C0
0001C0
000040
ENDCHAR
STARTCHAR 25C1
ENCODING 9665
SWIDTH 900 0
DWIDTH 20 0
BBX 18 17 1 0
BITMAP
0000C0
000740
001840
006040
018040
060040
180040
600040
C00040
300040
0C0040
030040
00E040
001840
000640
0001C0
000040
ENDCHAR
STARTCHAR 25C6
ENCODING 9670
SWIDTH 900 0
DWIDTH 20 0
BBX 19 19 1 -2
BITMAP
004000
00E000
01F000
03F800
07FC00
0FFE00
1FFF00
3FFF80
7FFFC0
FFFFE0
7FFFC0
3FFF80
1FFF00
0FFE00
07FC00
03F800
01F000
00E000
004000
ENDCHAR
STARTCHAR 25C9
ENCODING 9673
SWIDTH 900 0
DWIDTH 20 0
BBX 18 19 1 -2
BITMAP
03F000
0C0C00
100300
21E100
47F880
4FFC40
8FFE40
9FFE40
9FFE40
9FFE40
9FFE40
9FFE40
8FFE40
4FFC40
47F880
21E100
100200
0C0C00
03F000
ENDCHAR
STARTCHAR 25CA
ENCODING 9674
SWIDTH 495 0
DWIDTH 11 0
BBX 9 15 1 0
BITMAP
0800
1400
1400
2200
2200
4100
4100
8080
4100
4100
2200
2200
1400
1400
0800
ENDCHAR
STARTCHAR 25CC
ENCODING 9676
SWIDTH 585 0
DWIDTH 13 0
BBX 11 11 1 0
BITMAP
0400
1180
0000
4040
0000
C020
0000
4040
0000
1180
0400
ENDCHAR
STARTCHAR 2610
ENCODING 9744
SWIDTH 810 0
DWIDTH 18 0
BBX 14 15 2 0
BITMAP
FFFC
800C
800C
800C
800C
800C
800C
800C
800C
800C
800C
800C
800C
800C
FFF8
ENDCHAR
STARTCHAR 2611
ENCODING 9745
SWIDTH 810 0
DWIDTH 18 0
BBX 15 17 2 1
BITMAP
0002
0006
FFFC
800C
801C
802C
802C
804C
904C
988C
888C
850C
850C
850C
820C
800C
FFF8
ENDCHAR
STARTCHAR 266A
ENCODING 9834
SWIDTH 495 0
DWIDTH 11 0
BBX 9 16 1 0
BITMAP
0800
0C00
0F00
0B00
0980
0880
0880
0880
0880
0800
0800
0800
7800
F800
F800
F000
ENDCHAR
STARTCHAR 2713
ENCODING 10003
SWIDTH 585 0
DWIDTH 13 0
BBX 13 15 0 0
BITMAP
0008
0010
0020
0040
00C0
0080
0100
0100
8200
4400
4400
2400
2800
2800
1800
ENDCHAR
STARTCHAR 2752
ENCODING 10066
SWIDTH 900 0
DWIDTH 20 0
BBX 18 18 1 -1
BITMAP
7FFFC0
FFFFC0
800040
800040
800040
800040
800040
800040
800040
800040
800040
800040
800040
800040
800040
800040
800040
FFFFC0
ENDCHAR
STARTCHAR 27E6
ENCODING 10214
SWIDTH 360 0
DWIDTH 8 0
BBX 5 20 2 -4
BITMAP
F8
C0
C0
C0
C0
C0
C0
C0
C0
C0
C0
C0
C0
C0
C0
C0
C0
C0
C0
F8
ENDCHAR
STARTCHAR 27E7
ENCODING 10215
SWIDTH 360 0
DWIDTH 8 0
BBX 5 20 0 -4
BITMAP
F8
18
18
18
18
18
18
18
18
18
18
18
18
18
18
18
18
18
18
F8
ENDCHAR
STARTCHAR 2E22
ENCODING 11810
SWIDTH 270 0
DWIDTH 6 0
BBX 4 10 2 6
BITMAP
F0
80
80
80
80
80
80
80
80
80
ENDCHAR
STARTCHAR 2E23
ENCODING 11811
SWIDTH 270 0
DWIDTH 6 0
BBX 4 10 0 6
BITMAP
F0
10
10
10
10
10
10
10
10
10
ENDCHAR
STARTCHAR 2E24
ENCODING 11812
SWIDTH 270 0
DWIDTH 6 0
BBX 4 10 2 -4
BITMAP
80
80
80
80
80
80
80
80
80
F0
ENDCHAR
STARTCHAR 2E25
ENCODING 11813
SWIDTH 270 0
DWIDTH 6 0
BBX 4 10 0 -4
BITMAP
10
10
10
10
10
10
10
10
10
F0
ENDCHAR
STARTCHAR 2E3A
ENCODING 11834
SWIDTH 1485 0
DWIDTH 33 0
BBX 31 1 1 5
BITMAP
FFFFFFFE
ENDCHAR
STARTCHAR 2E3B
ENCODING 11835
SWIDTH 2205 0
DWIDTH 49 0
BBX 47 1 1 5
BITMAP
FFFFFFFFFFFE
ENDCHAR
STARTCHAR FB00
ENCODING 64256
SWIDTH 540 0
DWIDTH 12 0
BBX 11 16 1 0
BITMAP
3CE0
2100
4100
4100
4100
FFE0
4100
4100
4100
4100
4100
4100
4100
4100
4100
4100
ENDCHAR
STARTCHAR FB01
ENCODING 64257
SWIDTH 495 0
DWIDTH 11 0
BBX 9 16 1 0
BITMAP
3800
6100
4180
4000
4000
F900
4100
4100
4100
4100
4100
4100
4100
4100
4100
4100
ENDCHAR
STARTCHAR FB02
ENCODING 64258
SWIDTH 495 0
DWIDTH 11 0
BBX 9 16 1 0
BITMAP
3900
6100
4100
4100
4100
F900
4100
4100
4100
4100
4100
4100
4100
4100
4100
4180
ENDCHAR
STARTCHAR FB03
ENCODING 64259
SWIDTH 765 0
DWIDTH 17 0
BBX 14 16 1 0
BITMAP
3CE0
2104
4104
4100
4100
FFE4
4104
4104
4104
4104
4104
4104
4104
4104
4104
4104
ENDCHAR
STARTCHAR FB04
ENCODING 64260
SWIDTH 765 0
DWIDTH 17 0
BBX 15 16 1 0
BITMAP
3CE4
2104
4104
4104
4104
FFE4
4104
4104
4104
4104
4104
4104
4104
4104
4104
4106
ENDCHAR
STARTCHAR FEFF
ENCODING 65279
SWIDTH 0 0
DWIDTH 0 0
BBX 0 0 0 0
BITMAP
ENDCHAR
ENDFONT
